<?xml version="1.0" encoding="utf-8"?>
<!-- Generator: Adobe Illustrator 27.0.1, SVG Export Plug-In . SVG Version: 6.00 Build 0)  -->
<svg version="1.1" id="Layer_1" xmlns="http://www.w3.org/2000/svg" xmlns:xlink="http://www.w3.org/1999/xlink" x="0px" y="0px"  width="1200px" height="675px"
	 viewBox="0 0 1200 675" style="enable-background:new 0 0 1200 675;" xml:space="preserve">
<style type="text/css">
	.st0{fill:none;stroke:#6100FF;stroke-width:5.625;stroke-miterlimit:10;}
	.st1{fill:none;stroke:#6100FF;stroke-width:5.4979;stroke-miterlimit:10;}
	.st2{fill:#F0F0F0;}
</style>
<g>
	<circle class="st0" cx="1142.2" cy="632.5" r="23.3"/>
	<path class="st1" d="M1165.9,610.2c5.5,5.8,8.9,13.7,8.9,22.3c0,8.7-3.4,16.6-9,22.4"/>
	<path class="st1" d="M1118.7,654.7c-5.4-5.8-8.7-13.6-8.7-22.1c0-8.6,3.3-16.4,8.8-22.2"/>
</g>
<g>
	<path class="st2" d="M944.2,650v-22.7h13.2c0.6,0,1.2,0.2,1.7,0.5c0.5,0.3,0.9,0.7,1.2,1.2c0.3,0.5,0.5,1.1,0.5,1.7v9.5
		c0,0.6-0.2,1.2-0.5,1.7c-0.3,0.5-0.7,0.9-1.2,1.2c-0.5,0.3-1.1,0.5-1.7,0.5h-10.9v6.4H944.2z M947.7,641.2h9.7
		c0.3,0,0.6-0.1,0.8-0.3c0.2-0.2,0.3-0.5,0.3-0.8v-9.5c0-0.3-0.1-0.6-0.3-0.8c-0.2-0.2-0.5-0.3-0.8-0.3h-9.7c-0.3,0-0.6,0.1-0.8,0.3
		c-0.2,0.2-0.3,0.5-0.3,0.8v9.5c0,0.3,0.1,0.6,0.3,0.8C947.1,641.1,947.4,641.2,947.7,641.2z"/>
	<path class="st2" d="M969,643.5c-0.6,0-1.2-0.2-1.7-0.5c-0.5-0.3-0.9-0.7-1.2-1.2c-0.3-0.5-0.5-1.1-0.5-1.7v-5.9h14.2v-3.6
		c0-0.3-0.1-0.6-0.3-0.8c-0.2-0.2-0.5-0.3-0.8-0.3h-13.1v-2.3h13.1c0.6,0,1.2,0.2,1.7,0.5c0.5,0.3,0.9,0.7,1.2,1.2s0.5,1.1,0.5,1.7
		v12.9H969z M969,641.2h10.8v-4.7h-11.9v3.6c0,0.3,0.1,0.6,0.3,0.8C968.4,641.1,968.7,641.2,969,641.2z"/>
	<path class="st2" d="M987.4,643.5v-16.2h13.2c0.6,0,1.2,0.2,1.7,0.5c0.5,0.3,0.9,0.7,1.2,1.2c0.3,0.5,0.5,1.1,0.5,1.7v12.9h-2.3
		v-12.9c0-0.3-0.1-0.6-0.3-0.8c-0.2-0.2-0.5-0.3-0.8-0.3h-9.7c-0.3,0-0.6,0.1-0.8,0.3c-0.2,0.2-0.3,0.5-0.3,0.8v12.9H987.4z"/>
	<path class="st2" d="M1010.9,643.1c-0.5-0.3-0.9-0.7-1.2-1.2c-0.3-0.5-0.5-1.1-0.5-1.7v-9.5c0-0.6,0.2-1.2,0.5-1.7
		c0.3-0.5,0.7-0.9,1.2-1.2c0.5-0.3,1.1-0.5,1.7-0.5h9.7c0.6,0,1.2,0.2,1.7,0.5c0.5,0.3,0.9,0.7,1.2,1.2c0.3,0.5,0.5,1.1,0.5,1.7v9.5
		c0,0.6-0.2,1.2-0.5,1.7c-0.3,0.5-0.7,0.9-1.2,1.2c-0.5,0.3-1.1,0.5-1.7,0.5h-9.7C1012,643.5,1011.4,643.4,1010.9,643.1z
		 M1012.6,641.2h9.7c0.3,0,0.6-0.1,0.8-0.3c0.2-0.2,0.3-0.5,0.3-0.8v-9.5c0-0.3-0.1-0.6-0.3-0.8c-0.2-0.2-0.5-0.3-0.8-0.3h-9.7
		c-0.3,0-0.6,0.1-0.8,0.3c-0.2,0.2-0.3,0.5-0.3,0.8v9.5c0,0.3,0.1,0.6,0.3,0.8C1012.1,641.1,1012.3,641.2,1012.6,641.2z"/>
	<path class="st2" d="M1031.5,650v-22.7h13.2c0.6,0,1.2,0.2,1.7,0.5c0.5,0.3,0.9,0.7,1.2,1.2c0.3,0.5,0.5,1.1,0.5,1.7v9.5
		c0,0.6-0.2,1.2-0.5,1.7c-0.3,0.5-0.7,0.9-1.2,1.2c-0.5,0.3-1.1,0.5-1.7,0.5h-10.9v6.4H1031.5z M1034.9,641.2h9.7
		c0.3,0,0.6-0.1,0.8-0.3c0.2-0.2,0.3-0.5,0.3-0.8v-9.5c0-0.3-0.1-0.6-0.3-0.8c-0.2-0.2-0.5-0.3-0.8-0.3h-9.7c-0.3,0-0.6,0.1-0.8,0.3
		c-0.2,0.2-0.3,0.5-0.3,0.8v9.5c0,0.3,0.1,0.6,0.3,0.8C1034.3,641.1,1034.6,641.2,1034.9,641.2z"/>
	<path class="st2" d="M1054.5,643.1c-0.5-0.3-0.9-0.7-1.2-1.2c-0.3-0.5-0.4-1.1-0.4-1.7V622h2.3v5.3h7v2.3h-7v10.6
		c0,0.3,0.1,0.6,0.3,0.8c0.2,0.2,0.5,0.3,0.8,0.3h5.9v2.3h-5.9C1055.6,643.5,1055,643.4,1054.5,643.1z"/>
	<path class="st2" d="M1067.2,624.3V622h2.3v2.3H1067.2z M1067.2,643.5v-16.2h2.3v16.2H1067.2z"/>
	<path class="st2" d="M1077.1,643.1c-0.5-0.3-0.9-0.7-1.2-1.2c-0.3-0.5-0.5-1.1-0.5-1.7v-9.5c0-0.6,0.2-1.2,0.5-1.7
		c0.3-0.5,0.7-0.9,1.2-1.2c0.5-0.3,1.1-0.5,1.7-0.5h13.1v2.3h-13.1c-0.3,0-0.6,0.1-0.8,0.3c-0.2,0.2-0.3,0.5-0.3,0.8v9.5
		c0,0.3,0.1,0.6,0.3,0.8c0.2,0.2,0.5,0.3,0.8,0.3h13.2v2.3h-13.2C1078.2,643.5,1077.6,643.4,1077.1,643.1z"/>
</g>
</svg>
