<?xml version="1.0" encoding="utf-8" standalone="no"?>
<!DOCTYPE svg PUBLIC "-//W3C//DTD SVG 1.1//EN"
  "http://www.w3.org/Graphics/SVG/1.1/DTD/svg11.dtd">
<svg xmlns:xlink="http://www.w3.org/1999/xlink" width="230.4pt" height="129.6pt" viewBox="0 0 230.4 129.6" xmlns="http://www.w3.org/2000/svg" version="1.1">
 <metadata>
  <rdf:RDF xmlns:dc="http://purl.org/dc/elements/1.1/" xmlns:cc="http://creativecommons.org/ns#" xmlns:rdf="http://www.w3.org/1999/02/22-rdf-syntax-ns#">
   <cc:Work>
    <dc:type rdf:resource="http://purl.org/dc/dcmitype/StillImage"/>
    <dc:date>2023-01-12T15:48:47.338713</dc:date>
    <dc:format>image/svg+xml</dc:format>
    <dc:creator>
     <cc:Agent>
      <dc:title>Matplotlib v3.6.2, https://matplotlib.org/</dc:title>
     </cc:Agent>
    </dc:creator>
   </cc:Work>
  </rdf:RDF>
 </metadata>
 <defs>
  <style type="text/css">*{stroke-linejoin: round; stroke-linecap: butt}</style>
 </defs>
 <g id="figure_1">
  <g id="patch_1">
   <path d="M 0 129.6 
L 230.4 129.6 
L 230.4 0 
L 0 0 
z
" style="fill: #19161e"/>
  </g>
  <g id="axes_1">
   <g id="patch_2">
    <path d="M 14.4 94.218437 
L 193.25875 94.218437 
L 193.25875 25.398438 
L 14.4 25.398438 
z
" style="fill: #0a0119"/>
   </g>
   <g id="matplotlib.axis_1">
    <g id="xtick_1">
     <g id="line2d_1">
      <path d="M 22.529943 94.218437 
L 22.529943 25.398438 
" clip-path="url(#pf24b3cef27)" style="fill: none; stroke: #404040; stroke-width: 0.5; stroke-linecap: round"/>
     </g>
     <g id="line2d_2"/>
     <g id="text_1">
      <text style="fill: #f2f2f2; font: 500 6px 'Helvetica Neue', 'HelveticaNeue', 'Arial', 'Liberation Sans', 'DejaVu Sans', 'Bitstream Vera Sans', sans-serif; text-anchor: middle" x="22.529943" y="101.502812" transform="rotate(-0 22.529943 101.502812)">0</text>
     </g>
    </g>
    <g id="xtick_2">
     <g id="line2d_3">
      <path d="M 49.317235 94.218437 
L 49.317235 25.398438 
" clip-path="url(#pf24b3cef27)" style="fill: none; stroke: #404040; stroke-width: 0.5; stroke-linecap: round"/>
     </g>
     <g id="line2d_4"/>
     <g id="text_2">
      <text style="fill: #f2f2f2; font: 500 6px 'Helvetica Neue', 'HelveticaNeue', 'Arial', 'Liberation Sans', 'DejaVu Sans', 'Bitstream Vera Sans', sans-serif; text-anchor: middle" x="49.317235" y="101.502812" transform="rotate(-0 49.317235 101.502812)">100</text>
     </g>
    </g>
    <g id="xtick_3">
     <g id="line2d_5">
      <path d="M 76.104528 94.218437 
L 76.104528 25.398438 
" clip-path="url(#pf24b3cef27)" style="fill: none; stroke: #404040; stroke-width: 0.5; stroke-linecap: round"/>
     </g>
     <g id="line2d_6"/>
     <g id="text_3">
      <text style="fill: #f2f2f2; font: 500 6px 'Helvetica Neue', 'HelveticaNeue', 'Arial', 'Liberation Sans', 'DejaVu Sans', 'Bitstream Vera Sans', sans-serif; text-anchor: middle" x="76.104528" y="101.502812" transform="rotate(-0 76.104528 101.502812)">200</text>
     </g>
    </g>
    <g id="xtick_4">
     <g id="line2d_7">
      <path d="M 102.89182 94.218437 
L 102.89182 25.398438 
" clip-path="url(#pf24b3cef27)" style="fill: none; stroke: #404040; stroke-width: 0.5; stroke-linecap: round"/>
     </g>
     <g id="line2d_8"/>
     <g id="text_4">
      <text style="fill: #f2f2f2; font: 500 6px 'Helvetica Neue', 'HelveticaNeue', 'Arial', 'Liberation Sans', 'DejaVu Sans', 'Bitstream Vera Sans', sans-serif; text-anchor: middle" x="102.89182" y="101.502812" transform="rotate(-0 102.89182 101.502812)">300</text>
     </g>
    </g>
    <g id="xtick_5">
     <g id="line2d_9">
      <path d="M 129.679112 94.218437 
L 129.679112 25.398438 
" clip-path="url(#pf24b3cef27)" style="fill: none; stroke: #404040; stroke-width: 0.5; stroke-linecap: round"/>
     </g>
     <g id="line2d_10"/>
     <g id="text_5">
      <text style="fill: #f2f2f2; font: 500 6px 'Helvetica Neue', 'HelveticaNeue', 'Arial', 'Liberation Sans', 'DejaVu Sans', 'Bitstream Vera Sans', sans-serif; text-anchor: middle" x="129.679112" y="101.502812" transform="rotate(-0 129.679112 101.502812)">400</text>
     </g>
    </g>
    <g id="xtick_6">
     <g id="line2d_11">
      <path d="M 156.466404 94.218437 
L 156.466404 25.398438 
" clip-path="url(#pf24b3cef27)" style="fill: none; stroke: #404040; stroke-width: 0.5; stroke-linecap: round"/>
     </g>
     <g id="line2d_12"/>
     <g id="text_6">
      <text style="fill: #f2f2f2; font: 500 6px 'Helvetica Neue', 'HelveticaNeue', 'Arial', 'Liberation Sans', 'DejaVu Sans', 'Bitstream Vera Sans', sans-serif; text-anchor: middle" x="156.466404" y="101.502812" transform="rotate(-0 156.466404 101.502812)">500</text>
     </g>
    </g>
    <g id="xtick_7">
     <g id="line2d_13">
      <path d="M 183.253696 94.218437 
L 183.253696 25.398438 
" clip-path="url(#pf24b3cef27)" style="fill: none; stroke: #404040; stroke-width: 0.5; stroke-linecap: round"/>
     </g>
     <g id="line2d_14"/>
     <g id="text_7">
      <text style="fill: #f2f2f2; font: 500 6px 'Helvetica Neue', 'HelveticaNeue', 'Arial', 'Liberation Sans', 'DejaVu Sans', 'Bitstream Vera Sans', sans-serif; text-anchor: middle" x="183.253696" y="101.502812" transform="rotate(-0 183.253696 101.502812)">600</text>
     </g>
    </g>
    <g id="text_8">
     <text style="fill: #f2f2f2; font: 500 7px 'Helvetica Neue', 'HelveticaNeue', 'Arial', 'Liberation Sans', 'DejaVu Sans', 'Bitstream Vera Sans', sans-serif; text-anchor: middle" x="103.829375" y="113.765" transform="rotate(-0 103.829375 113.765)">Time (days)</text>
    </g>
   </g>
   <g id="matplotlib.axis_2">
    <g id="ytick_1">
     <g id="line2d_15">
      <path d="M 14.4 28.927668 
L 193.25875 28.927668 
" clip-path="url(#pf24b3cef27)" style="fill: none; stroke: #404040; stroke-width: 0.5; stroke-linecap: round"/>
     </g>
     <g id="line2d_16"/>
     <g id="text_9">
      <text style="fill: #f2f2f2; font: 500 6px 'Helvetica Neue', 'HelveticaNeue', 'Arial', 'Liberation Sans', 'DejaVu Sans', 'Bitstream Vera Sans', sans-serif; text-anchor: start" x="196.25875" y="31.069856" transform="rotate(-0 196.25875 31.069856)">0%</text>
     </g>
    </g>
    <g id="ytick_2">
     <g id="line2d_17">
      <path d="M 14.4 46.573822 
L 193.25875 46.573822 
" clip-path="url(#pf24b3cef27)" style="fill: none; stroke: #404040; stroke-width: 0.5; stroke-linecap: round"/>
     </g>
     <g id="line2d_18"/>
     <g id="text_10">
      <text style="fill: #f2f2f2; font: 500 6px 'Helvetica Neue', 'HelveticaNeue', 'Arial', 'Liberation Sans', 'DejaVu Sans', 'Bitstream Vera Sans', sans-serif; text-anchor: start" x="196.25875" y="48.71601" transform="rotate(-0 196.25875 48.71601)">-50%</text>
     </g>
    </g>
    <g id="ytick_3">
     <g id="line2d_19">
      <path d="M 14.4 64.219976 
L 193.25875 64.219976 
" clip-path="url(#pf24b3cef27)" style="fill: none; stroke: #404040; stroke-width: 0.5; stroke-linecap: round"/>
     </g>
     <g id="line2d_20"/>
     <g id="text_11">
      <text style="fill: #f2f2f2; font: 500 6px 'Helvetica Neue', 'HelveticaNeue', 'Arial', 'Liberation Sans', 'DejaVu Sans', 'Bitstream Vera Sans', sans-serif; text-anchor: start" x="196.25875" y="66.362163" transform="rotate(-0 196.25875 66.362163)">-100%</text>
     </g>
    </g>
    <g id="ytick_4">
     <g id="line2d_21">
      <path d="M 14.4 81.86613 
L 193.25875 81.86613 
" clip-path="url(#pf24b3cef27)" style="fill: none; stroke: #404040; stroke-width: 0.5; stroke-linecap: round"/>
     </g>
     <g id="line2d_22"/>
     <g id="text_12">
      <text style="fill: #f2f2f2; font: 500 6px 'Helvetica Neue', 'HelveticaNeue', 'Arial', 'Liberation Sans', 'DejaVu Sans', 'Bitstream Vera Sans', sans-serif; text-anchor: start" x="196.25875" y="84.008317" transform="rotate(-0 196.25875 84.008317)">-150%</text>
     </g>
    </g>
    <g id="text_13">
     <text style="fill: #f2f2f2; font: 500 7px 'Helvetica Neue', 'HelveticaNeue', 'Arial', 'Liberation Sans', 'DejaVu Sans', 'Bitstream Vera Sans', sans-serif; text-anchor: middle" x="216.063437" y="59.808437" transform="rotate(-90 216.063437 59.808437)">P/L Open</text>
    </g>
   </g>
   <g id="line2d_23">
    <path d="M 22.529943 28.927668 
L 22.797816 32.184919 
L 23.333562 34.715071 
L 23.601435 38.28625 
L 24.137181 40.86279 
L 24.405054 39.073454 
L 24.672927 38.330999 
L 24.940799 38.61762 
L 25.476545 37.80264 
L 25.744418 38.466257 
L 26.012291 37.600007 
L 26.280164 37.759717 
L 26.548037 39.529962 
L 26.81591 40.152986 
L 27.351656 44.670905 
L 27.619529 44.437407 
L 27.887402 41.623708 
L 28.155275 40.106416 
L 28.423147 36.985722 
L 28.69102 36.643819 
L 28.958893 36.11795 
L 29.226766 36.914832 
L 29.494639 36.618455 
L 29.762512 36.561658 
L 30.298258 37.609575 
L 30.566131 38.529192 
L 30.834004 38.899966 
L 31.101877 39.704294 
L 31.36975 39.455032 
L 31.637623 40.757058 
L 31.905495 39.829213 
L 32.173368 39.58899 
L 32.441241 40.473477 
L 32.709114 42.046589 
L 32.976987 42.416598 
L 33.24486 40.606002 
L 33.512733 40.656091 
L 33.780606 41.204223 
L 34.048479 40.448429 
L 34.316352 40.983681 
L 34.584225 40.852674 
L 34.852098 41.003648 
L 35.119971 42.425053 
L 35.387843 43.157072 
L 35.655716 41.645463 
L 35.923589 41.524258 
L 36.191462 42.361177 
L 36.459335 41.667845 
L 36.995081 43.756373 
L 37.262954 43.421858 
L 37.530827 44.627707 
L 37.7987 43.454053 
L 38.066573 43.589911 
L 38.334446 43.361192 
L 38.602319 41.529054 
L 38.870191 41.957564 
L 39.138064 37.924825 
L 39.405937 38.649677 
L 39.67381 39.005223 
L 39.941683 38.264464 
L 40.209556 38.76287 
L 40.745302 38.726742 
L 41.013175 39.299447 
L 41.281048 41.11507 
L 41.548921 41.364558 
L 42.084666 42.845762 
L 42.352539 42.831053 
L 42.620412 42.638883 
L 42.888285 44.343388 
L 43.156158 43.707586 
L 43.424031 42.459649 
L 43.691904 42.683189 
L 44.22765 44.128017 
L 44.495523 43.744174 
L 44.763396 44.316352 
L 45.031269 44.071078 
L 45.299142 44.176278 
L 45.567014 43.033493 
L 45.834887 42.668056 
L 46.370633 42.565323 
L 46.638506 42.988198 
L 46.906379 42.392727 
L 47.174252 40.858046 
L 47.442125 40.645939 
L 47.709998 40.943073 
L 47.977871 41.74689 
L 48.245744 40.508239 
L 48.513617 39.946631 
L 48.78149 40.230838 
L 49.049362 40.093685 
L 49.317235 40.172865 
L 49.585108 40.028807 
L 49.852981 40.234806 
L 50.120854 39.886111 
L 50.388727 42.529103 
L 50.6566 42.408592 
L 50.924473 41.817431 
L 51.192346 41.618499 
L 51.728092 41.615519 
L 51.995965 42.213232 
L 52.263838 43.162404 
L 52.53171 43.272188 
L 52.799583 43.805217 
L 53.067456 43.384208 
L 53.603202 43.751862 
L 53.871075 43.668451 
L 54.138948 42.820179 
L 54.942567 47.766873 
L 55.21044 47.603854 
L 55.478313 46.516479 
L 55.746186 48.005012 
L 56.014058 50.37674 
L 56.281931 50.435001 
L 56.549804 50.277977 
L 56.817677 49.449524 
L 57.08555 49.449164 
L 57.353423 50.0627 
L 57.621296 49.590912 
L 57.889169 47.449626 
L 58.157042 47.269642 
L 58.692788 48.773654 
L 58.960661 48.680579 
L 59.228533 48.404073 
L 59.496406 49.429924 
L 59.764279 49.854296 
L 60.032152 50.066748 
L 60.567898 50.868661 
L 60.835771 45.122333 
L 61.103644 44.930894 
L 61.371517 42.560898 
L 61.63939 43.568258 
L 61.907263 45.452082 
L 62.175136 44.811678 
L 62.443009 44.581164 
L 62.710881 45.655056 
L 62.978754 46.244581 
L 63.246627 47.436094 
L 63.782373 47.963383 
L 64.050246 48.523663 
L 64.318119 48.527035 
L 64.585992 48.188551 
L 65.121738 50.495223 
L 65.389611 49.28677 
L 65.657484 48.936531 
L 65.925357 49.721142 
L 66.193229 48.396989 
L 66.461102 49.237883 
L 66.728975 49.507298 
L 67.264721 50.834251 
L 67.532594 51.555511 
L 67.800467 51.492779 
L 68.06834 51.234022 
L 68.336213 51.976012 
L 68.604086 52.063815 
L 68.871959 51.511823 
L 69.407705 54.935217 
L 69.94345 55.474914 
L 70.479196 54.40343 
L 70.747069 54.758263 
L 71.014942 54.458903 
L 71.282815 55.941801 
L 71.550688 55.487894 
L 72.086434 57.135706 
L 72.354307 56.508697 
L 72.62218 56.215891 
L 72.890053 57.274064 
L 73.425798 58.372277 
L 73.693671 57.854408 
L 73.961544 58.285438 
L 74.229417 59.084767 
L 74.49729 59.056832 
L 75.300909 60.737443 
L 75.568782 60.437876 
L 76.104528 59.086917 
L 76.3724 59.585331 
L 76.908146 62.006217 
L 77.176019 61.539942 
L 77.979638 63.595291 
L 78.247511 63.548148 
L 78.515384 60.357234 
L 78.783257 61.648094 
L 79.05113 65.680618 
L 79.586876 68.319506 
L 79.854748 67.754347 
L 80.122621 66.35556 
L 80.658367 68.83038 
L 80.92624 67.74685 
L 81.461986 68.884875 
L 81.729859 68.916213 
L 81.997732 68.637553 
L 82.265605 70.530182 
L 82.533478 69.681558 
L 82.801351 66.687572 
L 83.069224 68.819695 
L 83.337096 69.75402 
L 83.604969 69.658685 
L 83.872842 67.223824 
L 84.140715 63.531195 
L 84.408588 64.327329 
L 84.676461 64.69132 
L 84.944334 62.096716 
L 85.48008 59.651366 
L 85.747953 61.173776 
L 86.015826 59.805654 
L 86.283699 61.516121 
L 86.551572 61.466771 
L 86.819444 59.844629 
L 87.087317 60.003576 
L 88.158809 58.783874 
L 88.426682 59.39295 
L 88.694555 58.383019 
L 88.962428 58.780272 
L 89.230301 58.640293 
L 89.498174 59.90002 
L 89.766047 60.390127 
L 90.03392 59.055677 
L 90.301792 56.816309 
L 90.569665 57.267159 
L 90.837538 55.452449 
L 91.105411 58.260094 
L 91.641157 58.828307 
L 91.90903 60.564725 
L 92.176903 61.02967 
L 92.712649 63.020816 
L 92.980522 63.904077 
L 93.248395 63.845106 
L 93.516268 64.337678 
L 93.78414 64.086063 
L 94.052013 64.445102 
L 94.319886 63.11245 
L 94.587759 65.85313 
L 95.123505 67.138661 
L 95.391378 68.737869 
L 95.659251 68.312744 
L 95.927124 68.455987 
L 96.194997 66.469387 
L 96.46287 67.600588 
L 96.730743 67.599371 
L 96.998615 68.506333 
L 97.266488 68.858632 
L 97.534361 68.973099 
L 97.802234 69.849668 
L 98.070107 69.278424 
L 98.605853 70.272343 
L 99.141599 68.934099 
L 99.677345 70.405968 
L 99.945218 72.122779 
L 100.213091 72.07559 
L 100.480963 72.685636 
L 100.748836 72.492973 
L 101.016709 72.631512 
L 101.284582 73.050895 
L 101.552455 67.963106 
L 102.088201 70.792555 
L 102.356074 70.82667 
L 102.623947 71.25871 
L 102.89182 71.188904 
L 103.159693 72.200804 
L 103.427566 72.448365 
L 103.963311 71.689286 
L 104.231184 71.70384 
L 104.499057 71.265756 
L 104.76693 71.155182 
L 105.302676 72.401002 
L 105.570549 72.642602 
L 106.106295 71.897673 
L 106.374168 71.981634 
L 106.642041 72.538259 
L 106.909914 72.498246 
L 107.177787 72.978006 
L 107.445659 71.860579 
L 107.713532 71.635299 
L 108.249278 70.914901 
L 108.517151 71.247604 
L 108.785024 71.214077 
L 109.052897 71.362596 
L 109.32077 72.032233 
L 109.588643 70.94126 
L 109.856516 70.854302 
L 110.124389 70.332533 
L 110.392262 71.426261 
L 110.660135 71.629514 
L 110.928007 72.532535 
L 111.19588 72.422269 
L 111.463753 73.198149 
L 111.731626 73.26058 
L 111.999499 74.925566 
L 112.267372 74.442745 
L 112.535245 74.352296 
L 112.803118 75.122749 
L 113.87461 72.972706 
L 114.142482 73.484258 
L 114.410355 74.427668 
L 114.678228 74.657527 
L 115.213974 74.710758 
L 115.481847 75.319882 
L 116.017593 74.320278 
L 116.285466 76.09652 
L 116.821212 76.810262 
L 117.089085 77.315434 
L 117.356958 78.239375 
L 117.62483 78.712456 
L 117.892703 81.287467 
L 118.160576 82.49802 
L 118.428449 81.728544 
L 118.696322 81.693636 
L 118.964195 79.169128 
L 119.232068 79.198913 
L 119.499941 77.617941 
L 119.767814 76.84911 
L 120.035687 76.653458 
L 120.30356 78.8831 
L 120.571433 82.402938 
L 120.839306 83.40903 
L 121.107178 81.124432 
L 121.375051 81.846037 
L 121.642924 80.32563 
L 121.910797 81.085837 
L 122.17867 80.569353 
L 122.446543 80.568017 
L 122.982289 80.012929 
L 123.250162 78.5572 
L 123.518035 78.512498 
L 123.785908 75.962545 
L 124.053781 76.747967 
L 124.321654 76.137018 
L 124.589526 77.487619 
L 124.857399 77.795826 
L 125.125272 77.047911 
L 125.393145 77.764527 
L 125.928891 75.03691 
L 126.196764 76.587907 
L 126.464637 76.059134 
L 127.268256 76.426348 
L 127.536129 75.514988 
L 128.071874 76.194128 
L 128.60762 75.004567 
L 128.875493 75.885329 
L 129.143366 75.980342 
L 129.411239 73.062194 
L 129.679112 71.606419 
L 129.946985 67.8799 
L 130.214858 67.84134 
L 130.482731 67.539631 
L 130.750604 65.96536 
L 131.018477 66.034392 
L 131.28635 64.499429 
L 131.822095 57.212231 
L 132.089968 57.336128 
L 132.357841 59.33151 
L 132.625714 59.390006 
L 132.893587 57.008276 
L 133.16146 59.849125 
L 133.429333 59.889586 
L 133.697206 58.12409 
L 133.965079 58.134645 
L 134.232952 57.199618 
L 134.500825 58.321069 
L 134.768697 58.370239 
L 135.03657 57.949243 
L 135.304443 56.852562 
L 135.572316 57.575406 
L 135.840189 57.828218 
L 136.108062 53.656577 
L 136.375935 53.306774 
L 136.643808 52.148295 
L 136.911681 52.41373 
L 137.179554 53.458197 
L 137.447427 49.850638 
L 137.7153 50.306792 
L 137.983173 49.93696 
L 138.251045 53.298638 
L 138.518918 55.184236 
L 138.786791 55.306239 
L 139.054664 56.995444 
L 139.322537 57.030808 
L 139.59041 58.316769 
L 139.858283 58.561726 
L 140.126156 59.060224 
L 140.394029 55.741766 
L 140.661902 56.784973 
L 140.929775 57.185543 
L 141.197648 51.524247 
L 141.733393 52.747286 
L 142.001266 52.023286 
L 142.269139 53.90565 
L 142.537012 53.027846 
L 142.804885 50.843609 
L 143.072758 50.666542 
L 143.608504 52.150005 
L 143.876377 52.120349 
L 144.14425 54.447735 
L 144.679996 53.815837 
L 144.947869 55.305111 
L 145.215741 55.52504 
L 145.483614 56.797541 
L 145.751487 56.585674 
L 146.01936 57.653951 
L 146.287233 57.782639 
L 146.555106 58.510429 
L 146.822979 59.567761 
L 147.090852 59.062406 
L 147.358725 57.565009 
L 147.626598 57.267824 
L 147.894471 58.609178 
L 148.430217 59.032546 
L 148.698089 60.102337 
L 148.965962 60.595802 
L 149.501708 61.098566 
L 149.769581 60.576023 
L 150.037454 61.494298 
L 150.305327 61.768991 
L 150.5732 61.548314 
L 150.841073 60.833871 
L 151.108946 60.467218 
L 151.376819 60.415124 
L 152.180437 63.532307 
L 152.44831 63.025853 
L 152.716183 63.154932 
L 152.984056 63.749695 
L 153.251929 63.19922 
L 153.519802 62.264371 
L 153.787675 62.687471 
L 154.055548 63.6562 
L 154.323421 61.008711 
L 154.591294 60.141007 
L 154.859167 59.925069 
L 155.12704 60.465246 
L 155.662785 60.804013 
L 155.930658 56.953628 
L 156.198531 57.513655 
L 156.466404 56.868601 
L 156.734277 57.098494 
L 157.00215 57.884036 
L 157.270023 54.532583 
L 157.537896 54.309542 
L 157.805769 54.287594 
L 158.073642 54.477492 
L 158.341515 53.289596 
L 158.609388 54.097886 
L 158.87726 52.690891 
L 159.413006 53.486002 
L 159.680879 52.288977 
L 159.948752 51.894568 
L 160.216625 52.321156 
L 160.484498 53.188629 
L 160.752371 53.642843 
L 161.020244 53.640549 
L 161.55599 56.412446 
L 161.823863 54.472243 
L 162.091736 54.681854 
L 162.359608 54.371075 
L 162.627481 55.027147 
L 162.895354 54.285736 
L 163.163227 52.731242 
L 163.4311 52.766364 
L 163.698973 54.953199 
L 163.966846 54.805414 
L 164.234719 55.305593 
L 164.502592 55.541606 
L 164.770465 56.098343 
L 165.038338 57.443675 
L 165.306211 56.001599 
L 165.574084 56.713776 
L 165.841956 57.924439 
L 166.377702 56.85481 
L 166.645575 55.482197 
L 166.913448 56.587967 
L 167.181321 54.957949 
L 167.717067 54.480566 
L 168.252813 55.97429 
L 168.520686 55.021726 
L 168.788559 56.91374 
L 169.056431 56.373679 
L 169.324304 52.771608 
L 169.592177 56.320906 
L 169.86005 53.276303 
L 170.127923 52.908717 
L 170.395796 51.369932 
L 170.931542 53.147741 
L 171.199415 53.012241 
L 171.735161 53.829228 
L 172.003034 53.715298 
L 172.270907 54.050027 
L 172.538779 53.881615 
L 172.806652 55.212947 
L 173.074525 55.123415 
L 173.342398 55.457797 
L 173.610271 54.887397 
L 174.146017 55.40575 
L 174.41389 55.240443 
L 174.681763 54.448232 
L 174.949636 51.966942 
L 175.485382 52.310201 
L 175.753255 52.257237 
L 176.021127 52.438663 
L 176.556873 52.606057 
L 176.824746 52.437616 
L 177.628365 54.068765 
L 177.896238 54.306791 
L 178.164111 54.749168 
L 178.431984 54.437101 
L 178.699857 54.889555 
L 179.235603 55.393707 
L 179.503475 56.158806 
L 179.771348 56.534308 
L 180.039221 55.9875 
L 180.307094 56.191001 
L 180.84284 57.202096 
L 181.646459 57.410699 
L 181.914332 57.127456 
L 182.182205 57.509145 
L 182.985823 56.513027 
L 183.253696 55.725151 
L 183.521569 55.815779 
L 183.789442 56.101765 
L 184.057315 57.0612 
L 184.325188 56.404332 
L 184.593061 56.599469 
L 184.860934 56.065608 
L 185.128807 56.297182 
L 185.128807 56.297182 
" clip-path="url(#pf24b3cef27)" style="fill: none; stroke: #7ceac5; stroke-width: 0.75; stroke-linecap: round"/>
   </g>
   <g id="line2d_24">
    <path d="M 22.529943 28.927668 
L 23.065689 31.183425 
L 23.333562 34.19675 
L 23.869308 36.115941 
L 24.137181 34.856198 
L 24.405054 34.306987 
L 24.672927 34.523468 
L 25.208672 33.909484 
L 25.476545 34.418178 
L 25.744418 33.766642 
L 26.012291 33.889714 
L 26.280164 35.247682 
L 26.548037 35.701637 
L 27.083783 38.836315 
L 27.351656 38.689924 
L 28.155275 33.662423 
L 28.69102 32.987218 
L 28.958893 33.618891 
L 29.226766 33.389264 
L 29.494639 33.344889 
L 30.030385 34.158921 
L 30.298258 34.857351 
L 30.566131 35.131609 
L 30.834004 35.720312 
L 31.101877 35.542031 
L 31.36975 36.479867 
L 31.637623 35.836206 
L 31.905495 35.665178 
L 32.173368 36.299178 
L 32.441241 37.398526 
L 32.709114 37.645576 
L 32.976987 36.44934 
L 33.24486 36.484131 
L 33.512733 36.864313 
L 33.780606 36.348239 
L 34.048479 36.721549 
L 34.316352 36.631564 
L 34.584225 36.735648 
L 34.852098 37.711399 
L 35.119971 38.193669 
L 35.387843 37.218444 
L 35.655716 37.136899 
L 35.923589 37.701903 
L 36.191462 37.244934 
L 36.727208 38.627774 
L 36.995081 38.416074 
L 37.262954 39.186436 
L 37.530827 38.46226 
L 37.7987 38.548876 
L 38.066573 38.403619 
L 38.334446 37.232502 
L 38.602319 37.520629 
L 38.870191 34.841975 
L 39.138064 35.378457 
L 39.405937 35.636201 
L 39.67381 35.104616 
L 39.941683 35.469791 
L 40.477429 35.443713 
L 40.745302 35.857822 
L 41.013175 37.149351 
L 41.281048 37.317692 
L 41.816794 38.299659 
L 42.084666 38.290214 
L 42.352539 38.16676 
L 42.620412 39.267732 
L 42.888285 38.876889 
L 43.156158 38.095934 
L 43.424031 38.240771 
L 43.959777 39.161463 
L 44.22765 38.92435 
L 44.495523 39.281648 
L 44.763396 39.130969 
L 45.031269 39.196046 
L 45.299142 38.491229 
L 45.567014 38.258546 
L 46.10276 38.192429 
L 46.370633 38.465265 
L 46.638506 38.085675 
L 46.906379 37.09087 
L 47.174252 36.9474 
L 47.442125 37.149591 
L 47.709998 37.691958 
L 47.977871 36.875226 
L 48.245744 36.49192 
L 48.513617 36.688983 
L 48.78149 36.59465 
L 49.049362 36.649321 
L 49.317235 36.550077 
L 49.585108 36.692572 
L 49.852981 36.452778 
L 50.120854 38.288294 
L 50.388727 38.210869 
L 50.6566 37.829766 
L 51.192346 37.689962 
L 51.460219 37.697411 
L 51.728092 38.091434 
L 51.995965 38.706548 
L 52.263838 38.775781 
L 52.53171 39.110876 
L 52.799583 38.850201 
L 53.335329 39.080063 
L 53.603202 39.028344 
L 53.871075 38.501138 
L 54.674694 41.508973 
L 54.942567 41.419114 
L 55.21044 40.816964 
L 55.478313 41.666658 
L 55.746186 42.9634 
L 56.281931 42.913162 
L 56.549804 42.489466 
L 56.817677 42.489278 
L 57.08555 42.810428 
L 57.353423 42.567767 
L 57.621296 41.451693 
L 57.889169 41.35219 
L 58.424915 42.17906 
L 58.960661 41.98197 
L 59.228533 42.533688 
L 60.032152 43.123399 
L 60.300025 43.273931 
L 60.567898 40.393824 
L 60.835771 40.282251 
L 61.103644 38.893488 
L 61.371517 39.523418 
L 61.63939 40.6678 
L 61.907263 40.299534 
L 62.175136 40.164571 
L 62.443009 40.797427 
L 62.710881 41.13427 
L 62.978754 41.803704 
L 63.5145 42.08889 
L 63.782373 42.38852 
L 64.050246 42.390295 
L 64.318119 42.212169 
L 64.853865 43.418559 
L 65.121738 42.817825 
L 65.389611 42.637755 
L 65.657484 43.045152 
L 65.925357 42.372892 
L 66.193229 42.815824 
L 66.461102 42.954354 
L 67.264721 43.979494 
L 67.800467 43.824566 
L 68.06834 44.184881 
L 68.336213 44.226623 
L 68.604086 43.96486 
L 69.139832 45.57439 
L 69.675577 45.808891 
L 70.211323 45.345346 
L 70.479196 45.502365 
L 70.747069 45.371225 
L 71.014942 46.026342 
L 71.282815 45.83424 
L 71.818561 46.532675 
L 72.354307 46.154461 
L 72.890053 46.841405 
L 73.157925 47.04199 
L 73.425798 46.837721 
L 73.693671 47.010232 
L 73.961544 47.32624 
L 74.229417 47.315446 
L 75.033036 47.955102 
L 75.300909 47.844691 
L 75.836655 47.337898 
L 76.104528 47.530314 
L 76.640273 48.436583 
L 76.908146 48.27109 
L 77.711765 48.996016 
L 77.979638 48.980031 
L 78.247511 47.896629 
L 78.515384 48.374538 
L 78.783257 49.812873 
L 79.319003 50.631133 
L 79.586876 50.465686 
L 79.854748 50.049643 
L 80.390494 50.801583 
L 80.658367 50.48962 
L 81.194113 50.824631 
L 81.729859 50.753656 
L 81.997732 51.30114 
L 82.265605 51.068822 
L 82.533478 50.229483 
L 82.801351 50.877913 
L 83.069224 51.144897 
L 83.337096 51.118376 
L 83.604969 50.439202 
L 83.872842 49.338128 
L 84.408588 49.717546 
L 84.676461 48.890828 
L 85.212207 48.039907 
L 85.48008 48.597361 
L 85.747953 48.118012 
L 86.015826 48.74054 
L 86.283699 48.723449 
L 86.551572 48.160895 
L 86.819444 48.218551 
L 87.890936 47.772433 
L 88.158809 48.000072 
L 88.426682 47.62913 
L 88.694555 47.779214 
L 88.962428 47.726925 
L 89.230301 48.199365 
L 89.498174 48.376611 
L 89.766047 47.900713 
L 90.03392 47.071902 
L 90.301792 47.249353 
L 90.569665 46.544219 
L 90.837538 47.691269 
L 91.373284 47.90409 
L 91.641157 48.546588 
L 91.90903 48.71016 
L 92.444776 49.392277 
L 92.712649 49.681851 
L 92.980522 49.663002 
L 93.248395 49.820711 
L 93.516268 49.741275 
L 93.78414 49.855434 
L 94.052013 49.436018 
L 94.319886 50.331143 
L 94.855632 50.714879 
L 95.123505 51.179242 
L 95.391378 51.061392 
L 95.659251 51.101579 
L 95.927124 50.546496 
L 96.194997 50.88036 
L 96.46287 50.880013 
L 96.730743 51.139124 
L 97.534361 51.509504 
L 97.802234 51.356493 
L 98.33798 51.625177 
L 98.873726 51.267794 
L 99.409472 51.66796 
L 99.677345 52.120109 
L 99.945218 52.108285 
L 100.213091 52.261339 
L 100.748836 52.248181 
L 101.016709 52.351737 
L 101.284582 51.110365 
L 101.820328 51.885046 
L 102.623947 51.987122 
L 102.89182 52.244471 
L 103.159693 52.305625 
L 103.695439 52.118518 
L 103.963311 52.122165 
L 104.499057 51.984385 
L 105.302676 52.35784 
L 106.106295 52.196193 
L 106.374168 52.334458 
L 106.642041 52.324675 
L 106.909914 52.4421 
L 107.177787 52.172319 
L 108.249278 52.01983 
L 108.785024 52.049004 
L 109.052897 52.218134 
L 109.32077 51.947816 
L 109.856516 51.791998 
L 110.124389 52.076204 
L 110.392262 52.127382 
L 110.660135 52.353451 
L 110.928007 52.326553 
L 111.19588 52.516414 
L 111.463753 52.531355 
L 111.731626 52.929122 
L 112.267372 52.798347 
L 112.535245 52.97658 
L 113.606737 52.479723 
L 114.678228 52.896842 
L 114.946101 52.891354 
L 115.213974 53.030661 
L 115.74972 52.804414 
L 116.017593 53.215017 
L 116.821212 53.479596 
L 117.356958 53.773184 
L 117.62483 54.29775 
L 117.892703 54.526364 
L 118.160576 54.386033 
L 118.428449 54.379527 
L 118.696322 53.908622 
L 118.964195 53.914576 
L 119.499941 53.438423 
L 119.767814 53.39671 
L 120.035687 53.874704 
L 120.30356 54.58162 
L 120.571433 54.763529 
L 120.839306 54.362232 
L 121.107178 54.497189 
L 121.375051 54.218652 
L 121.642924 54.363921 
L 122.17867 54.267097 
L 122.714416 54.161387 
L 122.982289 53.880847 
L 123.250162 53.871877 
L 123.518035 53.359546 
L 123.785908 53.528753 
L 124.053781 53.400063 
L 124.321654 53.689478 
L 124.589526 53.752996 
L 124.857399 53.600207 
L 125.125272 53.749704 
L 125.661018 53.181533 
L 125.928891 53.523495 
L 126.196764 53.412035 
L 127.000383 53.490361 
L 127.268256 53.297401 
L 127.804002 53.444205 
L 128.339747 53.188728 
L 128.60762 53.382737 
L 128.875493 53.403144 
L 129.143366 52.778079 
L 129.411239 52.44047 
L 129.679112 51.540604 
L 130.214858 51.449673 
L 130.482731 51.025328 
L 130.750604 51.044766 
L 131.018477 50.613405 
L 131.554222 48.366616 
L 131.822095 48.410836 
L 132.089968 49.120504 
L 132.357841 49.140132 
L 132.625714 48.342274 
L 132.893587 49.358156 
L 133.16146 49.37146 
L 133.429333 48.791607 
L 133.697206 48.795247 
L 133.965079 48.472885 
L 134.232952 48.869763 
L 134.500825 48.886611 
L 134.768697 48.742557 
L 135.03657 48.362825 
L 135.304443 48.620891 
L 135.572316 48.7093 
L 135.840189 47.260914 
L 136.108062 47.125108 
L 136.375935 46.670884 
L 136.643808 46.778374 
L 136.911681 47.198156 
L 137.179554 45.79115 
L 137.447427 45.987243 
L 137.7153 45.830313 
L 137.983173 47.271712 
L 138.251045 48.003196 
L 138.518918 48.047996 
L 138.786791 48.666137 
L 139.054664 48.678459 
L 139.322537 49.126066 
L 139.858283 49.374252 
L 140.126156 48.284614 
L 140.394029 48.659366 
L 140.661902 48.79901 
L 140.929775 46.847809 
L 141.465521 47.332741 
L 141.733393 47.05313 
L 142.001266 47.795017 
L 142.269139 47.467505 
L 142.537012 46.632288 
L 142.804885 46.560389 
L 143.340631 47.159445 
L 143.608504 47.147846 
L 143.876377 48.058882 
L 144.412123 47.826912 
L 144.679996 48.381221 
L 144.947869 48.459624 
L 145.215741 48.910436 
L 145.483614 48.838084 
L 145.751487 49.20509 
L 146.01936 49.247962 
L 146.555106 49.83327 
L 146.822979 49.673906 
L 147.090852 49.194939 
L 147.358725 49.095846 
L 147.626598 49.54687 
L 148.162344 49.683409 
L 148.430217 50.025311 
L 148.965962 50.251394 
L 149.233835 50.331327 
L 149.501708 50.173917 
L 149.769581 50.454632 
L 150.037454 50.536421 
L 150.305327 50.471227 
L 150.841073 50.147638 
L 151.108946 50.131674 
L 151.912564 51.060451 
L 152.180437 50.918351 
L 152.44831 50.955087 
L 152.716183 51.123741 
L 153.251929 50.705589 
L 153.519802 50.828556 
L 153.787675 51.106726 
L 154.055548 50.367368 
L 154.323421 50.106868 
L 154.591294 50.040446 
L 155.12704 50.278742 
L 155.394912 50.310645 
L 155.662785 49.148505 
L 155.930658 49.335976 
L 156.198531 49.123468 
L 156.466404 49.200589 
L 156.734277 49.462392 
L 157.00215 48.37029 
L 157.537896 48.282827 
L 157.805769 48.351054 
L 158.073642 47.926561 
L 158.341515 48.225124 
L 158.609388 47.717316 
L 159.145133 48.014086 
L 159.413006 47.574901 
L 159.680879 47.425285 
L 159.948752 47.588916 
L 160.484498 48.085531 
L 160.752371 48.084694 
L 161.288117 49.076878 
L 161.55599 48.42345 
L 161.823863 48.497925 
L 162.091736 48.388161 
L 162.359608 48.621918 
L 162.627481 48.362666 
L 162.895354 47.807681 
L 163.163227 47.820772 
L 163.4311 48.635094 
L 163.698973 48.583472 
L 164.502592 49.031756 
L 164.770465 49.486561 
L 165.038338 49.017634 
L 165.306211 49.258679 
L 165.574084 49.660173 
L 166.109829 49.315179 
L 166.377702 48.862175 
L 166.645575 49.241306 
L 166.913448 48.699938 
L 167.449194 48.533505 
L 167.98494 49.054295 
L 168.252813 48.732878 
L 168.520686 49.388518 
L 168.788559 49.211403 
L 169.056431 48.012017 
L 169.324304 49.314452 
L 169.592177 48.309577 
L 169.86005 48.177788 
L 170.127923 47.62035 
L 170.663669 48.284022 
L 170.931542 48.235343 
L 171.467288 48.528403 
L 171.735161 48.488263 
L 172.003034 48.606576 
L 172.270907 48.547614 
L 172.538779 49.015949 
L 172.806652 48.985642 
L 173.074525 49.09912 
L 173.342398 48.907379 
L 173.878144 49.083855 
L 174.146017 49.028215 
L 174.41389 48.76032 
L 174.681763 47.902408 
L 175.485382 48.009722 
L 176.289 48.137379 
L 176.556873 48.076167 
L 177.360492 48.662652 
L 177.896238 48.898747 
L 178.164111 48.792073 
L 178.699857 49.018856 
L 178.96773 49.119138 
L 179.503475 49.499175 
L 179.771348 49.321563 
L 180.307094 49.56944 
L 180.574967 49.717918 
L 182.182205 49.693865 
L 182.717951 49.498893 
L 182.985823 49.24297 
L 183.521569 49.367791 
L 183.789442 49.683004 
L 184.057315 49.473063 
L 184.325188 49.536592 
L 184.593061 49.36375 
L 184.860934 49.439858 
L 184.860934 49.439858 
" clip-path="url(#pf24b3cef27)" style="fill: none; stroke: #f8d120; stroke-width: 0.75; stroke-linecap: round"/>
   </g>
   <g id="patch_3">
    <path d="M 193.25875 94.218437 
L 193.25875 25.398438 
" style="fill: none; stroke: #808080; stroke-width: 1.25; stroke-linejoin: miter; stroke-linecap: square"/>
   </g>
   <g id="patch_4">
    <path d="M 14.4 94.218437 
L 193.25875 94.218437 
" style="fill: none; stroke: #808080; stroke-width: 1.25; stroke-linejoin: miter; stroke-linecap: square"/>
   </g>
   <g id="line2d_25">
    <path d="M 22.529943 28.927668 
L 22.797816 31.814386 
L 23.333562 33.60055 
L 23.601435 36.812476 
L 23.869308 37.42773 
L 24.137181 38.499874 
L 24.672927 37.067587 
L 24.940799 37.025544 
L 25.476545 36.344323 
L 25.744418 36.657417 
L 26.012291 36.288465 
L 26.280164 36.256056 
L 26.548037 37.656037 
L 26.81591 37.735812 
L 27.083783 40.09678 
L 27.351656 41.43479 
L 28.155275 40.045305 
L 28.958893 38.584381 
L 29.226766 38.942403 
L 29.762512 38.362696 
L 30.030385 38.472537 
L 30.298258 38.722086 
L 30.566131 39.272184 
L 30.834004 39.412338 
L 31.101877 39.834917 
L 31.36975 39.620351 
L 31.637623 40.506039 
L 31.905495 39.978791 
L 32.173368 39.781803 
L 32.441241 40.276061 
L 32.709114 41.41507 
L 32.976987 41.563943 
L 33.24486 41.182276 
L 33.512733 41.154254 
L 33.780606 41.42668 
L 34.048479 41.108432 
L 34.316352 41.382287 
L 34.852098 41.271318 
L 35.119971 42.274284 
L 35.387843 42.571713 
L 35.923589 41.767763 
L 36.191462 42.209938 
L 36.459335 41.815636 
L 36.995081 43.120952 
L 37.262954 42.832281 
L 37.530827 43.622014 
L 37.7987 43.167197 
L 38.066573 43.177786 
L 38.334446 42.998108 
L 38.602319 42.550246 
L 38.870191 42.671735 
L 39.138064 42.294315 
L 39.67381 42.522381 
L 39.941683 42.15136 
L 40.209556 42.402988 
L 40.745302 42.24685 
L 41.013175 42.517609 
L 41.281048 43.966258 
L 41.548921 43.966883 
L 42.084666 44.650568 
L 42.352539 44.570893 
L 42.620412 44.324962 
L 42.888285 45.588735 
L 43.424031 44.713327 
L 43.691904 44.70547 
L 44.22765 45.377468 
L 44.495523 45.03972 
L 44.763396 45.266721 
L 45.031269 44.963158 
L 45.299142 44.902765 
L 45.834887 44.205894 
L 46.370633 43.906165 
L 46.638506 44.07087 
L 47.442125 43.105231 
L 47.709998 43.107434 
L 47.977871 43.552338 
L 48.513617 42.702424 
L 48.78149 42.774057 
L 49.049362 42.607323 
L 49.317235 42.590434 
L 49.585108 42.40271 
L 49.852981 42.456054 
L 50.120854 42.185799 
L 50.388727 44.396902 
L 50.924473 43.634154 
L 51.460219 43.343148 
L 51.728092 43.257226 
L 51.995965 43.578755 
L 52.263838 44.12515 
L 52.53171 44.085717 
L 52.799583 44.259834 
L 53.067456 44.030696 
L 53.603202 44.111404 
L 53.871075 43.926549 
L 54.138948 43.445975 
L 54.406821 44.760953 
L 54.674694 45.443639 
L 54.942567 47.087654 
L 55.21044 46.911321 
L 55.478313 46.336758 
L 55.746186 47.267904 
L 56.014058 48.776981 
L 57.08555 46.651418 
L 57.353423 46.795673 
L 58.157042 45.680154 
L 58.424915 45.889193 
L 58.692788 46.305659 
L 58.960661 46.218747 
L 59.228533 45.968446 
L 59.496406 46.464339 
L 60.567898 46.587143 
L 61.371517 44.459601 
L 61.63939 44.676199 
L 61.907263 46.118207 
L 62.443009 45.420075 
L 62.710881 45.995946 
L 62.978754 46.218637 
L 63.246627 46.878724 
L 63.782373 46.676507 
L 64.050246 46.878348 
L 64.318119 46.737629 
L 64.585992 46.467334 
L 64.853865 47.410562 
L 65.121738 47.869953 
L 65.657484 46.90724 
L 65.925357 47.211294 
L 66.193229 46.402941 
L 66.461102 46.837602 
L 66.728975 46.866164 
L 67.532594 47.640318 
L 67.800467 47.533291 
L 68.06834 47.246255 
L 68.336213 47.621056 
L 68.604086 47.48938 
L 68.871959 46.972147 
L 69.139832 47.888976 
L 69.407705 49.323978 
L 69.94345 49.376406 
L 70.211323 49.083119 
L 70.479196 48.60547 
L 70.747069 48.52746 
L 71.014942 48.148768 
L 71.282815 49.157321 
L 71.550688 48.70014 
L 72.086434 49.453146 
L 72.62218 48.565639 
L 73.157925 49.160815 
L 73.425798 49.267281 
L 73.693671 48.957419 
L 73.961544 49.062124 
L 74.229417 49.466208 
L 74.49729 49.160322 
L 75.033036 49.57662 
L 75.300909 49.70937 
L 75.836655 48.957397 
L 76.104528 48.515178 
L 76.3724 48.71571 
L 76.640273 49.805541 
L 76.908146 50.368417 
L 77.176019 49.954812 
L 77.711765 50.534407 
L 77.979638 50.812255 
L 78.515384 49.996039 
L 78.783257 50.682852 
L 79.05113 53.977831 
L 79.586876 55.479315 
L 80.122621 54.288788 
L 80.658367 55.83565 
L 80.92624 55.203039 
L 81.461986 55.491958 
L 81.997732 54.371104 
L 82.265605 55.795661 
L 82.801351 54.989766 
L 83.069224 56.751165 
L 83.337096 57.281873 
L 83.604969 57.107567 
L 84.140715 56.088452 
L 84.676461 56.255663 
L 85.212207 55.228273 
L 85.48008 54.322666 
L 85.747953 55.235717 
L 86.015826 54.68682 
L 86.283699 55.752922 
L 86.551572 55.669661 
L 86.819444 55.216716 
L 87.35519 54.728422 
L 87.890936 53.876204 
L 88.158809 53.553307 
L 88.426682 53.842267 
L 88.694555 53.354441 
L 89.230301 53.005984 
L 89.498174 53.883587 
L 89.766047 54.065019 
L 90.301792 53.100251 
L 90.569665 53.109792 
L 90.837538 52.650237 
L 91.105411 55.003966 
L 91.641157 54.931767 
L 91.90903 55.917547 
L 92.176903 55.909622 
L 92.712649 56.91209 
L 92.980522 57.393044 
L 93.248395 57.148998 
L 93.516268 57.303004 
L 93.78414 57.014087 
L 94.052013 57.130869 
L 94.319886 56.688937 
L 94.587759 58.941896 
L 95.123505 59.29464 
L 95.391378 60.354936 
L 95.659251 60.044318 
L 95.927124 59.98225 
L 96.194997 59.498354 
L 96.46287 60.07126 
L 96.730743 59.871777 
L 96.998615 60.384591 
L 97.534361 60.377507 
L 97.802234 60.8947 
L 98.070107 60.579072 
L 98.33798 60.819013 
L 98.605853 60.708844 
L 99.141599 60.027092 
L 99.677345 60.688037 
L 99.945218 61.988875 
L 100.213091 61.854173 
L 100.480963 61.980856 
L 100.748836 61.6134 
L 101.016709 61.488486 
L 101.284582 61.638832 
L 101.552455 61.252988 
L 101.820328 62.502083 
L 102.088201 62.72688 
L 102.356074 62.607216 
L 102.623947 62.702106 
L 102.89182 62.543443 
L 103.159693 63.147915 
L 103.427566 63.100634 
L 103.963311 62.500782 
L 104.499057 61.991404 
L 104.76693 61.737179 
L 105.302676 62.313572 
L 105.570549 62.297738 
L 106.374168 61.462296 
L 106.642041 61.494195 
L 106.909914 61.32007 
L 107.177787 61.432806 
L 107.445659 60.965303 
L 107.713532 60.740597 
L 108.249278 59.898059 
L 108.517151 60.00938 
L 109.052897 59.723408 
L 109.32077 59.917179 
L 109.856516 59.128764 
L 110.124389 58.767693 
L 110.392262 59.355122 
L 110.660135 59.27864 
L 110.928007 59.614641 
L 111.19588 59.437186 
L 111.463753 59.643428 
L 111.731626 59.474197 
L 111.999499 60.68241 
L 112.267372 60.308182 
L 112.535245 60.209593 
L 112.803118 60.569807 
L 113.87461 59.151317 
L 114.142482 59.410521 
L 114.410355 59.99817 
L 114.946101 60.040327 
L 115.213974 59.876354 
L 115.481847 59.947462 
L 116.017593 59.293011 
L 116.285466 60.709756 
L 116.821212 60.887012 
L 117.089085 61.09829 
L 117.356958 61.584923 
L 117.62483 61.362598 
L 117.892703 61.58807 
L 118.160576 62.073036 
L 118.964195 61.013814 
L 119.499941 60.238076 
L 120.035687 58.793897 
L 120.30356 60.384425 
L 120.571433 63.543337 
L 120.839306 63.38004 
L 121.107178 62.894394 
L 121.375051 63.045373 
L 121.642924 62.536023 
L 121.910797 62.300162 
L 122.446543 61.573185 
L 123.250162 60.355559 
L 123.518035 60.175546 
L 123.785908 59.694057 
L 124.053781 59.793648 
L 124.321654 59.310981 
L 124.589526 60.078989 
L 125.125272 59.063044 
L 125.393145 59.417894 
L 125.928891 58.208471 
L 126.196764 59.217609 
L 126.464637 58.85067 
L 127.268256 58.653142 
L 127.536129 58.200849 
L 127.804002 58.067164 
L 128.071874 58.220043 
L 128.60762 57.447865 
L 128.875493 57.744518 
L 129.143366 57.221818 
L 129.679112 55.521544 
L 130.482731 53.627777 
L 131.018477 51.740706 
L 131.28635 50.444138 
L 132.089968 49.14824 
L 132.357841 50.713029 
L 132.625714 50.40103 
L 132.893587 49.917574 
L 133.16146 52.326861 
L 134.232952 50.191077 
L 134.500825 50.74142 
L 134.768697 50.537921 
L 135.304443 49.514813 
L 135.572316 49.759109 
L 135.840189 49.549016 
L 136.375935 48.451359 
L 136.643808 47.614936 
L 136.911681 47.460685 
L 137.179554 47.648448 
L 137.447427 47.124928 
L 137.983173 45.543085 
L 138.251045 48.449087 
L 138.518918 49.706387 
L 138.786791 49.267733 
L 139.054664 50.265916 
L 139.322537 49.75049 
L 139.59041 50.528486 
L 139.858283 50.257871 
L 140.126156 50.343241 
L 140.394029 49.696887 
L 140.661902 49.842787 
L 140.929775 49.858751 
L 141.465521 48.997149 
L 141.733393 48.947929 
L 142.001266 48.177188 
L 142.269139 49.679574 
L 142.537012 48.574564 
L 143.072758 47.287552 
L 143.340631 47.391485 
L 143.608504 47.671402 
L 143.876377 47.587487 
L 144.14425 49.280393 
L 144.679996 48.412467 
L 144.947869 48.960973 
L 145.215741 48.832597 
L 145.483614 49.609686 
L 145.751487 49.24198 
L 146.01936 49.766477 
L 146.287233 49.416834 
L 146.555106 49.565469 
L 146.822979 49.924177 
L 147.626598 48.305516 
L 147.894471 49.195083 
L 148.162344 49.068773 
L 148.430217 49.093612 
L 148.698089 49.650242 
L 149.501708 49.639032 
L 149.769581 49.321887 
L 150.037454 49.771527 
L 150.305327 49.74619 
L 151.376819 48.665071 
L 152.180437 50.434901 
L 152.716183 49.874371 
L 152.984056 49.981402 
L 153.519802 49.018081 
L 153.787675 48.970294 
L 154.055548 49.413846 
L 154.859167 48.351611 
L 155.394912 48.19422 
L 155.662785 47.911955 
L 155.930658 47.382172 
L 156.198531 47.170759 
L 156.466404 46.604556 
L 156.734277 46.5496 
L 157.00215 46.840775 
L 157.805769 44.942181 
L 158.073642 44.744944 
L 158.341515 44.037224 
L 158.609388 44.190183 
L 158.87726 43.600707 
L 159.145133 43.440583 
L 159.413006 43.526553 
L 159.948752 42.434346 
L 160.216625 42.482507 
L 160.484498 42.97293 
L 160.752371 43.098345 
L 161.020244 42.786581 
L 161.288117 43.48929 
L 161.55599 44.736322 
L 161.823863 44.345787 
L 162.359608 43.93818 
L 162.627481 44.282365 
L 163.4311 43.1999 
L 163.698973 45.009417 
L 163.966846 44.826658 
L 164.234719 45.074103 
L 164.502592 45.113365 
L 164.770465 45.394623 
L 165.038338 45.894607 
L 165.306211 45.373898 
L 165.574084 45.517103 
L 165.841956 46.165752 
L 166.645575 44.759814 
L 166.913448 45.383714 
L 167.449194 44.452636 
L 167.717067 43.978289 
L 167.98494 44.374186 
L 168.252813 44.22379 
L 168.520686 43.340493 
L 168.788559 43.957179 
L 169.056431 42.611191 
L 169.324304 41.844259 
L 169.592177 44.920131 
L 170.127923 43.761541 
L 170.395796 42.98509 
L 170.663669 43.205676 
L 170.931542 43.714826 
L 171.199415 43.455252 
L 171.735161 43.640924 
L 172.003034 43.273861 
L 172.270907 43.203201 
L 172.538779 43.003433 
L 172.806652 43.956368 
L 173.074525 43.738867 
L 173.342398 43.810721 
L 173.610271 43.495639 
L 174.146017 43.569301 
L 175.217509 42.023299 
L 175.485382 41.998461 
L 175.753255 41.83483 
L 176.556873 41.683532 
L 176.824746 41.459296 
L 177.628365 42.278549 
L 177.896238 42.263583 
L 178.164111 42.419894 
L 178.431984 42.198136 
L 179.235603 42.515318 
L 179.503475 42.876538 
L 179.771348 43.00893 
L 180.039221 42.723541 
L 180.307094 42.73227 
L 180.84284 43.281293 
L 181.646459 43.190238 
L 181.914332 42.952474 
L 182.182205 43.104116 
L 182.985823 42.459594 
L 183.253696 42.000425 
L 183.521569 41.940696 
L 183.789442 42.049622 
L 184.057315 42.650872 
L 184.325188 42.343567 
L 184.593061 42.400179 
L 184.860934 42.122659 
L 185.128807 42.097397 
L 185.128807 42.097397 
" clip-path="url(#pf24b3cef27)" style="fill: none; stroke: #ffffff; stroke-width: 1.5; stroke-linecap: round"/>
   </g>
   <g id="line2d_26">
    <path d="M 22.529943 28.927668 
L 22.797816 31.814386 
L 23.333562 33.60055 
L 23.601435 36.812476 
L 23.869308 37.42773 
L 24.137181 38.499874 
L 24.672927 37.067587 
L 24.940799 37.025544 
L 25.476545 36.344323 
L 25.744418 36.657417 
L 26.012291 36.288465 
L 26.280164 36.256056 
L 26.548037 37.656037 
L 26.81591 37.735812 
L 27.083783 40.09678 
L 27.351656 41.43479 
L 28.155275 40.045305 
L 28.958893 38.584381 
L 29.226766 38.942403 
L 29.762512 38.362696 
L 30.030385 38.472537 
L 30.298258 38.722086 
L 30.566131 39.272184 
L 30.834004 39.412338 
L 31.101877 39.834917 
L 31.36975 39.620351 
L 31.637623 40.506039 
L 31.905495 39.978791 
L 32.173368 39.781803 
L 32.441241 40.276061 
L 32.709114 41.41507 
L 32.976987 41.563943 
L 33.24486 41.182276 
L 33.512733 41.154254 
L 33.780606 41.42668 
L 34.048479 41.108432 
L 34.316352 41.382287 
L 34.852098 41.271318 
L 35.119971 42.274284 
L 35.387843 42.571713 
L 35.923589 41.767763 
L 36.191462 42.209938 
L 36.459335 41.815636 
L 36.995081 43.120952 
L 37.262954 42.832281 
L 37.530827 43.622014 
L 37.7987 43.167197 
L 38.066573 43.177786 
L 38.334446 42.998108 
L 38.602319 42.550246 
L 38.870191 42.671735 
L 39.138064 42.294315 
L 39.67381 42.522381 
L 39.941683 42.15136 
L 40.209556 42.402988 
L 40.745302 42.24685 
L 41.013175 42.517609 
L 41.281048 43.966258 
L 41.548921 43.966883 
L 42.084666 44.650568 
L 42.352539 44.570893 
L 42.620412 44.324962 
L 42.888285 45.588735 
L 43.424031 44.713327 
L 43.691904 44.70547 
L 44.22765 45.377468 
L 44.495523 45.03972 
L 44.763396 45.266721 
L 45.031269 44.963158 
L 45.299142 44.902765 
L 45.834887 44.205894 
L 46.370633 43.906165 
L 46.638506 44.07087 
L 47.442125 43.105231 
L 47.709998 43.107434 
L 47.977871 43.552338 
L 48.513617 42.702424 
L 48.78149 42.774057 
L 49.049362 42.607323 
L 49.317235 42.590434 
L 49.585108 42.40271 
L 49.852981 42.456054 
L 50.120854 42.185799 
L 50.388727 44.396902 
L 50.924473 43.634154 
L 51.460219 43.343148 
L 51.728092 43.257226 
L 51.995965 43.578755 
L 52.263838 44.12515 
L 52.53171 44.085717 
L 52.799583 44.259834 
L 53.067456 44.030696 
L 53.603202 44.111404 
L 53.871075 43.926549 
L 54.138948 43.445975 
L 54.406821 44.760953 
L 54.674694 45.443639 
L 54.942567 47.087654 
L 55.21044 46.911321 
L 55.478313 46.336758 
L 55.746186 47.267904 
L 56.014058 48.776981 
L 57.08555 46.651418 
L 57.353423 46.795673 
L 58.157042 45.680154 
L 58.424915 45.889193 
L 58.692788 46.305659 
L 58.960661 46.218747 
L 59.228533 45.968446 
L 59.496406 46.464339 
L 60.567898 46.587143 
L 61.371517 44.459601 
L 61.63939 44.676199 
L 61.907263 46.118207 
L 62.443009 45.420075 
L 62.710881 45.995946 
L 62.978754 46.218637 
L 63.246627 46.878724 
L 63.782373 46.676507 
L 64.050246 46.878348 
L 64.318119 46.737629 
L 64.585992 46.467334 
L 64.853865 47.410562 
L 65.121738 47.869953 
L 65.657484 46.90724 
L 65.925357 47.211294 
L 66.193229 46.402941 
L 66.461102 46.837602 
L 66.728975 46.866164 
L 67.532594 47.640318 
L 67.800467 47.533291 
L 68.06834 47.246255 
L 68.336213 47.621056 
L 68.604086 47.48938 
L 68.871959 46.972147 
L 69.139832 47.888976 
L 69.407705 49.323978 
L 69.94345 49.376406 
L 70.211323 49.083119 
L 70.479196 48.60547 
L 70.747069 48.52746 
L 71.014942 48.148768 
L 71.282815 49.157321 
L 71.550688 48.70014 
L 72.086434 49.453146 
L 72.62218 48.565639 
L 73.157925 49.160815 
L 73.425798 49.267281 
L 73.693671 48.957419 
L 73.961544 49.062124 
L 74.229417 49.466208 
L 74.49729 49.160322 
L 75.033036 49.57662 
L 75.300909 49.70937 
L 75.836655 48.957397 
L 76.104528 48.515178 
L 76.3724 48.71571 
L 76.640273 49.805541 
L 76.908146 50.368417 
L 77.176019 49.954812 
L 77.711765 50.534407 
L 77.979638 50.812255 
L 78.515384 49.996039 
L 78.783257 50.682852 
L 79.05113 53.977831 
L 79.586876 55.479315 
L 80.122621 54.288788 
L 80.658367 55.83565 
L 80.92624 55.203039 
L 81.461986 55.491958 
L 81.997732 54.371104 
L 82.265605 55.795661 
L 82.801351 54.989766 
L 83.069224 56.751165 
L 83.337096 57.281873 
L 83.604969 57.107567 
L 84.140715 56.088452 
L 84.676461 56.255663 
L 85.212207 55.228273 
L 85.48008 54.322666 
L 85.747953 55.235717 
L 86.015826 54.68682 
L 86.283699 55.752922 
L 86.551572 55.669661 
L 86.819444 55.216716 
L 87.35519 54.728422 
L 87.890936 53.876204 
L 88.158809 53.553307 
L 88.426682 53.842267 
L 88.694555 53.354441 
L 89.230301 53.005984 
L 89.498174 53.883587 
L 89.766047 54.065019 
L 90.301792 53.100251 
L 90.569665 53.109792 
L 90.837538 52.650237 
L 91.105411 55.003966 
L 91.641157 54.931767 
L 91.90903 55.917547 
L 92.176903 55.909622 
L 92.712649 56.91209 
L 92.980522 57.393044 
L 93.248395 57.148998 
L 93.516268 57.303004 
L 93.78414 57.014087 
L 94.052013 57.130869 
L 94.319886 56.688937 
L 94.587759 58.941896 
L 95.123505 59.29464 
L 95.391378 60.354936 
L 95.659251 60.044318 
L 95.927124 59.98225 
L 96.194997 59.498354 
L 96.46287 60.07126 
L 96.730743 59.871777 
L 96.998615 60.384591 
L 97.534361 60.377507 
L 97.802234 60.8947 
L 98.070107 60.579072 
L 98.33798 60.819013 
L 98.605853 60.708844 
L 99.141599 60.027092 
L 99.677345 60.688037 
L 99.945218 61.988875 
L 100.213091 61.854173 
L 100.480963 61.980856 
L 100.748836 61.6134 
L 101.016709 61.488486 
L 101.284582 61.638832 
L 101.552455 61.252988 
L 101.820328 62.502083 
L 102.088201 62.72688 
L 102.356074 62.607216 
L 102.623947 62.702106 
L 102.89182 62.543443 
L 103.159693 63.147915 
L 103.427566 63.100634 
L 103.963311 62.500782 
L 104.499057 61.991404 
L 104.76693 61.737179 
L 105.302676 62.313572 
L 105.570549 62.297738 
L 106.374168 61.462296 
L 106.642041 61.494195 
L 106.909914 61.32007 
L 107.177787 61.432806 
L 107.445659 60.965303 
L 107.713532 60.740597 
L 108.249278 59.898059 
L 108.517151 60.00938 
L 109.052897 59.723408 
L 109.32077 59.917179 
L 109.856516 59.128764 
L 110.124389 58.767693 
L 110.392262 59.355122 
L 110.660135 59.27864 
L 110.928007 59.614641 
L 111.19588 59.437186 
L 111.463753 59.643428 
L 111.731626 59.474197 
L 111.999499 60.68241 
L 112.267372 60.308182 
L 112.535245 60.209593 
L 112.803118 60.569807 
L 113.87461 59.151317 
L 114.142482 59.410521 
L 114.410355 59.99817 
L 114.946101 60.040327 
L 115.213974 59.876354 
L 115.481847 59.947462 
L 116.017593 59.293011 
L 116.285466 60.709756 
L 116.821212 60.887012 
L 117.089085 61.09829 
L 117.356958 61.584923 
L 117.62483 61.362598 
L 117.892703 61.58807 
L 118.160576 62.073036 
L 118.964195 61.013814 
L 119.499941 60.238076 
L 120.035687 58.793897 
L 120.30356 60.384425 
L 120.571433 63.543337 
L 120.839306 63.38004 
L 121.107178 62.894394 
L 121.375051 63.045373 
L 121.642924 62.536023 
L 121.910797 62.300162 
L 122.446543 61.573185 
L 123.250162 60.355559 
L 123.518035 60.175546 
L 123.785908 59.694057 
L 124.053781 59.793648 
L 124.321654 59.310981 
L 124.589526 60.078989 
L 125.125272 59.063044 
L 125.393145 59.417894 
L 125.928891 58.208471 
L 126.196764 59.217609 
L 126.464637 58.85067 
L 127.268256 58.653142 
L 127.536129 58.200849 
L 127.804002 58.067164 
L 128.071874 58.220043 
L 128.60762 57.447865 
L 128.875493 57.744518 
L 129.143366 57.221818 
L 129.679112 55.521544 
L 130.482731 53.627777 
L 131.018477 51.740706 
L 131.28635 50.444138 
L 132.089968 49.14824 
L 132.357841 50.713029 
L 132.625714 50.40103 
L 132.893587 49.917574 
L 133.16146 52.326861 
L 134.232952 50.191077 
L 134.500825 50.74142 
L 134.768697 50.537921 
L 135.304443 49.514813 
L 135.572316 49.759109 
L 135.840189 49.549016 
L 136.375935 48.451359 
L 136.643808 47.614936 
L 136.911681 47.460685 
L 137.179554 47.648448 
L 137.447427 47.124928 
L 137.983173 45.543085 
L 138.251045 48.449087 
L 138.518918 49.706387 
L 138.786791 49.267733 
L 139.054664 50.265916 
L 139.322537 49.75049 
L 139.59041 50.528486 
L 139.858283 50.257871 
L 140.126156 50.343241 
L 140.394029 49.696887 
L 140.661902 49.842787 
L 140.929775 49.858751 
L 141.465521 48.997149 
L 141.733393 48.947929 
L 142.001266 48.177188 
L 142.269139 49.679574 
L 142.537012 48.574564 
L 143.072758 47.287552 
L 143.340631 47.391485 
L 143.608504 47.671402 
L 143.876377 47.587487 
L 144.14425 49.280393 
L 144.679996 48.412467 
L 144.947869 48.960973 
L 145.215741 48.832597 
L 145.483614 49.609686 
L 145.751487 49.24198 
L 146.01936 49.766477 
L 146.287233 49.416834 
L 146.555106 49.565469 
L 146.822979 49.924177 
L 147.626598 48.305516 
L 147.894471 49.195083 
L 148.162344 49.068773 
L 148.430217 49.093612 
L 148.698089 49.650242 
L 149.501708 49.639032 
L 149.769581 49.321887 
L 150.037454 49.771527 
L 150.305327 49.74619 
L 151.376819 48.665071 
L 152.180437 50.434901 
L 152.716183 49.874371 
L 152.984056 49.981402 
L 153.519802 49.018081 
L 153.787675 48.970294 
L 154.055548 49.413846 
L 154.859167 48.351611 
L 155.394912 48.19422 
L 155.662785 47.911955 
L 155.930658 47.382172 
L 156.198531 47.170759 
L 156.466404 46.604556 
L 156.734277 46.5496 
L 157.00215 46.840775 
L 157.805769 44.942181 
L 158.073642 44.744944 
L 158.341515 44.037224 
L 158.609388 44.190183 
L 158.87726 43.600707 
L 159.145133 43.440583 
L 159.413006 43.526553 
L 159.948752 42.434346 
L 160.216625 42.482507 
L 160.484498 42.97293 
L 160.752371 43.098345 
L 161.020244 42.786581 
L 161.288117 43.48929 
L 161.55599 44.736322 
L 161.823863 44.345787 
L 162.359608 43.93818 
L 162.627481 44.282365 
L 163.4311 43.1999 
L 163.698973 45.009417 
L 163.966846 44.826658 
L 164.234719 45.074103 
L 164.502592 45.113365 
L 164.770465 45.394623 
L 165.038338 45.894607 
L 165.306211 45.373898 
L 165.574084 45.517103 
L 165.841956 46.165752 
L 166.645575 44.759814 
L 166.913448 45.383714 
L 167.449194 44.452636 
L 167.717067 43.978289 
L 167.98494 44.374186 
L 168.252813 44.22379 
L 168.520686 43.340493 
L 168.788559 43.957179 
L 169.056431 42.611191 
L 169.324304 41.844259 
L 169.592177 44.920131 
L 170.127923 43.761541 
L 170.395796 42.98509 
L 170.663669 43.205676 
L 170.931542 43.714826 
L 171.199415 43.455252 
L 171.735161 43.640924 
L 172.003034 43.273861 
L 172.270907 43.203201 
L 172.538779 43.003433 
L 172.806652 43.956368 
L 173.074525 43.738867 
L 173.342398 43.810721 
L 173.610271 43.495639 
L 174.146017 43.569301 
L 175.217509 42.023299 
L 175.485382 41.998461 
L 175.753255 41.83483 
L 176.556873 41.683532 
L 176.824746 41.459296 
L 177.628365 42.278549 
L 177.896238 42.263583 
L 178.164111 42.419894 
L 178.431984 42.198136 
L 179.235603 42.515318 
L 179.503475 42.876538 
L 179.771348 43.00893 
L 180.039221 42.723541 
L 180.307094 42.73227 
L 180.84284 43.281293 
L 181.646459 43.190238 
L 181.914332 42.952474 
L 182.182205 43.104116 
L 182.985823 42.459594 
L 183.253696 42.000425 
L 183.521569 41.940696 
L 183.789442 42.049622 
L 184.057315 42.650872 
L 184.325188 42.343567 
L 184.593061 42.400179 
L 184.860934 42.122659 
L 185.128807 42.097397 
L 185.128807 42.097397 
" clip-path="url(#pf24b3cef27)" style="fill: none; stroke: #6c74f5; stroke-width: 0.75; stroke-linecap: round"/>
   </g>
   <g id="text_14">
    <text style="fill: #f2f2f2; font: 7px 'Helvetica Neue', 'HelveticaNeue', 'Arial', 'Liberation Sans', 'DejaVu Sans', 'Bitstream Vera Sans', sans-serif; text-anchor: middle" x="103.829375" y="19.398438" transform="rotate(-0 103.829375 19.398438)">ETH-UNI-30bps</text>
   </g>
   <g id="legend_1">
    <g id="patch_5">
     <path d="M 17.9 91.718437 
L 84.071094 91.718437 
Q 85.071094 91.718437 85.071094 90.718437 
L 85.071094 73.98875 
Q 85.071094 72.98875 84.071094 72.98875 
L 17.9 72.98875 
Q 16.9 72.98875 16.9 73.98875 
L 16.9 90.718437 
Q 16.9 91.718437 17.9 91.718437 
z
" style="fill: #0a0119; stroke: #bfbfbf; stroke-width: 0.3; stroke-linejoin: miter"/>
    </g>
    <g id="line2d_27">
     <path d="M 18.15 76.059062 
L 23.15 76.059062 
L 28.15 76.059062 
" style="fill: none; stroke: #6c74f5; stroke-width: 0.75; stroke-linecap: round"/>
    </g>
    <g id="text_15">
     <text style="fill: #f2f2f2; font: 500 5px 'Helvetica Neue', 'HelveticaNeue', 'Arial', 'Liberation Sans', 'DejaVu Sans', 'Bitstream Vera Sans', sans-serif; text-anchor: start" x="32.15" y="77.809062" transform="rotate(-0 32.15 77.809062)">Autorebalanced LP</text>
    </g>
    <g id="line2d_28">
     <path d="M 18.15 81.918437 
L 23.15 81.918437 
L 28.15 81.918437 
" style="fill: none; stroke: #7ceac5; stroke-width: 0.75; stroke-linecap: round"/>
    </g>
    <g id="text_16">
     <text style="fill: #f2f2f2; font: 500 5px 'Helvetica Neue', 'HelveticaNeue', 'Arial', 'Liberation Sans', 'DejaVu Sans', 'Bitstream Vera Sans', sans-serif; text-anchor: start" x="32.15" y="83.668437" transform="rotate(-0 32.15 83.668437)">1d buy/sell</text>
    </g>
    <g id="line2d_29">
     <path d="M 18.15 87.76375 
L 23.15 87.76375 
L 28.15 87.76375 
" style="fill: none; stroke: #f8d120; stroke-width: 0.75; stroke-linecap: round"/>
    </g>
    <g id="text_17">
     <text style="fill: #f2f2f2; font: 500 5px 'Helvetica Neue', 'HelveticaNeue', 'Arial', 'Liberation Sans', 'DejaVu Sans', 'Bitstream Vera Sans', sans-serif; text-anchor: start" x="32.15" y="89.51375" transform="rotate(-0 32.15 89.51375)">Lump-sum investment</text>
    </g>
   </g>
  </g>
 </g>
 <defs>
  <clipPath id="pf24b3cef27">
   <rect x="14.4" y="25.398438" width="178.85875" height="68.82"/>
  </clipPath>
 </defs>
</svg>
