<?xml version="1.0" encoding="utf-8" standalone="no"?>
<!DOCTYPE svg PUBLIC "-//W3C//DTD SVG 1.1//EN"
  "http://www.w3.org/Graphics/SVG/1.1/DTD/svg11.dtd">
<svg xmlns:xlink="http://www.w3.org/1999/xlink" width="226.8pt" height="129.6pt" viewBox="0 0 226.8 129.6" xmlns="http://www.w3.org/2000/svg" version="1.1">
 <metadata>
  <rdf:RDF xmlns:dc="http://purl.org/dc/elements/1.1/" xmlns:cc="http://creativecommons.org/ns#" xmlns:rdf="http://www.w3.org/1999/02/22-rdf-syntax-ns#">
   <cc:Work>
    <dc:type rdf:resource="http://purl.org/dc/dcmitype/StillImage"/>
    <dc:date>2023-01-05T12:42:42.330407</dc:date>
    <dc:format>image/svg+xml</dc:format>
    <dc:creator>
     <cc:Agent>
      <dc:title>Matplotlib v3.6.2, https://matplotlib.org/</dc:title>
     </cc:Agent>
    </dc:creator>
   </cc:Work>
  </rdf:RDF>
 </metadata>
 <defs>
  <style type="text/css">*{stroke-linejoin: round; stroke-linecap: butt}</style>
 </defs>
 <g id="figure_1">
  <g id="patch_1">
   <path d="M 0 129.6 
L 226.8 129.6 
L 226.8 0 
L 0 0 
z
" style="fill: #19161e"/>
  </g>
  <g id="axes_1">
   <g id="patch_2">
    <path d="M 19.542188 95.221875 
L 196.0575 95.221875 
L 196.0575 25.398438 
L 19.542188 25.398438 
z
" style="fill: #0a0119"/>
   </g>
   <g id="matplotlib.axis_1">
    <g id="xtick_1">
     <g id="line2d_1">
      <path d="M 19.542188 95.221875 
L 19.542188 25.398438 
" clip-path="url(#peed728d81f)" style="fill: none; stroke: #404040; stroke-width: 0.5; stroke-linecap: round"/>
     </g>
     <g id="line2d_2"/>
     <g id="text_1">
      <text style="fill: #f2f2f2; font: 500 5px 'Helvetica Neue', 'HelveticaNeue', 'Arial', 'Liberation Sans', 'DejaVu Sans', 'Bitstream Vera Sans', sans-serif; text-anchor: middle" x="19.542188" y="101.792187" transform="rotate(-0 19.542188 101.792187)">-128</text>
     </g>
    </g>
    <g id="xtick_2">
     <g id="line2d_3">
      <path d="M 37.193719 95.221875 
L 37.193719 25.398438 
" clip-path="url(#peed728d81f)" style="fill: none; stroke: #404040; stroke-width: 0.5; stroke-linecap: round"/>
     </g>
     <g id="line2d_4"/>
     <g id="text_2">
      <text style="fill: #f2f2f2; font: 500 5px 'Helvetica Neue', 'HelveticaNeue', 'Arial', 'Liberation Sans', 'DejaVu Sans', 'Bitstream Vera Sans', sans-serif; text-anchor: middle" x="37.193719" y="101.792187" transform="rotate(-0 37.193719 101.792187)">-116</text>
     </g>
    </g>
    <g id="xtick_3">
     <g id="line2d_5">
      <path d="M 54.84525 95.221875 
L 54.84525 25.398438 
" clip-path="url(#peed728d81f)" style="fill: none; stroke: #404040; stroke-width: 0.5; stroke-linecap: round"/>
     </g>
     <g id="line2d_6"/>
     <g id="text_3">
      <text style="fill: #f2f2f2; font: 500 5px 'Helvetica Neue', 'HelveticaNeue', 'Arial', 'Liberation Sans', 'DejaVu Sans', 'Bitstream Vera Sans', sans-serif; text-anchor: middle" x="54.84525" y="101.792187" transform="rotate(-0 54.84525 101.792187)">-104</text>
     </g>
    </g>
    <g id="xtick_4">
     <g id="line2d_7">
      <path d="M 72.496781 95.221875 
L 72.496781 25.398438 
" clip-path="url(#peed728d81f)" style="fill: none; stroke: #404040; stroke-width: 0.5; stroke-linecap: round"/>
     </g>
     <g id="line2d_8"/>
     <g id="text_4">
      <text style="fill: #f2f2f2; font: 500 5px 'Helvetica Neue', 'HelveticaNeue', 'Arial', 'Liberation Sans', 'DejaVu Sans', 'Bitstream Vera Sans', sans-serif; text-anchor: middle" x="72.496781" y="101.792187" transform="rotate(-0 72.496781 101.792187)">-92</text>
     </g>
    </g>
    <g id="xtick_5">
     <g id="line2d_9">
      <path d="M 90.148313 95.221875 
L 90.148313 25.398438 
" clip-path="url(#peed728d81f)" style="fill: none; stroke: #404040; stroke-width: 0.5; stroke-linecap: round"/>
     </g>
     <g id="line2d_10"/>
     <g id="text_5">
      <text style="fill: #f2f2f2; font: 500 5px 'Helvetica Neue', 'HelveticaNeue', 'Arial', 'Liberation Sans', 'DejaVu Sans', 'Bitstream Vera Sans', sans-serif; text-anchor: middle" x="90.148313" y="101.792187" transform="rotate(-0 90.148313 101.792187)">-80</text>
     </g>
    </g>
    <g id="xtick_6">
     <g id="line2d_11">
      <path d="M 107.799844 95.221875 
L 107.799844 25.398438 
" clip-path="url(#peed728d81f)" style="fill: none; stroke: #404040; stroke-width: 0.5; stroke-linecap: round"/>
     </g>
     <g id="line2d_12"/>
     <g id="text_6">
      <text style="fill: #f2f2f2; font: 500 5px 'Helvetica Neue', 'HelveticaNeue', 'Arial', 'Liberation Sans', 'DejaVu Sans', 'Bitstream Vera Sans', sans-serif; text-anchor: middle" x="107.799844" y="101.792187" transform="rotate(-0 107.799844 101.792187)">-68</text>
     </g>
    </g>
    <g id="xtick_7">
     <g id="line2d_13">
      <path d="M 125.451375 95.221875 
L 125.451375 25.398438 
" clip-path="url(#peed728d81f)" style="fill: none; stroke: #404040; stroke-width: 0.5; stroke-linecap: round"/>
     </g>
     <g id="line2d_14"/>
     <g id="text_7">
      <text style="fill: #f2f2f2; font: 500 5px 'Helvetica Neue', 'HelveticaNeue', 'Arial', 'Liberation Sans', 'DejaVu Sans', 'Bitstream Vera Sans', sans-serif; text-anchor: middle" x="125.451375" y="101.792187" transform="rotate(-0 125.451375 101.792187)">-56</text>
     </g>
    </g>
    <g id="xtick_8">
     <g id="line2d_15">
      <path d="M 143.102906 95.221875 
L 143.102906 25.398438 
" clip-path="url(#peed728d81f)" style="fill: none; stroke: #404040; stroke-width: 0.5; stroke-linecap: round"/>
     </g>
     <g id="line2d_16"/>
     <g id="text_8">
      <text style="fill: #f2f2f2; font: 500 5px 'Helvetica Neue', 'HelveticaNeue', 'Arial', 'Liberation Sans', 'DejaVu Sans', 'Bitstream Vera Sans', sans-serif; text-anchor: middle" x="143.102906" y="101.792187" transform="rotate(-0 143.102906 101.792187)">-44</text>
     </g>
    </g>
    <g id="xtick_9">
     <g id="line2d_17">
      <path d="M 160.754437 95.221875 
L 160.754437 25.398438 
" clip-path="url(#peed728d81f)" style="fill: none; stroke: #404040; stroke-width: 0.5; stroke-linecap: round"/>
     </g>
     <g id="line2d_18"/>
     <g id="text_9">
      <text style="fill: #f2f2f2; font: 500 5px 'Helvetica Neue', 'HelveticaNeue', 'Arial', 'Liberation Sans', 'DejaVu Sans', 'Bitstream Vera Sans', sans-serif; text-anchor: middle" x="160.754437" y="101.792187" transform="rotate(-0 160.754437 101.792187)">-32</text>
     </g>
    </g>
    <g id="xtick_10">
     <g id="line2d_19">
      <path d="M 178.405969 95.221875 
L 178.405969 25.398438 
" clip-path="url(#peed728d81f)" style="fill: none; stroke: #404040; stroke-width: 0.5; stroke-linecap: round"/>
     </g>
     <g id="line2d_20"/>
     <g id="text_10">
      <text style="fill: #f2f2f2; font: 500 5px 'Helvetica Neue', 'HelveticaNeue', 'Arial', 'Liberation Sans', 'DejaVu Sans', 'Bitstream Vera Sans', sans-serif; text-anchor: middle" x="178.405969" y="101.792187" transform="rotate(-0 178.405969 101.792187)">-20</text>
     </g>
    </g>
    <g id="xtick_11">
     <g id="line2d_21">
      <path d="M 196.0575 95.221875 
L 196.0575 25.398438 
" clip-path="url(#peed728d81f)" style="fill: none; stroke: #404040; stroke-width: 0.5; stroke-linecap: round"/>
     </g>
     <g id="line2d_22"/>
     <g id="text_11">
      <text style="fill: #f2f2f2; font: 500 5px 'Helvetica Neue', 'HelveticaNeue', 'Arial', 'Liberation Sans', 'DejaVu Sans', 'Bitstream Vera Sans', sans-serif; text-anchor: middle" x="196.0575" y="101.792187" transform="rotate(-0 196.0575 101.792187)">-8</text>
     </g>
    </g>
    <g id="text_12">
     <text style="fill: #f2f2f2; font: 500 7px 'Helvetica Neue', 'HelveticaNeue', 'Arial', 'Liberation Sans', 'DejaVu Sans', 'Bitstream Vera Sans', sans-serif; text-anchor: middle" x="107.799844" y="113.863438" transform="rotate(-0 107.799844 113.863438)">time before 2023-01-01 (h)</text>
    </g>
   </g>
   <g id="matplotlib.axis_2">
    <g id="ytick_1">
     <g id="line2d_23">
      <path d="M 19.542188 77.766016 
L 196.0575 77.766016 
" clip-path="url(#peed728d81f)" style="fill: none; stroke: #404040; stroke-width: 0.5; stroke-linecap: round"/>
     </g>
     <g id="line2d_24"/>
     <g id="text_13">
      <text style="fill: #f2f2f2; font: 500 6px 'Helvetica Neue', 'HelveticaNeue', 'Arial', 'Liberation Sans', 'DejaVu Sans', 'Bitstream Vera Sans', sans-serif; text-anchor: start" x="199.0575" y="79.908203" transform="rotate(-0 199.0575 79.908203)">1180</text>
     </g>
    </g>
    <g id="ytick_2">
     <g id="line2d_25">
      <path d="M 19.542188 54.491536 
L 196.0575 54.491536 
" clip-path="url(#peed728d81f)" style="fill: none; stroke: #404040; stroke-width: 0.5; stroke-linecap: round"/>
     </g>
     <g id="line2d_26"/>
     <g id="text_14">
      <text style="fill: #f2f2f2; font: 500 6px 'Helvetica Neue', 'HelveticaNeue', 'Arial', 'Liberation Sans', 'DejaVu Sans', 'Bitstream Vera Sans', sans-serif; text-anchor: start" x="199.0575" y="56.633724" transform="rotate(-0 199.0575 56.633724)">1200</text>
     </g>
    </g>
    <g id="ytick_3">
     <g id="line2d_27">
      <path d="M 19.542188 31.217057 
L 196.0575 31.217057 
" clip-path="url(#peed728d81f)" style="fill: none; stroke: #404040; stroke-width: 0.5; stroke-linecap: round"/>
     </g>
     <g id="line2d_28"/>
     <g id="text_15">
      <text style="fill: #f2f2f2; font: 500 6px 'Helvetica Neue', 'HelveticaNeue', 'Arial', 'Liberation Sans', 'DejaVu Sans', 'Bitstream Vera Sans', sans-serif; text-anchor: start" x="199.0575" y="33.359245" transform="rotate(-0 199.0575 33.359245)">1220</text>
     </g>
    </g>
   </g>
   <g id="line2d_29">
    <path d="M 19.512768 29.311741 
L 19.571607 29.311741 
L 19.577491 28.600775 
L 19.677516 28.742997 
L 19.695167 28.742997 
L 19.789309 30.306497 
L 19.789309 30.306497 
L 19.871683 30.306497 
L 19.871683 30.448549 
L 19.954057 28.458539 
L 19.983476 28.458539 
L 20.083501 28.742997 
L 20.083501 28.742997 
L 20.130572 28.742997 
L 20.171759 32.010174 
L 20.207062 28.316289 
L 20.236481 28.316289 
L 20.254133 28.316289 
L 20.324739 28.600775 
L 20.348274 28.600775 
L 20.642466 28.600775 
L 20.642466 28.458539 
L 20.730724 28.742997 
L 20.748375 28.742997 
L 20.836633 28.742997 
L 20.854285 29.311741 
L 20.942542 29.311741 
L 20.960194 29.311741 
L 20.960194 29.311741 
L 21.013148 60.24495 
L 21.066103 31.016611 
L 21.089638 31.016611 
L 21.089638 31.300557 
L 21.189664 30.874617 
L 21.195548 30.874617 
L 21.277921 30.874617 
L 21.277921 30.874617 
L 21.289689 30.306497 
L 21.372063 30.306497 
L 21.613301 30.306497 
L 21.613301 30.164432 
L 21.701558 30.164432 
L 21.84277 30.164432 
L 21.878073 32.719437 
L 21.942796 32.719437 
L 22.054589 32.719437 
L 22.054589 32.861246 
L 22.07224 32.152055 
L 22.154614 32.152055 
L 22.289943 32.152055 
L 22.289943 32.293922 
L 22.395852 32.293922 
L 22.637089 32.293922 
L 22.637089 32.719437 
L 22.737115 32.719437 
L 22.766534 32.719437 
L 22.766534 32.861246 
L 22.866559 32.861246 
L 22.890095 32.861246 
L 22.901862 32.293922 
L 22.978352 32.293922 
L 23.560853 32.293922 
L 23.560853 33.286591 
L 23.643227 33.144824 
L 23.731484 33.144824 
L 23.731484 33.286591 
L 23.83151 33.286591 
L 23.855045 33.286591 
L 23.855045 33.286591 
L 23.855045 33.428344 
L 23.949186 33.428344 
L 23.98449 33.428344 
L 23.98449 41.484891 
L 24.084515 34.42022 
L 24.102166 34.42022 
L 24.131586 33.428344 
L 24.18454 33.711808 
L 24.313985 33.711808 
L 24.313985 58.853608 
L 24.419894 34.56186 
L 24.425778 34.56186 
L 24.425778 34.136898 
L 24.531687 34.136898 
L 24.631712 34.136898 
L 24.714086 35.835981 
L 24.71997 35.835981 
L 24.743505 35.835981 
L 24.749389 35.411401 
L 24.837647 35.835981 
L 24.855298 35.835981 
L 24.855298 35.835981 
L 24.937672 35.269847 
L 24.884718 35.977479 
L 24.955324 35.269847 
L 25.002395 35.269847 
L 25.002395 37.95697 
L 25.061233 34.845097 
L 25.108304 34.845097 
L 25.120071 34.845097 
L 25.120071 34.845097 
L 25.184794 33.853519 
L 25.225981 33.853519 
L 25.308354 33.853519 
L 25.308354 33.853519 
L 25.402496 33.570083 
L 25.402496 33.570083 
L 25.767294 33.570083 
L 25.767294 36.826172 
L 25.873203 34.42022 
L 26.002648 34.42022 
L 26.002648 34.42022 
L 26.002648 34.136898 
L 26.108557 34.278566 
L 26.149744 34.278566 
L 26.149744 34.136898 
L 26.202699 35.269847 
L 26.238002 35.269847 
L 26.261537 35.269847 
L 26.261537 41.343943 
L 26.332143 35.411401 
L 26.438052 35.411401 
L 26.438052 35.269847 
L 26.443936 35.977479 
L 26.543962 35.269847 
L 26.591032 35.269847 
L 26.643987 34.703485 
L 26.696942 34.845097 
L 26.702825 34.845097 
L 26.702825 34.845097 
L 26.796967 34.42022 
L 26.808735 34.42022 
L 27.155881 34.42022 
L 27.21472 33.853519 
L 27.261791 33.853519 
L 27.308861 33.853519 
L 27.308861 33.995215 
L 27.41477 33.853519 
L 27.420654 33.853519 
L 27.420654 33.853519 
L 27.467725 41.343943 
L 27.526563 37.674356 
L 27.544215 37.674356 
L 27.544215 36.967571 
L 27.626589 43.034384 
L 27.650124 42.752784 
L 27.661892 42.752784 
L 27.667776 43.456677 
L 27.732498 41.062006 
L 27.767801 41.484891 
L 27.773685 41.484891 
L 27.773685 41.062006 
L 27.82664 43.738135 
L 27.87371 41.202981 
L 27.891362 41.202981 
L 27.991387 44.160218 
L 27.997271 44.160218 
L 28.003155 44.160218 
L 28.020806 46.409186 
L 28.109064 42.893591 
L 28.109064 42.893591 
L 28.114948 42.893591 
L 28.114948 43.034384 
L 28.156135 42.752784 
L 28.220857 42.752784 
L 28.238509 42.752784 
L 28.326766 45.144584 
L 28.344418 45.144584 
L 28.391489 45.144584 
L 28.426792 45.987778 
L 28.456211 44.300884 
L 28.491514 44.300884 
L 28.503282 44.300884 
L 28.573888 41.766743 
L 28.609191 42.04854 
L 28.644494 42.04854 
L 28.644494 42.471129 
L 28.744519 41.766743 
L 28.744519 41.766743 
L 28.756287 41.766743 
L 28.862196 39.086865 
L 28.862196 39.086865 
L 28.86808 39.086865 
L 28.950454 35.977479 
L 28.956338 35.977479 
L 28.991641 35.977479 
L 28.991641 35.269847 
L 29.09755 35.835981 
L 29.115201 35.835981 
L 29.162272 36.401889 
L 29.22111 36.401889 
L 29.232878 36.401889 
L 29.268181 38.098257 
L 29.332904 38.098257 
L 29.438813 38.098257 
L 29.462348 40.780012 
L 29.544722 40.497962 
L 29.550606 40.497962 
L 29.562373 40.215855 
L 29.650631 40.215855 
L 29.668283 40.215855 
L 29.668283 40.215855 
L 29.668283 40.074781 
L 29.768308 40.074781 
L 29.780076 40.074781 
L 29.809495 40.921016 
L 29.880101 40.921016 
L 29.897753 40.921016 
L 29.950707 41.907649 
L 30.003662 41.907649 
L 30.027197 41.907649 
L 30.044849 42.33028 
L 30.133106 42.33028 
L 30.156642 42.33028 
L 30.256667 41.907649 
L 30.256667 41.907649 
L 30.327273 41.907649 
L 30.327273 41.484891 
L 30.433182 42.189417 
L 30.456718 42.189417 
L 30.556743 43.315927 
L 30.574395 43.315927 
L 30.662652 43.597413 
L 30.668536 43.597413 
L 30.703839 43.597413 
L 30.803864 42.189417 
L 30.856819 42.189417 
L 30.892122 41.202981 
L 30.962728 41.202981 
L 30.968612 41.202981 
L 30.968612 40.638994 
L 31.068637 41.766743 
L 31.068637 41.766743 
L 31.080405 41.766743 
L 31.10394 42.04854 
L 31.156895 42.04854 
L 31.192198 42.04854 
L 31.239269 41.625824 
L 31.298107 41.625824 
L 31.327527 41.625824 
L 31.339294 40.921016 
L 31.433436 40.921016 
L 31.462855 40.921016 
L 31.551113 41.907649 
L 31.574648 41.907649 
L 31.574648 42.04854 
L 31.680557 42.04854 
L 31.751163 42.04854 
L 31.751163 42.189417 
L 31.851189 42.04854 
L 31.862956 42.04854 
L 31.862956 42.33028 
L 31.962982 42.33028 
L 32.163032 42.33028 
L 32.163032 42.471129 
L 32.215987 41.484891 
L 32.257174 41.484891 
L 32.286593 41.484891 
L 32.339548 42.189417 
L 32.392502 42.189417 
L 32.451341 42.189417 
L 32.545482 45.285151 
L 32.55725 45.285151 
L 32.574901 45.285151 
L 32.574901 45.004002 
L 32.680811 45.144584 
L 32.704346 45.144584 
L 32.704346 45.144584 
L 32.704346 45.285151 
L 32.804371 45.004002 
L 32.810255 45.004002 
L 32.816139 45.004002 
L 32.816139 44.722797 
L 32.922048 45.285151 
L 32.927932 45.285151 
L 32.98677 45.70677 
L 33.027957 45.425705 
L 33.039725 45.425705 
L 33.039725 45.285151 
L 33.110331 52.435488 
L 33.145634 49.495647 
L 33.180937 49.495647 
L 33.257427 47.111251 
L 33.280963 47.251621 
L 33.304498 47.251621 
L 33.304498 47.251621 
L 33.386872 45.70677 
L 33.410407 45.70677 
L 33.439826 45.70677 
L 33.439826 45.566244 
L 33.5222 45.566244 
L 33.586923 45.566244 
L 33.586923 45.566244 
L 33.651645 46.690054 
L 33.686948 46.690054 
L 33.798741 46.690054 
L 33.851696 47.532321 
L 33.90465 46.830467 
L 33.910534 46.830467 
L 33.910534 46.830467 
L 33.910534 46.128261 
L 34.016443 46.268731 
L 34.039979 46.268731 
L 34.13412 46.970866 
L 34.140004 46.970866 
L 34.157655 46.970866 
L 34.192958 48.233825 
L 34.263565 47.391978 
L 34.292984 47.391978 
L 34.292984 47.391978 
L 34.292984 47.532321 
L 34.345938 46.268731 
L 34.387125 46.268731 
L 34.410661 46.268731 
L 34.410661 46.409186 
L 34.44008 45.987778 
L 34.504802 45.987778 
L 34.751924 45.987778 
L 34.751924 45.847281 
L 34.804878 46.268731 
L 34.846065 46.268731 
L 34.916671 46.268731 
L 34.922555 46.830467 
L 35.010813 46.830467 
L 35.075535 46.830467 
L 35.075535 46.409186 
L 35.181444 46.690054 
L 35.216747 46.690054 
L 35.234399 47.391978 
L 35.316773 47.391978 
L 35.40503 47.391978 
L 35.40503 47.391978 
L 35.40503 47.532321 
L 35.475636 46.549627 
L 35.510939 46.549627 
L 35.552126 46.549627 
L 35.575662 46.128261 
L 35.640384 46.128261 
L 35.669803 46.128261 
L 35.669803 46.268731 
L 35.693339 45.566244 
L 35.775712 45.566244 
L 35.799248 45.566244 
L 35.828667 47.111251 
L 35.905157 46.409186 
L 36.040485 46.409186 
L 36.040485 46.268731 
L 36.134627 46.409186 
L 36.211117 46.409186 
L 36.211117 46.409186 
L 36.317026 45.70677 
L 36.340561 45.70677 
L 36.364097 45.144584 
L 36.346445 45.987778 
L 36.422935 45.144584 
L 36.517077 45.144584 
L 36.517077 45.144584 
L 36.517077 45.285151 
L 36.622986 44.160218 
L 36.62887 44.160218 
L 36.734779 43.315927 
L 36.734779 43.315927 
L 36.758314 43.315927 
L 36.758314 43.034384 
L 36.864224 43.034384 
L 36.90541 43.034384 
L 36.923062 43.315927 
L 36.999552 43.175162 
L 37.070158 43.175162 
L 37.070158 42.611964 
L 37.176067 42.611964 
L 37.193719 42.611964 
L 37.270209 43.175162 
L 37.293744 43.175162 
L 37.305512 43.175162 
L 37.370234 42.33028 
L 37.399653 42.471129 
L 37.540866 42.471129 
L 37.564401 41.484891 
L 37.640891 41.484891 
L 37.723265 41.484891 
L 37.723265 41.484891 
L 37.829174 42.33028 
L 38.170437 42.33028 
L 38.170437 42.471129 
L 38.170437 42.04854 
L 38.276346 42.33028 
L 38.317533 42.33028 
L 38.394023 42.752784 
L 38.423442 42.752784 
L 38.458745 42.752784 
L 38.458745 42.752784 
L 38.5117 43.597413 
L 38.558771 43.456677 
L 38.576422 43.456677 
L 38.66468 49.775898 
L 38.670564 44.863407 
L 38.74117 44.863407 
L 38.74117 44.582173 
L 38.835311 44.582173 
L 38.882382 44.582173 
L 38.882382 44.722797 
L 38.958872 44.300884 
L 38.988291 44.300884 
L 39.011826 44.300884 
L 39.011826 44.300884 
L 39.100084 44.019538 
L 39.111852 44.019538 
L 39.176574 44.019538 
L 39.176574 43.738135 
L 39.211877 44.300884 
L 39.258948 44.300884 
L 39.329554 44.300884 
L 39.329554 44.441536 
L 39.423696 44.441536 
L 39.470766 44.441536 
L 39.470766 44.441536 
L 39.470766 44.300884 
L 39.517837 44.863407 
L 39.576675 44.722797 
L 39.617862 44.722797 
L 39.617862 44.582173 
L 39.723772 44.582173 
L 39.894403 44.582173 
L 39.894403 44.441536 
L 39.994428 44.441536 
L 40.076802 44.441536 
L 40.076802 44.582173 
L 40.16506 44.582173 
L 40.206247 44.582173 
L 40.206247 44.582173 
L 40.24155 44.300884 
L 40.306272 44.300884 
L 40.353343 44.300884 
L 40.353343 44.441536 
L 40.447484 44.019538 
L 40.465136 44.019538 
L 40.500439 41.907649 
L 40.571045 42.189417 
L 40.576929 42.189417 
L 40.653419 41.625824 
L 40.676954 41.625824 
L 40.688722 41.625824 
L 40.765212 42.04854 
L 40.794631 42.04854 
L 40.90054 42.04854 
L 40.90054 42.189417 
L 40.994682 42.04854 
L 41.024101 42.04854 
L 41.088823 40.356916 
L 41.13001 40.356916 
L 41.347712 40.356916 
L 41.347712 40.497962 
L 41.383016 40.215855 
L 41.447738 40.215855 
L 41.488925 40.215855 
L 41.488925 40.215855 
L 41.488925 40.497962 
L 41.577182 40.497962 
L 41.653672 40.497962 
L 41.759582 39.369197 
L 41.759582 39.369197 
L 41.800768 39.369197 
L 41.800768 39.228038 
L 41.900794 39.228038 
L 41.912561 39.228038 
L 41.930213 40.215855 
L 42.012587 40.215855 
L 42.030238 40.215855 
L 42.077309 41.202981 
L 42.136148 41.202981 
L 42.27736 41.202981 
L 42.27736 41.202981 
L 42.27736 41.062006 
L 42.383269 41.625824 
L 42.383269 41.625824 
L 42.389153 41.625824 
L 42.442107 40.074781 
L 42.495062 40.921016 
L 42.548017 40.921016 
L 42.600971 39.79259 
L 42.653926 40.074781 
L 42.78337 40.074781 
L 42.830441 40.356916 
L 42.88928 40.356916 
L 42.906931 40.356916 
L 42.930466 40.638994 
L 42.977537 40.215855 
L 43.006956 40.215855 
L 43.077563 40.215855 
L 43.077563 40.215855 
L 43.077563 40.074781 
L 43.171704 40.215855 
L 43.189356 40.215855 
L 43.271729 39.79259 
L 43.295265 39.79259 
L 43.389406 39.79259 
L 43.389406 58.992805 
L 43.489432 40.638994 
L 43.530618 40.638994 
L 43.583573 40.215855 
L 43.612992 40.780012 
L 43.62476 40.638994 
L 43.648295 40.638994 
L 43.713018 41.202981 
L 43.654179 40.497962 
L 43.748321 41.062006 
L 43.783624 41.062006 
L 43.783624 40.921016 
L 43.836578 41.343943 
L 43.877765 41.343943 
L 43.913068 41.343943 
L 43.913068 41.202981 
L 44.018978 41.202981 
L 44.030745 41.202981 
L 44.030745 41.062006 
L 44.136654 41.062006 
L 44.148422 41.062006 
L 44.254331 40.638994 
L 44.154306 41.202981 
L 44.254331 40.638994 
L 44.28375 40.638994 
L 44.28375 40.356916 
L 44.324937 41.202981 
L 44.38966 41.202981 
L 44.407311 41.202981 
L 44.477917 41.625824 
L 44.51322 41.484891 
L 44.566175 41.484891 
L 44.566175 41.625824 
L 44.672084 41.484891 
L 44.748574 41.484891 
L 44.807413 42.752784 
L 44.81918 32.010174 
L 44.854483 40.921016 
L 44.860367 40.921016 
L 44.936857 42.752784 
L 44.954509 42.752784 
L 45.019231 42.752784 
L 45.019231 42.611964 
L 45.107489 43.034384 
L 45.12514 43.034384 
L 45.160443 43.034384 
L 45.160443 44.300884 
L 45.254585 43.878844 
L 45.272236 43.878844 
L 45.325191 43.175162 
L 45.378145 43.175162 
L 45.395797 43.175162 
L 45.442868 42.189417 
L 45.495822 42.189417 
L 45.525242 42.189417 
L 45.625267 43.315927 
L 45.625267 43.034384 
L 45.719408 43.034384 
L 45.81355 46.409186 
L 45.825318 46.409186 
L 45.884156 46.409186 
L 45.919459 45.566244 
L 45.984181 45.566244 
L 46.113626 45.566244 
L 46.16658 46.970866 
L 46.213651 46.970866 
L 46.225419 46.970866 
L 46.231303 48.233825 
L 46.331328 47.251621 
L 46.343096 47.251621 
L 46.360747 46.690054 
L 46.354863 49.075166 
L 46.449005 46.690054 
L 46.566682 46.690054 
L 46.672591 45.425705 
L 46.672591 45.425705 
L 46.713778 45.425705 
L 46.807919 39.651473 
L 46.819687 39.79259 
L 46.825571 39.79259 
L 46.831455 37.95697 
L 46.93148 38.945677 
L 46.937364 38.945677 
L 46.996202 40.497962 
L 47.031506 40.497962 
L 47.049157 40.497962 
L 47.096228 41.484891 
L 47.155066 41.484891 
L 47.190369 41.484891 
L 47.208021 42.189417 
L 47.296278 42.189417 
L 47.31393 42.189417 
L 47.31393 42.189417 
L 47.31393 42.33028 
L 47.413955 42.33028 
L 47.461026 42.33028 
L 47.461026 42.189417 
L 47.549284 44.019538 
L 47.555168 44.019538 
L 47.578703 44.019538 
L 47.578703 44.019538 
L 47.578703 43.878844 
L 47.684612 44.019538 
L 47.778754 44.019538 
L 47.855244 43.034384 
L 47.884663 43.034384 
L 47.996456 43.034384 
L 48.055294 44.582173 
L 48.096481 44.582173 
L 48.161204 44.582173 
L 48.214158 45.425705 
L 48.267113 45.425705 
L 48.526002 45.425705 
L 48.531886 45.70677 
L 48.626027 45.425705 
L 48.773123 45.425705 
L 48.849613 46.690054 
L 48.867265 46.690054 
L 48.926103 46.690054 
L 48.979058 45.70677 
L 49.032012 45.70677 
L 49.049664 45.70677 
L 49.049664 45.847281 
L 49.137922 45.847281 
L 49.214412 45.847281 
L 49.214412 45.70677 
L 49.261482 46.268731 
L 49.308553 46.268731 
L 49.385043 46.268731 
L 49.461533 47.67265 
L 49.490952 47.67265 
L 49.50272 47.67265 
L 49.526255 51.176312 
L 49.608629 51.036334 
L 49.614513 51.036334 
L 49.714538 52.295636 
L 49.726306 52.295636 
L 49.743957 66.627231 
L 49.832215 64.133312 
L 49.855751 64.133312 
L 49.873402 65.796423 
L 49.93224 62.745861 
L 49.96166 62.884668 
L 49.973427 62.884668 
L 49.973427 62.884668 
L 50.079337 59.410312 
L 50.079337 59.410312 
L 50.08522 59.410312 
L 50.091104 58.575173 
L 50.179362 59.410312 
L 50.202897 59.410312 
L 50.2382 59.68858 
L 50.308806 59.68858 
L 50.361761 59.68858 
L 50.361761 59.68858 
L 50.46767 57.600211 
L 50.473554 57.600211 
L 50.479438 57.321525 
L 50.550044 58.018136 
L 50.579463 58.018136 
L 50.597115 58.018136 
L 50.597115 58.018136 
L 50.691256 58.714398 
L 50.69714 58.714398 
L 50.708908 58.714398 
L 50.785398 58.157416 
L 50.814817 58.157416 
L 50.832469 58.157416 
L 50.832469 58.157416 
L 50.903075 57.042784 
L 50.85012 61.079087 
L 50.938378 57.042784 
L 51.138428 57.042784 
L 51.138428 57.042784 
L 51.173732 57.321525 
L 51.238454 57.321525 
L 51.285525 57.321525 
L 51.285525 57.739533 
L 51.391434 57.739533 
L 51.403201 57.739533 
L 51.409085 58.157416 
L 51.503227 58.157416 
L 51.526762 58.157416 
L 51.573833 57.042784 
L 51.626787 57.042784 
L 51.667974 57.042784 
L 51.667974 56.763986 
L 51.773884 56.763986 
L 52.097495 56.763986 
L 52.097495 56.763986 
L 52.097495 56.903392 
L 52.203404 56.763986 
L 52.22694 56.763986 
L 52.250475 57.600211 
L 52.279894 57.600211 
L 52.403455 57.600211 
L 52.497596 56.485133 
L 52.509364 56.485133 
L 52.556435 56.485133 
L 52.556435 56.903392 
L 52.585854 56.345685 
L 52.650576 56.763986 
L 52.679996 56.763986 
L 52.679996 58.714398 
L 52.756485 57.321525 
L 52.96242 57.321525 
L 52.968304 57.878841 
L 53.068329 57.878841 
L 53.091865 57.878841 
L 53.091865 57.878841 
L 53.091865 58.018136 
L 53.150703 57.739533 
L 53.197774 57.739533 
L 53.456663 57.739533 
L 53.503734 59.131988 
L 53.562572 59.131988 
L 53.603759 59.131988 
L 53.656714 58.714398 
L 53.709668 58.714398 
L 53.750855 58.714398 
L 53.821461 63.43976 
L 53.856764 62.329355 
L 53.874416 62.329355 
L 53.874416 62.329355 
L 53.874416 62.468204 
L 53.903835 61.773819 
L 53.980325 61.773819 
L 54.00386 61.773819 
L 54.00386 72.291094 
L 54.10977 64.687904 
L 54.121537 64.687904 
L 54.133305 79.029713 
L 54.227446 65.242275 
L 54.23333 65.242275 
L 54.303936 67.042448 
L 54.327472 63.717222 
L 54.333356 63.717222 
L 54.398078 63.717222 
L 54.409846 64.271981 
L 54.503987 63.994629 
L 54.515755 63.994629 
L 54.609896 66.904056 
L 54.621664 65.934926 
L 54.668735 65.934926 
L 54.674619 65.519377 
L 54.76876 65.796423 
L 54.792295 65.796423 
L 54.821715 62.884668 
L 54.892321 62.884668 
L 54.945275 62.884668 
L 55.021765 63.301008 
L 55.045301 63.162242 
L 55.104139 63.162242 
L 55.104139 63.301008 
L 55.192397 62.329355 
L 55.204164 62.329355 
L 55.221816 62.329355 
L 55.221816 62.329355 
L 55.221816 62.468204 
L 55.327725 62.468204 
L 55.415983 62.468204 
L 55.415983 62.607039 
L 55.498357 62.051615 
L 55.521892 62.051615 
L 55.527776 62.051615 
L 55.527776 62.051615 
L 55.527776 61.912724 
L 55.616034 61.912724 
L 55.698407 61.912724 
L 55.73371 62.607039 
L 55.798433 62.607039 
L 56.045554 62.607039 
L 56.145579 62.884668 
L 56.169115 62.884668 
L 56.169115 62.884668 
L 56.222069 63.162242 
L 56.275024 63.162242 
L 56.327979 63.162242 
L 56.42212 62.051615 
L 56.433888 62.051615 
L 56.510378 62.051615 
L 56.557449 61.079087 
L 56.616287 61.079087 
L 56.65159 61.079087 
L 56.65159 61.357022 
L 56.657474 60.801097 
L 56.757499 60.940099 
L 56.798686 60.940099 
L 56.798686 60.940099 
L 56.798686 61.079087 
L 56.822222 60.24495 
L 56.88106 60.24495 
L 56.945782 60.24495 
L 56.945782 59.68858 
L 57.004621 59.68858 
L 57.063459 59.68858 
L 57.063459 59.827693 
L 57.163484 59.827693 
L 57.281161 59.827693 
L 57.281161 59.549453 
L 57.369419 59.549453 
L 57.451793 59.549453 
L 57.451793 59.68858 
L 57.516515 59.131988 
L 57.551818 59.131988 
L 57.563586 59.131988 
L 57.563586 57.739533 
L 57.640076 58.853608 
L 57.69303 58.853608 
L 57.728333 59.827693 
L 57.79894 59.827693 
L 57.834243 59.827693 
L 57.834243 59.68858 
L 57.934268 59.827693 
L 57.957803 59.827693 
L 57.99899 60.523051 
L 58.057829 60.523051 
L 58.246112 60.523051 
L 58.251996 58.296682 
L 58.352021 58.992805 
L 58.363789 58.992805 
L 58.469698 59.549453 
L 58.728587 59.549453 
L 58.728587 58.714398 
L 58.834496 59.131988 
L 58.858031 59.131988 
L 58.963941 60.384007 
L 58.963941 60.24495 
L 59.163991 60.24495 
L 59.163991 60.384007 
L 59.264017 60.105878 
L 59.264017 60.105878 
L 59.411113 60.105878 
L 59.411113 60.105878 
L 59.411113 59.966793 
L 59.517022 60.105878 
L 59.552325 60.105878 
L 59.593512 60.523051 
L 59.65235 60.523051 
L 60.223083 60.523051 
L 60.311341 61.357022 
L 60.328992 61.357022 
L 60.587882 61.357022 
L 60.64672 62.884668 
L 60.670255 61.357022 
L 60.711442 61.357022 
L 60.817351 61.079087 
L 60.817351 61.079087 
L 60.840887 61.079087 
L 60.846771 61.495968 
L 60.917377 59.827693 
L 60.946796 59.827693 
L 60.976215 59.827693 
L 60.993867 59.271157 
L 61.064473 59.271157 
L 61.10566 59.271157 
L 61.10566 59.410312 
L 61.211569 59.410312 
L 61.341014 59.410312 
L 61.435155 58.435935 
L 61.441039 58.435935 
L 61.452807 58.435935 
L 61.452807 58.018136 
L 61.476342 58.018136 
L 61.5646 58.018136 
L 61.5646 58.018136 
L 61.664625 59.131988 
L 61.670509 59.131988 
L 61.752883 59.131988 
L 61.752883 58.992805 
L 61.858792 59.131988 
L 61.864676 59.131988 
L 61.864676 58.992805 
L 61.958817 58.992805 
L 62.058842 58.992805 
L 62.058842 59.131988 
L 62.129449 57.460875 
L 62.141216 57.600211 
L 62.258893 57.600211 
L 62.30008 58.157416 
L 62.364802 57.739533 
L 62.417757 57.739533 
L 62.417757 57.739533 
L 62.523666 58.296682 
L 62.523666 58.296682 
L 62.558969 58.296682 
L 62.611924 58.992805 
L 62.653111 58.992805 
L 62.723717 58.992805 
L 62.800207 59.549453 
L 62.829626 59.410312 
L 62.859045 59.410312 
L 62.888464 59.966793 
L 62.959071 59.966793 
L 62.970838 59.966793 
L 62.970838 60.384007 
L 63.06498 60.384007 
L 63.194424 60.384007 
L 63.29445 59.966793 
L 63.300333 59.966793 
L 63.317985 59.966793 
L 63.412126 59.271157 
L 63.423894 59.271157 
L 63.57099 59.271157 
L 63.629829 58.157416 
L 63.671016 58.296682 
L 63.812228 58.296682 
L 63.865182 58.575173 
L 63.900486 58.575173 
L 63.976976 58.575173 
L 63.982859 59.410312 
L 64.082885 59.410312 
L 64.147607 59.410312 
L 64.188794 59.131988 
L 64.229981 59.131988 
L 64.324122 59.131988 
L 64.324122 58.992805 
L 64.430031 58.992805 
L 64.441799 58.992805 
L 64.506521 58.435935 
L 64.512405 58.435935 
L 64.56536 58.435935 
L 64.56536 88.599216 
L 64.671269 59.549453 
L 64.765411 59.549453 
L 64.765411 59.549453 
L 64.812481 58.714398 
L 64.87132 58.853608 
L 65.312608 58.853608 
L 65.37733 60.384007 
L 65.418517 60.384007 
L 65.442053 60.384007 
L 65.459704 59.271157 
L 65.542078 59.410312 
L 65.665639 59.410312 
L 65.665639 59.410312 
L 65.742129 62.329355 
L 65.748012 60.801097 
L 65.789199 60.801097 
L 65.789199 62.468204 
L 65.895109 61.773819 
L 65.906876 61.773819 
L 65.91276 60.662081 
L 66.012785 60.662081 
L 66.177533 60.662081 
L 66.265791 61.357022 
L 66.283442 61.218061 
L 66.777685 61.218061 
L 66.807104 61.634901 
L 66.883594 61.495968 
L 67.248393 61.495968 
L 67.277812 62.190492 
L 67.348418 62.190492 
L 67.495514 62.190492 
L 67.524933 61.634901 
L 67.601423 61.634901 
L 67.766171 61.634901 
L 67.766171 61.773819 
L 67.777939 61.357022 
L 67.87208 61.357022 
L 67.901499 61.357022 
L 67.901499 61.634901 
L 68.001525 61.495968 
L 68.030944 61.495968 
L 68.030944 61.634901 
L 68.136853 60.523051 
L 68.136853 60.523051 
L 68.154505 60.523051 
L 68.154505 60.384007 
L 68.260414 60.384007 
L 68.366323 60.384007 
L 68.442813 59.827693 
L 68.472232 60.105878 
L 68.507535 60.105878 
L 68.542838 60.384007 
L 68.607561 60.24495 
L 68.63698 60.24495 
L 68.63698 60.384007 
L 68.742889 60.384007 
L 68.813495 60.384007 
L 68.854682 61.079087 
L 68.919404 60.940099 
L 68.966475 60.940099 
L 68.966475 61.079087 
L 69.072384 61.079087 
L 69.084152 61.079087 
L 69.084152 61.079087 
L 69.084152 60.940099 
L 69.190061 60.940099 
L 69.2489 60.940099 
L 69.2489 60.801097 
L 69.348925 60.801097 
L 69.431299 60.801097 
L 69.484253 64.133312 
L 69.537208 63.994629 
L 69.543092 63.994629 
L 69.637233 61.079087 
L 69.649001 61.634901 
L 69.654885 61.634901 
L 69.666652 62.884668 
L 69.743142 50.756335 
L 69.75491 51.176312 
L 69.784329 51.176312 
L 69.784329 51.176312 
L 69.796097 50.47628 
L 69.890238 53.134541 
L 69.896122 53.134541 
L 69.896122 53.553805 
L 69.996148 50.756335 
L 69.996148 50.756335 
L 70.007915 50.756335 
L 70.007915 50.756335 
L 70.013799 47.953265 
L 70.107941 50.616315 
L 70.125592 50.616315 
L 70.225618 46.970866 
L 70.231501 46.970866 
L 70.237385 46.970866 
L 70.337411 50.756335 
L 70.360946 50.756335 
L 70.466855 49.215341 
L 70.466855 49.355501 
L 70.484507 49.355501 
L 70.502158 49.63578 
L 70.560997 46.690054 
L 70.590416 46.690054 
L 70.5963 46.690054 
L 70.684557 47.67265 
L 70.702209 47.67265 
L 70.731628 47.67265 
L 70.731628 47.532321 
L 70.837537 49.075166 
L 70.855189 49.075166 
L 70.855189 49.215341 
L 70.890492 48.374083 
L 70.961098 48.514328 
L 70.966982 48.514328 
L 71.05524 49.63578 
L 70.996401 48.374083 
L 71.072891 49.63578 
L 71.143497 49.63578 
L 71.143497 49.63578 
L 71.237639 51.036334 
L 71.249406 51.036334 
L 71.261174 51.036334 
L 71.361199 54.950443 
L 71.372967 54.950443 
L 71.384735 58.435935 
L 71.478876 57.600211 
L 71.48476 57.600211 
L 71.590669 62.884668 
L 71.590669 62.884668 
L 71.596553 62.884668 
L 71.602437 62.051615 
L 71.643624 67.595876 
L 71.696579 64.271981 
L 71.708346 64.271981 
L 71.708346 64.549277 
L 71.802488 63.301008 
L 71.843675 63.301008 
L 71.884862 64.133312 
L 71.9437 62.745861 
L 71.949584 62.745861 
L 71.973119 62.745861 
L 72.079028 64.826518 
L 72.079028 64.826518 
L 72.131983 64.826518 
L 72.220241 66.904056 
L 72.237892 66.76565 
L 72.24966 66.76565 
L 72.337917 68.287351 
L 72.355569 68.287351 
L 72.367337 68.287351 
L 72.396756 65.103703 
L 72.473246 65.103703 
L 72.514433 65.103703 
L 72.520317 66.627231 
L 72.608574 65.519377 
L 72.626226 65.519377 
L 72.655645 64.965117 
L 72.732135 65.519377 
L 72.779206 65.519377 
L 72.879231 63.855933 
L 72.885115 63.855933 
L 72.896883 63.855933 
L 72.896883 63.855933 
L 72.896883 63.717222 
L 73.002792 63.855933 
L 73.032211 63.855933 
L 73.102817 62.884668 
L 73.13812 62.884668 
L 73.144004 62.884668 
L 73.144004 62.745861 
L 73.238146 62.745861 
L 73.273449 62.745861 
L 73.273449 63.023462 
L 73.379358 62.884668 
L 73.397009 62.884668 
L 73.397009 62.884668 
L 73.397009 63.023462 
L 73.497035 62.884668 
L 73.52057 62.884668 
L 73.52057 63.023462 
L 73.526454 62.607039 
L 73.626479 62.607039 
L 73.632363 62.607039 
L 73.685318 63.43976 
L 73.726505 63.301008 
L 73.744156 63.301008 
L 73.744156 63.855933 
L 73.850065 63.855933 
L 73.855949 63.855933 
L 73.855949 63.162242 
L 73.950091 63.301008 
L 74.026581 63.301008 
L 74.026581 63.301008 
L 74.026581 63.162242 
L 74.103071 63.855933 
L 74.13249 63.855933 
L 74.156025 63.855933 
L 74.197212 64.271981 
L 74.261934 64.133312 
L 74.291354 64.133312 
L 74.338424 63.43976 
L 74.397263 63.578498 
L 74.444334 63.578498 
L 74.544359 64.549277 
L 74.550243 64.549277 
L 74.573778 64.549277 
L 74.573778 64.687904 
L 74.662036 63.301008 
L 74.679687 63.301008 
L 74.697339 63.301008 
L 74.697339 64.133312 
L 74.785596 62.745861 
L 74.79148 62.745861 
L 74.809132 62.745861 
L 74.809132 63.43976 
L 74.873854 62.190492 
L 74.915041 62.468204 
L 74.932693 62.468204 
L 75.032718 60.662081 
L 75.044486 60.662081 
L 75.056253 59.966793 
L 75.115092 59.966793 
L 75.156279 59.966793 
L 75.262188 61.357022 
L 75.262188 61.357022 
L 75.373981 61.357022 
L 75.373981 61.357022 
L 75.373981 61.495968 
L 75.450471 60.24495 
L 75.474006 60.24495 
L 75.574032 60.24495 
L 75.574032 60.105878 
L 75.679941 60.105878 
L 75.768198 60.105878 
L 75.768198 60.24495 
L 75.850572 55.787756 
L 75.868224 57.042784 
L 75.885875 57.042784 
L 75.885875 56.763986 
L 75.956481 57.182161 
L 75.991784 57.182161 
L 76.003552 57.182161 
L 76.032971 57.878841 
L 76.103577 56.206224 
L 76.109461 56.206224 
L 76.191835 56.206224 
L 76.297744 57.042784 
L 76.315396 57.042784 
L 76.315396 56.763986 
L 76.338931 57.321525 
L 76.403654 56.763986 
L 76.468376 56.763986 
L 76.468376 56.763986 
L 76.468376 56.903392 
L 76.568401 56.903392 
L 76.639007 56.903392 
L 76.733149 58.435935 
L 76.739033 58.435935 
L 76.809639 58.435935 
L 76.809639 58.435935 
L 76.90378 58.853608 
L 76.915548 58.853608 
L 76.933199 58.853608 
L 76.933199 58.992805 
L 77.027341 58.296682 
L 77.039109 58.296682 
L 77.180321 58.296682 
L 77.180321 58.157416 
L 77.28623 58.435935 
L 77.28623 58.435935 
L 77.303882 58.435935 
L 77.303882 58.296682 
L 77.309765 58.714398 
L 77.403907 58.714398 
L 77.509816 58.714398 
L 77.509816 58.575173 
L 77.609841 58.714398 
L 77.656912 58.714398 
L 77.721635 58.992805 
L 77.762821 58.296682 
L 77.82166 58.296682 
L 77.904034 58.853608 
L 77.927569 58.853608 
L 77.956988 58.853608 
L 77.956988 58.714398 
L 78.062897 58.714398 
L 78.12762 58.714398 
L 78.12762 58.714398 
L 78.12762 58.853608 
L 78.209994 58.853608 
L 78.25118 58.853608 
L 78.35709 60.523051 
L 78.35709 60.523051 
L 78.451231 60.523051 
L 78.451231 60.662081 
L 78.55714 60.523051 
L 78.563024 60.523051 
L 78.563024 60.523051 
L 78.598327 61.218061 
L 78.657166 61.218061 
L 78.721888 61.218061 
L 78.768959 61.912724 
L 78.816029 61.912724 
L 78.945474 61.912724 
L 78.945474 62.051615 
L 79.004312 61.773819 
L 79.051383 61.773819 
L 79.063151 61.773819 
L 79.063151 50.056093 
L 79.145525 63.162242 
L 79.16906 63.023462 
L 79.292621 63.023462 
L 79.292621 63.023462 
L 79.39853 63.855933 
L 79.39853 63.855933 
L 79.404414 63.855933 
L 79.404414 63.855933 
L 79.404414 63.994629 
L 79.498555 63.855933 
L 79.533858 63.855933 
L 79.533858 63.855933 
L 79.533858 63.717222 
L 79.633884 63.717222 
L 79.745677 63.717222 
L 79.833934 63.301008 
L 79.851586 63.301008 
L 79.85747 63.301008 
L 79.869237 62.607039 
L 79.939844 62.607039 
L 80.045753 62.607039 
L 80.145778 61.634901 
L 80.151662 61.634901 
L 80.263455 61.634901 
L 80.263455 61.634901 
L 80.263455 61.773819 
L 80.36348 61.773819 
L 80.445854 61.773819 
L 80.445854 61.773819 
L 80.510576 70.359702 
L 80.54588 62.607039 
L 80.722395 62.607039 
L 80.734162 61.634901 
L 80.828304 61.634901 
L 81.016587 61.634901 
L 81.016587 61.495968 
L 81.122496 61.495968 
L 81.20487 61.495968 
L 81.299011 63.301008 
L 81.310779 63.301008 
L 81.363734 63.301008 
L 81.393153 62.051615 
L 81.469643 62.190492 
L 81.493178 62.190492 
L 81.493178 62.607039 
L 81.599088 62.607039 
L 81.640274 62.607039 
L 81.640274 62.745861 
L 81.746184 62.745861 
L 81.787371 62.745861 
L 81.810906 72.980222 
L 81.89328 70.083568 
L 81.899164 70.083568 
L 81.899164 70.221642 
L 81.963886 64.965117 
L 82.005073 66.627231 
L 82.022724 66.627231 
L 82.04626 70.359702 
L 82.128633 69.669264 
L 82.134517 69.669264 
L 82.134517 68.97848 
L 82.228659 72.015347 
L 82.240427 71.877452 
L 82.258078 71.877452 
L 82.258078 71.877452 
L 82.346336 72.980222 
L 82.346336 71.739544 
L 82.363987 71.739544 
L 82.381639 71.739544 
L 82.452245 70.221642 
L 82.511083 70.221642 
L 82.511083 70.221642 
L 82.511083 70.359702 
L 82.581689 69.392992 
L 82.616992 70.359702 
L 82.646412 70.359702 
L 82.740553 70.083568 
L 82.752321 70.221642 
L 82.799392 70.221642 
L 82.905301 71.325736 
L 82.905301 71.187773 
L 82.922952 71.187773 
L 82.975907 68.97848 
L 83.017094 69.945481 
L 83.040629 69.945481 
L 83.099468 72.428947 
L 83.052397 69.807379 
L 83.140655 71.739544 
L 83.16419 71.739544 
L 83.16419 71.601622 
L 83.246564 71.877452 
L 83.270099 71.739544 
L 83.387776 71.739544 
L 83.387776 71.739544 
L 83.464266 72.428947 
L 83.493685 72.428947 
L 83.511337 72.428947 
L 83.528988 72.704612 
L 83.617246 72.704612 
L 83.629014 72.704612 
L 83.629014 72.980222 
L 83.734923 72.428947 
L 83.734923 72.566787 
L 83.805529 72.566787 
L 83.846716 70.911804 
L 83.911438 72.153227 
L 83.970277 72.153227 
L 84.011463 71.739544 
L 84.076186 71.739544 
L 84.087953 71.739544 
L 84.087953 71.325736 
L 84.187979 71.325736 
L 84.258585 71.325736 
L 84.276236 71.601622 
L 84.352726 71.601622 
L 84.541009 71.601622 
L 84.541009 71.601622 
L 84.641035 71.877452 
L 84.629267 70.635781 
L 84.641035 71.739544 
L 84.658686 71.739544 
L 84.693989 70.497749 
L 84.764595 70.497749 
L 84.794015 70.497749 
L 84.794015 70.497749 
L 84.794015 70.359702 
L 84.882272 70.911804 
L 84.899924 70.359702 
L 84.905808 70.359702 
L 84.964646 70.083568 
L 85.011717 70.083568 
L 85.023485 70.083568 
L 85.023485 70.083568 
L 85.023485 69.945481 
L 85.058788 70.359702 
L 85.129394 70.083568 
L 85.141161 70.083568 
L 85.141161 70.221642 
L 85.247071 70.083568 
L 85.264722 70.083568 
L 85.264722 70.221642 
L 85.329444 69.254835 
L 85.364748 69.254835 
L 85.500076 69.254835 
L 85.500076 69.254835 
L 85.500076 69.392992 
L 85.570682 68.70207 
L 85.605985 68.70207 
L 85.635404 68.70207 
L 85.73543 67.734199 
L 85.741314 67.734199 
L 85.7825 67.734199 
L 85.800152 68.287351 
L 85.88841 68.287351 
L 86.159066 68.287351 
L 86.229673 66.073414 
L 86.264976 66.211889 
L 86.288511 66.211889 
L 86.288511 66.211889 
L 86.323814 66.76565 
L 86.382653 66.488797 
L 86.400304 66.488797 
L 86.423839 66.76565 
L 86.482678 65.657907 
L 86.506213 65.657907 
L 86.512097 65.657907 
L 86.5474 65.242275 
L 86.618006 65.380833 
L 86.641542 65.380833 
L 86.641542 64.965117 
L 86.747451 65.242275 
L 86.765102 65.242275 
L 86.806289 66.627231 
L 86.865128 66.627231 
L 86.92985 66.627231 
L 86.953385 66.073414 
L 87.018108 66.76565 
L 87.029875 66.76565 
L 87.200507 66.76565 
L 87.200507 66.76565 
L 87.271113 67.180826 
L 87.306416 67.180826 
L 87.318184 67.180826 
L 87.335835 67.872508 
L 87.424093 66.211889 
L 87.424093 66.211889 
L 87.429977 66.211889 
L 87.441744 64.965117 
L 87.535886 65.103703 
L 87.594724 65.103703 
L 87.594724 64.826518 
L 87.688866 64.965117 
L 87.712401 64.965117 
L 87.712401 64.687904 
L 87.81831 64.687904 
L 87.8948 64.687904 
L 87.97129 62.051615 
L 87.988942 62.051615 
L 88.106619 62.051615 
L 88.106619 61.773819 
L 88.206644 62.051615 
L 88.230179 62.051615 
L 88.318437 63.162242 
L 88.336089 63.162242 
L 88.359624 63.162242 
L 88.365508 63.717222 
L 88.465533 63.301008 
L 88.500836 63.301008 
L 88.500836 63.023462 
L 88.606745 63.023462 
L 88.706771 63.023462 
L 88.800912 63.855933 
L 88.81268 63.855933 
L 88.824448 63.855933 
L 88.877402 64.410636 
L 88.930357 64.271981 
L 88.948008 64.271981 
L 88.948008 64.271981 
L 88.948008 64.410636 
L 89.053918 64.271981 
L 89.130408 64.271981 
L 89.130408 63.855933 
L 89.224549 63.855933 
L 89.312807 63.855933 
L 89.312807 63.43976 
L 89.418716 63.43976 
L 89.442251 63.43976 
L 89.489322 63.855933 
L 89.542277 63.855933 
L 89.565812 63.855933 
L 89.62465 64.826518 
L 89.671721 64.826518 
L 89.689373 64.826518 
L 89.689373 64.965117 
L 89.765863 64.965117 
L 89.801166 64.965117 
L 89.801166 64.826518 
L 89.895307 65.103703 
L 89.907075 65.103703 
L 89.912959 65.103703 
L 89.989449 65.934926 
L 90.018868 65.934926 
L 90.048287 65.934926 
L 90.148313 66.904056 
L 90.154196 66.904056 
L 90.242454 66.904056 
L 90.242454 66.904056 
L 90.307176 67.45754 
L 90.348363 67.45754 
L 90.395434 67.45754 
L 90.424853 69.254835 
L 90.501343 69.116665 
L 90.518995 69.116665 
L 90.518995 68.563844 
L 90.61902 69.531135 
L 90.624904 69.116665 
L 90.636672 69.116665 
L 90.636672 68.70207 
L 90.724929 69.254835 
L 90.742581 69.254835 
L 90.783768 69.254835 
L 90.783768 69.392992 
L 90.872025 67.042448 
L 90.889677 67.042448 
L 90.948515 67.042448 
L 90.948515 67.180826 
L 91.054424 67.042448 
L 91.060308 67.042448 
L 91.07796 65.657907 
L 91.166217 65.796423 
L 91.254475 65.796423 
L 91.295662 64.965117 
L 91.3545 65.380833 
L 91.395687 65.380833 
L 91.395687 65.103703 
L 91.489829 65.103703 
L 91.672228 65.103703 
L 91.672228 65.103703 
L 91.672228 65.242275 
L 91.778137 65.242275 
L 91.984072 65.242275 
L 92.001723 65.519377 
L 92.089981 65.380833 
L 92.095865 65.380833 
L 92.190006 64.410636 
L 92.19589 64.410636 
L 92.207658 64.410636 
L 92.207658 64.549277 
L 92.313567 64.549277 
L 92.337102 64.549277 
L 92.413592 64.133312 
L 92.437128 64.133312 
L 92.472431 64.133312 
L 92.57834 63.717222 
L 92.619527 63.717222 
L 92.619527 64.410636 
L 92.725436 63.717222 
L 92.737204 63.717222 
L 92.737204 64.133312 
L 92.825461 63.162242 
L 92.837229 63.162242 
L 92.913719 63.162242 
L 92.913719 62.884668 
L 93.019628 62.884668 
L 93.102002 62.884668 
L 93.137305 62.329355 
L 93.202027 62.329355 
L 93.23733 62.329355 
L 93.31382 62.051615 
L 93.337356 62.051615 
L 93.349123 62.051615 
L 93.355007 61.773819 
L 93.449149 61.773819 
L 93.525639 61.773819 
L 93.525639 61.634901 
L 93.608013 61.634901 
L 93.655083 61.634901 
L 93.678619 61.357022 
L 93.760993 61.357022 
L 93.778644 61.357022 
L 93.778644 61.218061 
L 93.872786 61.357022 
L 94.090488 61.357022 
L 94.090488 61.357022 
L 94.119907 59.271157 
L 94.196397 59.410312 
L 94.214049 59.410312 
L 94.284655 60.105878 
L 94.319958 59.966793 
L 94.337609 59.966793 
L 94.408215 61.495968 
L 94.431751 61.495968 
L 94.596498 61.495968 
L 94.625918 61.218061 
L 94.702408 61.218061 
L 94.737711 61.218061 
L 94.820084 60.384007 
L 94.831852 60.384007 
L 94.861271 60.384007 
L 94.890691 59.410312 
L 94.961297 59.410312 
L 94.984832 59.410312 
L 94.990716 59.68858 
L 95.049554 58.435935 
L 95.07309 58.435935 
L 95.096625 58.435935 
L 95.184883 59.410312 
L 95.19665 59.410312 
L 95.243721 59.410312 
L 95.279024 60.523051 
L 95.320211 60.523051 
L 95.367282 60.523051 
L 95.367282 60.801097 
L 95.473191 60.801097 
L 95.596752 60.801097 
L 95.679126 61.218061 
L 95.679126 61.218061 
L 95.890944 61.218061 
L 95.890944 61.079087 
L 95.926247 61.495968 
L 95.990969 61.495968 
L 96.202788 61.495968 
L 96.202788 61.634901 
L 96.279278 61.634901 
L 96.391071 61.634901 
L 96.396955 62.051615 
L 96.485212 62.051615 
L 96.655844 62.051615 
L 96.755869 61.079087 
L 96.87943 61.079087 
L 96.87943 61.218061 
L 96.979455 61.218061 
L 97.097132 61.218061 
L 97.097132 61.079087 
L 97.120667 61.357022 
L 97.191273 61.357022 
L 97.444279 61.357022 
L 97.444279 61.495968 
L 97.550188 61.357022 
L 97.667865 61.357022 
L 97.738471 62.329355 
L 97.762006 62.329355 
L 97.779658 62.329355 
L 97.779658 62.190492 
L 97.873799 62.190492 
L 97.92087 62.190492 
L 97.92087 62.329355 
L 98.026779 61.912724 
L 98.026779 61.912724 
L 98.409229 61.912724 
L 98.409229 62.051615 
L 98.515138 62.051615 
L 98.550441 62.051615 
L 98.550441 62.051615 
L 98.550441 61.912724 
L 98.650467 61.912724 
L 98.668118 61.912724 
L 98.668118 62.190492 
L 98.774027 62.190492 
L 98.956427 62.190492 
L 99.0388 63.43976 
L 99.050568 63.43976 
L 99.079987 63.43976 
L 99.079987 63.301008 
L 99.185896 63.301008 
L 99.244735 63.301008 
L 99.244735 63.43976 
L 99.350644 63.43976 
L 99.674256 63.43976 
L 99.768397 61.912724 
L 99.780165 61.912724 
L 99.891958 61.912724 
L 99.968448 61.495968 
L 99.997867 61.495968 
L 100.345014 61.495968 
L 100.345014 61.357022 
L 100.439155 61.357022 
L 100.545064 61.357022 
L 100.545064 61.357022 
L 100.615671 61.079087 
L 100.650974 61.218061 
L 100.656857 61.218061 
L 100.656857 61.357022 
L 100.733347 61.357022 
L 100.76865 61.357022 
L 100.76865 61.495968 
L 100.868676 61.495968 
L 100.880444 61.495968 
L 100.968701 63.162242 
L 100.974585 63.162242 
L 101.033423 63.162242 
L 101.092262 64.549277 
L 101.139333 63.717222 
L 101.38057 63.717222 
L 101.38057 63.717222 
L 101.38057 63.578498 
L 101.486479 63.717222 
L 101.510015 63.717222 
L 101.53355 64.410636 
L 101.615924 64.410636 
L 101.633576 64.410636 
L 101.727717 65.796423 
L 101.727717 65.796423 
L 101.798323 65.796423 
L 101.798323 65.796423 
L 101.880697 64.549277 
L 101.898348 64.549277 
L 102.074864 64.549277 
L 102.074864 64.687904 
L 102.180773 64.549277 
L 102.192541 64.549277 
L 102.192541 64.687904 
L 102.29845 64.133312 
L 102.339637 64.133312 
L 102.339637 64.271981 
L 102.345521 63.994629 
L 102.445546 63.994629 
L 102.516152 63.994629 
L 102.569107 62.468204 
L 102.622061 62.607039 
L 102.692667 62.607039 
L 102.792693 61.218061 
L 102.810344 61.218061 
L 102.83388 53.693532 
L 102.916253 55.927259 
L 102.933905 55.927259 
L 103.004511 56.903392 
L 103.039814 56.903392 
L 103.045698 56.903392 
L 103.045698 56.763986 
L 103.081001 57.878841 
L 103.145723 57.878841 
L 103.157491 57.878841 
L 103.192794 56.763986 
L 103.2634 56.763986 
L 103.275168 56.763986 
L 103.275168 56.345685 
L 103.345774 57.182161 
L 103.381077 56.903392 
L 103.386961 56.903392 
L 103.386961 57.182161 
L 103.49287 56.903392 
L 103.551709 56.903392 
L 103.651734 55.648239 
L 103.657618 55.648239 
L 103.781178 55.648239 
L 103.781178 55.787756 
L 103.881204 55.787756 
L 103.904739 55.787756 
L 103.904739 55.927259 
L 103.998881 55.927259 
L 104.051835 55.927259 
L 104.051835 55.927259 
L 104.051835 56.066749 
L 104.151861 55.927259 
L 104.298957 55.927259 
L 104.298957 55.927259 
L 104.363679 56.624566 
L 104.404866 56.624566 
L 104.416634 56.624566 
L 104.416634 56.903392 
L 104.522543 56.903392 
L 104.681407 56.903392 
L 104.787316 57.460875 
L 104.834387 57.460875 
L 104.834387 57.600211 
L 104.863806 57.321525 
L 104.940296 57.321525 
L 104.952063 57.321525 
L 104.952063 58.992805 
L 105.034437 57.321525 
L 105.081508 57.321525 
L 105.099159 57.878841 
L 105.105043 57.042784 
L 105.181533 57.042784 
L 105.263907 57.042784 
L 105.263907 57.042784 
L 105.287442 56.066749 
L 105.369816 56.066749 
L 105.399236 56.066749 
L 105.411003 55.369162 
L 105.505145 55.648239 
L 105.575751 55.648239 
L 105.575751 55.787756 
L 105.68166 55.648239 
L 105.746382 55.648239 
L 105.852291 55.229603 
L 105.852291 55.229603 
L 105.917014 55.229603 
L 106.005271 53.27431 
L 106.022923 53.27431 
L 106.1406 53.27431 
L 106.1406 40.638994 
L 106.146484 53.693532 
L 106.246509 53.693532 
L 106.275928 53.693532 
L 106.29358 54.391955 
L 106.375954 54.391955 
L 106.399489 54.391955 
L 106.423024 54.671227 
L 106.487747 54.671227 
L 106.576004 54.671227 
L 106.593656 55.09003 
L 106.67603 54.950443 
L 106.758403 54.950443 
L 106.781939 55.508707 
L 106.864313 55.508707 
L 106.964338 55.508707 
L 106.964338 55.508707 
L 106.964338 55.369162 
L 107.034944 55.648239 
L 107.070247 55.648239 
L 107.205576 55.648239 
L 107.205576 55.787756 
L 107.305601 55.648239 
L 107.340904 55.648239 
L 107.370323 55.927259 
L 107.446813 54.671227 
L 107.470349 54.671227 
L 107.470349 54.810842 
L 107.576258 54.810842 
L 107.599793 54.810842 
L 107.617445 54.252299 
L 107.705702 54.531598 
L 107.723354 54.531598 
L 107.723354 54.671227 
L 107.829263 54.671227 
L 107.846914 54.671227 
L 107.882218 55.369162 
L 107.952824 55.369162 
L 107.964591 55.369162 
L 107.999894 56.066749 
L 108.058733 56.066749 
L 108.076384 56.066749 
L 108.076384 56.066749 
L 108.076384 56.485133 
L 108.17641 56.485133 
L 108.247016 56.485133 
L 108.247016 56.763986 
L 108.341157 56.763986 
L 108.511789 56.763986 
L 108.511789 56.903392 
L 108.617698 56.903392 
L 108.741259 56.903392 
L 108.741259 57.321525 
L 108.847168 57.182161 
L 108.853052 57.182161 
L 108.864819 56.624566 
L 108.958961 56.624566 
L 109.06487 56.624566 
L 109.06487 56.485133 
L 109.170779 56.485133 
L 109.200199 56.485133 
L 109.200199 56.345685 
L 109.259037 56.345685 
L 109.464972 56.345685 
L 109.464972 56.345685 
L 109.464972 55.508707 
L 109.553229 55.648239 
L 109.688558 55.648239 
L 109.688558 55.648239 
L 109.688558 55.508707 
L 109.788583 56.066749 
L 109.788583 56.066749 
L 109.847421 56.066749 
L 109.947447 53.553805 
L 109.953331 53.553805 
L 109.959214 53.553805 
L 110.065124 55.787756 
L 110.029821 50.47628 
L 110.065124 55.787756 
L 110.106311 55.787756 
L 110.21222 52.715151 
L 110.218104 52.715151 
L 110.223987 52.155769 
L 110.282826 52.155769 
L 110.353432 52.155769 
L 110.353432 51.736086 
L 110.359316 52.435488 
L 110.459341 52.155769 
L 110.471109 52.155769 
L 110.471109 52.015889 
L 110.56525 52.015889 
L 110.588786 52.015889 
L 110.588786 51.875994 
L 110.688811 53.27431 
L 110.694695 53.27431 
L 110.782953 53.27431 
L 110.782953 53.414064 
L 110.888862 53.414064 
L 110.894746 53.414064 
L 110.9477 53.972943 
L 111.000655 53.972943 
L 111.077145 53.972943 
L 111.106564 54.531598 
L 111.183054 54.531598 
L 111.371337 54.531598 
L 111.371337 54.391955 
L 111.471362 54.531598 
L 111.494898 54.531598 
L 111.547852 52.854962 
L 111.589039 52.854962 
L 111.665529 52.854962 
L 111.665529 52.854962 
L 111.665529 52.155769 
L 111.765554 52.295636 
L 111.794974 52.295636 
L 111.877347 53.972943 
L 111.830277 51.176312 
L 111.900883 53.27431 
L 111.912651 53.27431 
L 111.924418 51.036334 
L 112.01856 51.036334 
L 112.036211 51.036334 
L 112.036211 51.036334 
L 112.106817 49.63578 
L 112.136237 49.775898 
L 112.206843 49.775898 
L 112.259797 50.896342 
L 112.312752 50.756335 
L 112.342171 50.756335 
L 112.342171 50.756335 
L 112.44808 52.015889 
L 112.377474 50.19617 
L 112.44808 52.015889 
L 112.548106 52.015889 
L 112.589293 52.854962 
L 112.654015 52.295636 
L 112.695202 52.295636 
L 112.695202 52.295636 
L 112.695202 52.155769 
L 112.801111 52.155769 
L 112.83053 52.155769 
L 112.930556 49.355501 
L 112.936439 49.355501 
L 112.995278 49.355501 
L 113.030581 49.075166 
L 113.101187 49.215341 
L 113.112955 49.215341 
L 113.189445 49.916003 
L 113.21298 49.916003 
L 113.248283 49.916003 
L 113.248283 50.19617 
L 113.354192 50.19617 
L 113.371844 50.19617 
L 113.471869 51.176312 
L 113.477753 51.176312 
L 113.560127 51.176312 
L 113.560127 51.456227 
L 113.666036 51.456227 
L 114.019067 51.456227 
L 114.124976 52.295636 
L 114.13086 52.295636 
L 114.13086 52.295636 
L 114.172047 53.134541 
L 114.236769 53.134541 
L 114.260304 53.134541 
L 114.260304 53.134541 
L 114.336794 53.693532 
L 114.36033 53.693532 
L 114.436819 53.693532 
L 114.536845 54.671227 
L 114.542729 54.671227 
L 114.660406 54.671227 
L 114.760431 56.624566 
L 114.766315 56.485133 
L 114.842805 56.485133 
L 114.883992 55.648239 
L 114.948714 55.648239 
L 114.978133 55.648239 
L 115.072275 55.927259 
L 115.084042 55.927259 
L 115.089926 55.927259 
L 115.089926 55.927259 
L 115.166416 55.508707 
L 115.195835 55.648239 
L 115.237022 55.648239 
L 115.237022 55.648239 
L 115.342931 54.810842 
L 115.342931 54.810842 
L 115.348815 54.810842 
L 115.407654 52.435488 
L 115.448841 52.575327 
L 115.466492 52.575327 
L 115.537098 53.27431 
L 115.572401 53.27431 
L 115.654775 53.27431 
L 115.654775 53.414064 
L 115.7548 53.27431 
L 115.878361 53.27431 
L 115.878361 53.27431 
L 115.98427 52.575327 
L 116.01369 52.575327 
L 116.01369 52.575327 
L 116.01369 52.435488 
L 116.096063 53.414064 
L 116.113715 53.414064 
L 116.207856 53.414064 
L 116.207856 53.553805 
L 116.313766 53.553805 
L 116.372604 53.553805 
L 116.454978 53.972943 
L 116.466746 53.833244 
L 116.496165 53.833244 
L 116.578539 54.252299 
L 116.602074 54.252299 
L 116.690332 54.252299 
L 116.725635 54.531598 
L 116.731519 53.833244 
L 116.796241 53.833244 
L 116.890382 53.833244 
L 116.890382 53.833244 
L 116.896266 54.252299 
L 116.996292 54.112628 
L 117.013943 54.112628 
L 117.084549 55.229603 
L 117.119852 55.229603 
L 117.178691 55.229603 
L 117.278716 58.853608 
L 117.2846 58.714398 
L 117.290484 58.714398 
L 117.290484 58.992805 
L 117.396393 58.714398 
L 117.402277 58.714398 
L 117.461115 58.018136 
L 117.508186 58.157416 
L 117.567024 58.157416 
L 117.567024 58.018136 
L 117.66705 58.018136 
L 117.690585 58.018136 
L 117.690585 58.296682 
L 117.796494 58.018136 
L 117.802378 58.018136 
L 117.802378 57.878841 
L 117.908287 57.878841 
L 117.984777 57.878841 
L 118.0495 58.435935 
L 118.090686 58.435935 
L 118.131873 58.435935 
L 118.155409 58.853608 
L 118.208363 58.853608 
L 118.255434 58.853608 
L 118.331924 58.575173 
L 118.361343 58.575173 
L 118.431949 58.575173 
L 118.484904 58.018136 
L 118.531975 58.157416 
L 118.573162 58.157416 
L 118.573162 58.157416 
L 118.573162 57.600211 
L 118.667303 58.157416 
L 118.802632 58.157416 
L 118.855586 58.714398 
L 118.902657 58.714398 
L 118.996798 58.714398 
L 119.096824 57.460875 
L 119.102708 57.739533 
L 119.108591 57.739533 
L 119.108591 58.018136 
L 119.143894 57.321525 
L 119.214501 57.321525 
L 119.238036 57.321525 
L 119.238036 57.321525 
L 119.308642 57.878841 
L 119.338061 57.739533 
L 119.355713 57.739533 
L 119.367481 58.296682 
L 119.414551 58.296682 
L 119.514577 58.296682 
L 119.614602 55.648239 
L 119.620486 55.648239 
L 119.685208 55.648239 
L 119.74993 54.391955 
L 119.791117 54.531598 
L 119.802885 54.531598 
L 119.891143 53.972943 
L 119.897026 53.972943 
L 119.9794 53.972943 
L 119.9794 54.112628 
L 120.079426 53.693532 
L 120.079426 53.833244 
L 120.173567 53.833244 
L 120.244173 54.531598 
L 120.279476 54.531598 
L 120.338315 54.531598 
L 120.420689 58.157416 
L 120.444224 56.903392 
L 120.51483 56.903392 
L 120.51483 57.182161 
L 120.608972 57.182161 
L 120.650158 57.182161 
L 120.661926 56.763986 
L 120.7443 56.763986 
L 120.861977 56.763986 
L 120.861977 56.624566 
L 120.89728 56.624566 
L 120.991421 56.624566 
L 120.991421 56.624566 
L 121.079679 57.600211 
L 121.091447 57.600211 
L 121.132634 57.600211 
L 121.132634 57.321525 
L 121.173821 58.296682 
L 121.232659 58.296682 
L 121.256194 58.296682 
L 121.309149 58.575173 
L 121.362104 57.878841 
L 121.362104 57.878841 
L 121.379755 57.878841 
L 121.47978 57.182161 
L 121.47978 57.182161 
L 121.503316 57.182161 
L 121.503316 57.042784 
L 121.591574 57.182161 
L 121.66218 57.182161 
L 121.697483 58.992805 
L 121.762205 58.853608 
L 121.797508 58.853608 
L 121.897533 58.575173 
L 121.915185 58.575173 
L 121.915185 58.296682 
L 122.021094 59.271157 
L 122.056397 59.271157 
L 122.056397 59.131988 
L 122.127003 59.549453 
L 122.150539 59.549453 
L 122.221145 59.549453 
L 122.274099 58.992805 
L 122.32117 59.131988 
L 122.332938 59.131988 
L 122.332938 58.992805 
L 122.438847 59.549453 
L 122.444731 59.549453 
L 122.503569 62.607039 
L 122.55064 62.329355 
L 122.685968 62.329355 
L 122.685968 62.329355 
L 122.685968 62.468204 
L 122.715388 62.051615 
L 122.785994 62.051615 
L 122.797761 62.051615 
L 122.880135 60.105878 
L 122.903671 60.105878 
L 122.921322 60.105878 
L 122.968393 58.435935 
L 123.00958 58.575173 
L 123.033115 58.575173 
L 123.033115 58.575173 
L 123.080186 58.992805 
L 123.139024 58.992805 
L 123.203747 58.992805 
L 123.203747 59.271157 
L 123.303772 59.271157 
L 123.36261 59.271157 
L 123.36261 59.131988 
L 123.397914 59.410312 
L 123.450868 59.410312 
L 123.627383 59.410312 
L 123.721525 60.523051 
L 123.733293 60.523051 
L 123.809783 60.523051 
L 123.833318 61.079087 
L 123.915692 61.079087 
L 123.956879 61.079087 
L 123.962763 60.801097 
L 124.05102 60.801097 
L 124.227536 60.801097 
L 124.315793 60.24495 
L 124.333445 60.24495 
L 124.339329 60.24495 
L 124.339329 60.105878 
L 124.445238 60.105878 
L 124.521728 60.105878 
L 124.521728 59.966793 
L 124.627637 60.523051 
L 124.721778 60.523051 
L 124.721778 60.523051 
L 124.727662 60.105878 
L 124.821804 60.24495 
L 124.868874 60.24495 
L 124.868874 60.24495 
L 124.957132 60.801097 
L 124.9689 60.801097 
L 125.263092 60.801097 
L 125.263092 60.940099 
L 125.363117 60.523051 
L 125.369001 60.523051 
L 125.574936 60.523051 
L 125.674961 58.992805 
L 125.680845 59.131988 
L 125.686729 59.131988 
L 125.686729 59.271157 
L 125.78087 58.575173 
L 125.786754 58.575173 
L 125.910315 58.575173 
L 125.951502 59.827693 
L 126.01034 59.549453 
L 126.022108 59.549453 
L 126.069179 54.112628 
L 126.128017 55.229603 
L 126.133901 55.229603 
L 126.23981 56.345685 
L 126.23981 56.345685 
L 126.245694 56.345685 
L 126.257462 56.763986 
L 126.345719 56.763986 
L 126.381022 56.763986 
L 126.463396 57.042784 
L 126.486931 56.624566 
L 126.486931 56.624566 
L 126.534002 56.624566 
L 126.534002 56.485133 
L 126.639911 56.485133 
L 126.675214 56.485133 
L 126.745821 57.600211 
L 126.77524 57.321525 
L 126.787008 57.321525 
L 126.85173 56.206224 
L 126.881149 56.206224 
L 126.910568 56.206224 
L 126.92822 55.508707 
L 127.010594 55.787756 
L 127.028245 55.787756 
L 127.098851 51.875994 
L 127.134154 51.875994 
L 127.240063 51.875994 
L 127.31067 53.134541 
L 127.345973 53.134541 
L 127.493069 53.134541 
L 127.493069 37.81567 
L 127.598978 52.854962 
L 127.61663 52.854962 
L 127.61663 52.854962 
L 127.716655 50.616315 
L 127.622513 53.27431 
L 127.722539 50.616315 
L 127.728423 50.616315 
L 127.799029 51.736086 
L 127.834332 51.736086 
L 127.89317 51.736086 
L 127.946125 52.435488 
L 127.999079 52.435488 
L 128.034382 52.435488 
L 128.034382 52.295636 
L 128.134408 52.994758 
L 128.146175 52.994758 
L 128.187362 53.27431 
L 128.252085 53.27431 
L 128.446251 53.27431 
L 128.528625 54.531598 
L 128.552161 54.531598 
L 128.699257 54.531598 
L 128.699257 54.671227 
L 128.781631 54.391955 
L 128.805166 54.391955 
L 128.822817 54.391955 
L 128.928727 55.229603 
L 129.005217 55.229603 
L 129.005217 55.508707 
L 129.111126 55.508707 
L 129.122893 55.508707 
L 129.122893 55.508707 
L 129.122893 55.648239 
L 129.211151 54.671227 
L 129.228803 54.671227 
L 129.24057 54.671227 
L 129.322944 53.693532 
L 129.334712 53.693532 
L 129.428853 53.693532 
L 129.428853 53.414064 
L 129.534763 53.414064 
L 129.740697 53.414064 
L 129.740697 53.553805 
L 129.840722 53.414064 
L 129.864258 53.414064 
L 129.970167 53.833244 
L 129.970167 53.833244 
L 129.976051 53.833244 
L 129.993702 54.391955 
L 130.08196 54.391955 
L 130.423223 54.391955 
L 130.505597 55.229603 
L 130.529132 55.229603 
L 130.582087 55.229603 
L 130.635041 55.508707 
L 130.687996 55.508707 
L 130.899814 55.508707 
L 130.899814 55.648239 
L 130.99984 55.648239 
L 131.1234 55.648239 
L 131.223426 56.624566 
L 131.246961 56.624566 
L 131.335219 59.131988 
L 131.346986 59.131988 
L 131.399941 59.131988 
L 131.399941 59.68858 
L 131.488199 59.410312 
L 131.523502 59.410312 
L 131.523502 59.549453 
L 131.629411 59.410312 
L 131.65883 59.410312 
L 131.65883 59.410312 
L 131.65883 59.271157 
L 131.764739 59.410312 
L 131.870649 59.410312 
L 131.870649 59.271157 
L 131.970674 59.410312 
L 132.035396 59.410312 
L 132.129538 59.131988 
L 132.135422 59.131988 
L 132.164841 59.131988 
L 132.164841 59.271157 
L 132.241331 59.271157 
L 132.364891 59.271157 
L 132.364891 59.271157 
L 132.447265 58.714398 
L 132.470801 58.714398 
L 132.488452 58.714398 
L 132.488452 58.992805 
L 132.582594 58.992805 
L 132.635548 58.992805 
L 132.712038 59.68858 
L 132.741457 59.68858 
L 132.77676 59.68858 
L 132.77676 59.271157 
L 132.859134 59.271157 
L 133.065069 59.271157 
L 133.153326 57.460875 
L 133.165094 57.460875 
L 133.182746 57.460875 
L 133.212165 56.066749 
L 133.276887 56.066749 
L 133.323958 56.066749 
L 133.365145 55.787756 
L 133.429867 55.787756 
L 133.46517 55.787756 
L 133.553428 58.714398 
L 133.571079 58.714398 
L 133.576963 58.714398 
L 133.576963 58.575173 
L 133.676989 58.853608 
L 133.682872 58.853608 
L 133.753479 58.853608 
L 133.794665 57.739533 
L 133.84762 57.739533 
L 133.929994 57.739533 
L 133.965297 56.903392 
L 134.024135 57.182161 
L 134.106509 57.182161 
L 134.106509 57.042784 
L 134.212418 57.182161 
L 134.359514 57.182161 
L 134.424237 58.714398 
L 134.465424 58.714398 
L 134.500727 58.714398 
L 134.500727 58.018136 
L 134.5831 58.018136 
L 134.677242 58.018136 
L 134.677242 57.600211 
L 134.783151 57.600211 
L 134.789035 57.600211 
L 134.800803 56.624566 
L 134.883177 56.763986 
L 135.377419 56.763986 
L 135.377419 56.624566 
L 135.430374 56.903392 
L 135.483329 56.903392 
L 135.50098 56.903392 
L 135.542167 58.018136 
L 135.595122 57.878841 
L 135.683379 57.878841 
L 135.718682 58.157416 
L 135.789288 58.157416 
L 135.895198 58.157416 
L 135.989339 58.714398 
L 136.001107 58.714398 
L 136.012875 58.714398 
L 136.048178 58.992805 
L 136.118784 58.992805 
L 136.642446 58.992805 
L 136.642446 58.853608 
L 136.748355 58.853608 
L 136.971941 58.853608 
L 137.024896 58.435935 
L 137.071966 58.435935 
L 137.148456 58.435935 
L 137.15434 58.157416 
L 137.23083 58.157416 
L 137.30732 58.157416 
L 137.324972 58.992805 
L 137.407346 58.992805 
L 137.525022 58.992805 
L 137.53679 59.271157 
L 137.630932 59.271157 
L 137.813331 59.271157 
L 137.813331 59.271157 
L 137.883937 60.24495 
L 137.91924 60.24495 
L 138.201664 60.24495 
L 138.201664 60.24495 
L 138.201664 60.105878 
L 138.307574 60.24495 
L 138.325225 60.24495 
L 138.325225 60.24495 
L 138.325225 60.384007 
L 138.42525 60.384007 
L 138.466437 60.384007 
L 138.472321 60.662081 
L 138.566463 60.662081 
L 138.742978 60.662081 
L 138.8077 63.717222 
L 138.848887 63.717222 
L 138.878306 63.717222 
L 138.978332 62.745861 
L 138.978332 62.745861 
L 139.03717 62.745861 
L 139.03717 62.745861 
L 139.03717 62.051615 
L 139.143079 62.190492 
L 139.160731 62.190492 
L 139.160731 62.329355 
L 139.260756 61.357022 
L 139.272524 61.357022 
L 139.272524 61.079087 
L 139.378433 61.079087 
L 139.449039 61.079087 
L 139.449039 61.218061 
L 139.519645 61.218061 
L 139.643206 61.218061 
L 139.672625 61.773819 
L 139.749115 61.773819 
L 140.125681 61.773819 
L 140.125681 61.773819 
L 140.125681 61.912724 
L 140.225707 61.773819 
L 140.419873 61.773819 
L 140.419873 61.912724 
L 140.49048 61.357022 
L 140.514015 61.357022 
L 140.625808 61.357022 
L 140.666995 62.051615 
L 140.731717 61.912724 
L 140.76702 61.912724 
L 140.76702 61.773819 
L 140.867046 61.912724 
L 141.014142 61.912724 
L 141.014142 62.051615 
L 141.120051 62.051615 
L 141.249495 62.051615 
L 141.331869 63.43976 
L 141.343637 63.43976 
L 141.361289 63.43976 
L 141.361289 63.855933 
L 141.467198 63.855933 
L 141.514268 63.855933 
L 141.526036 69.807379 
L 141.614294 68.840282 
L 141.626061 68.840282 
L 141.626061 68.840282 
L 141.626061 68.70207 
L 141.731971 68.70207 
L 141.737854 68.70207 
L 141.76139 70.7738 
L 141.83788 68.149084 
L 141.843764 68.287351 
L 141.902602 68.287351 
L 141.920254 68.70207 
L 142.008511 68.563844 
L 142.14384 68.563844 
L 142.14384 68.70207 
L 142.173259 68.425605 
L 142.249749 68.425605 
L 142.273284 68.425605 
L 142.273284 68.563844 
L 142.379193 68.563844 
L 142.402729 68.563844 
L 142.402729 68.563844 
L 142.402729 68.70207 
L 142.502754 68.70207 
L 142.543941 68.70207 
L 142.543941 68.840282 
L 142.64985 68.425605 
L 142.655734 68.425605 
L 142.685153 67.595876 
L 142.761643 67.734199 
L 142.796946 67.734199 
L 142.796946 67.595876 
L 142.902856 67.595876 
L 142.979346 67.595876 
L 142.991113 67.31919 
L 143.079371 67.31919 
L 143.120558 67.31919 
L 143.120558 67.45754 
L 143.226467 67.45754 
L 143.244118 67.45754 
L 143.244118 67.45754 
L 143.244118 67.31919 
L 143.314725 67.734199 
L 143.320608 67.595876 
L 143.832503 67.595876 
L 143.938412 65.934926 
L 143.938412 65.934926 
L 143.944296 65.934926 
L 143.979599 65.242275 
L 144.050205 65.380833 
L 144.109044 65.380833 
L 144.114927 65.103703 
L 144.214953 65.103703 
L 144.33263 65.103703 
L 144.33263 65.380833 
L 144.438539 65.380833 
L 144.556216 65.380833 
L 144.656241 64.826518 
L 144.679776 64.826518 
L 144.768034 63.994629 
L 144.785686 64.133312 
L 144.856292 64.133312 
L 144.938665 62.745861 
L 144.944549 62.745861 
L 144.985736 62.745861 
L 145.009272 62.051615 
L 145.085762 62.051615 
L 145.338767 62.051615 
L 145.385838 62.468204 
L 145.438792 62.468204 
L 145.532934 62.468204 
L 145.532934 62.468204 
L 145.574121 62.884668 
L 145.632959 62.884668 
L 145.768287 62.884668 
L 145.838894 63.994629 
L 145.874197 63.994629 
L 145.88008 63.994629 
L 145.891848 63.578498 
L 145.962454 63.578498 
L 146.580258 63.578498 
L 146.603793 63.855933 
L 146.674399 63.855933 
L 147.315738 63.855933 
L 147.40988 64.133312 
L 147.421648 64.133312 
L 147.427531 64.133312 
L 147.445183 64.826518 
L 147.509905 64.826518 
L 147.580511 64.826518 
L 147.592279 65.242275 
L 147.680537 65.242275 
L 147.757027 65.242275 
L 147.757027 65.380833 
L 147.862936 65.242275 
L 147.933542 65.242275 
L 147.933542 65.380833 
L 147.951193 65.103703 
L 148.039451 65.103703 
L 148.163012 65.103703 
L 148.163012 64.965117 
L 148.210083 65.380833 
L 148.268921 65.380833 
L 148.333643 65.380833 
L 148.333643 64.965117 
L 148.433669 64.965117 
L 148.480739 64.965117 
L 148.492507 64.133312 
L 148.563113 64.133312 
L 148.839654 64.133312 
L 148.839654 64.271981 
L 148.945563 64.271981 
L 148.951447 64.271981 
L 148.963215 63.855933 
L 149.057356 63.855933 
L 149.086775 63.855933 
L 149.092659 64.965117 
L 149.157381 64.965117 
L 149.198568 64.965117 
L 149.198568 65.380833 
L 149.298594 65.380833 
L 149.498644 65.380833 
L 149.498644 67.734199 
L 149.59867 66.76565 
L 149.745766 66.76565 
L 149.834023 66.211889 
L 149.845791 66.211889 
L 150.039958 66.211889 
L 150.039958 66.35035 
L 150.1341 66.35035 
L 150.216473 66.35035 
L 150.216473 66.211889 
L 150.222357 68.010803 
L 150.316499 67.595876 
L 150.392989 67.595876 
L 150.392989 67.595876 
L 150.392989 67.45754 
L 150.498898 67.45754 
L 150.569504 67.45754 
L 150.628342 64.271981 
L 150.669529 64.271981 
L 150.687181 64.271981 
L 150.722484 63.855933 
L 150.787206 63.855933 
L 150.851928 63.855933 
L 150.851928 63.994629 
L 150.910767 63.717222 
L 150.951954 63.717222 
L 151.087282 63.717222 
L 151.087282 63.855933 
L 151.087282 63.578498 
L 151.181424 63.578498 
L 151.334404 63.578498 
L 151.334404 63.578498 
L 151.334404 64.133312 
L 151.440313 63.717222 
L 151.469732 63.717222 
L 151.469732 64.271981 
L 151.575641 63.43976 
L 151.816879 63.43976 
L 151.816879 63.578498 
L 151.91102 63.578498 
L 152.046349 63.578498 
L 152.134606 64.549277 
L 152.152258 64.549277 
L 152.164026 64.549277 
L 152.187561 64.965117 
L 152.264051 64.826518 
L 152.29347 64.826518 
L 152.340541 66.073414 
L 152.393496 66.073414 
L 152.59943 66.073414 
L 152.59943 66.073414 
L 152.59943 66.211889 
L 152.705339 66.073414 
L 152.781829 66.073414 
L 152.781829 65.934926 
L 152.846551 66.211889 
L 152.887738 66.211889 
L 153.146628 66.211889 
L 153.146628 66.211889 
L 153.223117 66.627231 
L 153.246653 66.488797 
L 153.281956 66.488797 
L 153.323143 65.242275 
L 153.387865 65.242275 
L 153.411401 65.242275 
L 153.452587 64.410636 
L 153.51731 64.687904 
L 153.687941 64.687904 
L 153.740896 65.519377 
L 153.79385 65.519377 
L 153.89976 65.519377 
L 153.958598 64.549277 
L 154.005669 64.826518 
L 154.011553 64.826518 
L 154.035088 66.904056 
L 154.117462 62.745861 
L 154.146881 62.745861 
L 154.246906 63.578498 
L 154.258674 63.578498 
L 154.293977 65.519377 
L 154.364583 65.380833 
L 154.376351 65.380833 
L 154.382235 64.965117 
L 154.48226 67.042448 
L 154.488144 67.042448 
L 154.517563 75.458231 
L 154.594053 71.187773 
L 154.599937 71.187773 
L 154.664659 68.287351 
L 154.705846 69.254835 
L 154.71173 69.254835 
L 154.723498 69.531135 
L 154.811755 68.563844 
L 154.817639 68.563844 
L 154.823523 68.563844 
L 154.847058 68.010803 
L 154.923548 68.563844 
L 154.994154 68.563844 
L 155.029458 69.116665 
L 155.100064 69.116665 
L 155.141251 69.116665 
L 155.141251 69.116665 
L 155.235392 67.180826 
L 155.147134 69.531135 
L 155.24716 67.180826 
L 155.305998 67.180826 
L 155.382488 58.018136 
L 155.406024 59.410312 
L 155.417791 59.410312 
L 155.488397 60.940099 
L 155.435443 58.435935 
L 155.5237 60.801097 
L 155.594307 60.801097 
L 155.594307 60.523051 
L 155.682564 61.357022 
L 155.700216 61.357022 
L 155.735519 61.357022 
L 155.841428 62.190492 
L 155.853196 62.190492 
L 155.929686 60.384007 
L 155.947337 60.384007 
L 156.000292 60.384007 
L 156.070898 60.801097 
L 156.047363 59.966793 
L 156.100317 60.801097 
L 156.13562 60.801097 
L 156.241529 59.131988 
L 156.323903 59.131988 
L 156.36509 60.24495 
L 156.423928 60.24495 
L 156.44158 60.24495 
L 156.529838 60.662081 
L 156.541605 60.523051 
L 156.559257 60.523051 
L 156.559257 60.523051 
L 156.559257 60.662081 
L 156.665166 60.523051 
L 156.67105 60.523051 
L 156.67105 59.966793 
L 156.776959 60.384007 
L 156.829914 60.384007 
L 156.829914 60.523051 
L 156.906404 60.523051 
L 156.953474 60.523051 
L 157.0535 61.495968 
L 157.059384 61.495968 
L 157.077035 61.495968 
L 157.077035 61.495968 
L 157.17706 62.190492 
L 157.182944 62.051615 
L 157.200596 62.051615 
L 157.288854 62.468204 
L 157.306505 62.468204 
L 157.371227 62.468204 
L 157.371227 62.468204 
L 157.371227 62.329355 
L 157.430066 62.745861 
L 157.465369 62.745861 
L 157.524207 62.745861 
L 157.624233 62.190492 
L 157.630116 62.190492 
L 157.924309 62.190492 
L 157.924309 62.190492 
L 158.030218 61.495968 
L 158.265572 61.495968 
L 158.265572 61.495968 
L 158.277339 60.801097 
L 158.365597 60.801097 
L 158.389132 60.801097 
L 158.389132 60.940099 
L 158.483274 60.801097 
L 158.524461 60.801097 
L 158.530345 61.079087 
L 158.63037 61.079087 
L 158.665673 61.079087 
L 158.665673 61.079087 
L 158.665673 60.940099 
L 158.736279 61.357022 
L 158.771582 61.357022 
L 158.959865 61.357022 
L 158.959865 61.634901 
L 159.065774 61.634901 
L 159.148148 61.634901 
L 159.236406 60.940099 
L 159.359967 60.940099 
L 159.407037 60.24495 
L 159.465876 60.24495 
L 159.477643 60.24495 
L 159.507063 61.357022 
L 159.489411 60.105878 
L 159.583553 61.357022 
L 159.677694 61.357022 
L 159.677694 61.495968 
L 159.783603 61.495968 
L 160.107215 61.495968 
L 160.124866 60.940099 
L 160.20724 60.940099 
L 160.295498 60.940099 
L 160.383755 60.662081 
L 160.401407 60.662081 
L 160.442594 60.662081 
L 160.442594 60.384007 
L 160.548503 60.384007 
L 160.719134 60.384007 
L 160.754437 60.801097 
L 160.81916 60.801097 
L 160.860347 60.801097 
L 160.883882 61.357022 
L 160.936837 61.357022 
L 160.978024 61.357022 
L 161.066281 60.523051 
L 161.083933 60.523051 
L 161.0957 60.523051 
L 161.131003 59.131988 
L 161.20161 59.131988 
L 161.225145 59.131988 
L 161.260448 59.410312 
L 161.331054 59.271157 
L 161.384009 59.271157 
L 161.384009 59.131988 
L 161.484034 59.271157 
L 161.513453 59.271157 
L 161.513453 59.131988 
L 161.613479 59.131988 
L 161.672317 59.131988 
L 161.778226 57.878841 
L 161.948858 57.878841 
L 161.954742 58.435935 
L 162.054767 58.435935 
L 162.125373 58.435935 
L 162.125373 58.575173 
L 162.231282 58.575173 
L 162.24305 58.575173 
L 162.24305 58.435935 
L 162.278353 59.271157 
L 162.348959 59.271157 
L 162.407798 59.271157 
L 162.407798 60.105878 
L 162.513707 60.105878 
L 162.537242 60.105878 
L 162.537242 59.827693 
L 162.643151 59.827693 
L 162.649035 59.827693 
L 162.654919 59.410312 
L 162.749061 59.549453 
L 162.837318 59.549453 
L 162.837318 59.410312 
L 162.937344 59.549453 
L 163.266839 59.549453 
L 163.266839 59.827693 
L 163.36098 59.827693 
L 163.478657 59.827693 
L 163.519844 60.523051 
L 163.584566 60.523051 
L 163.696359 60.523051 
L 163.696359 60.662081 
L 163.790501 60.24495 
L 163.802269 60.24495 
L 163.808152 60.24495 
L 163.808152 60.105878 
L 163.908178 60.105878 
L 163.967016 60.105878 
L 164.072925 59.271157 
L 164.072925 59.271157 
L 164.108228 59.271157 
L 164.108228 58.992805 
L 164.208254 58.992805 
L 164.337698 58.992805 
L 164.337698 58.992805 
L 164.367118 59.68858 
L 164.443608 59.549453 
L 164.690729 59.549453 
L 164.690729 59.827693 
L 164.796638 59.68858 
L 165.061411 59.68858 
L 165.132017 58.714398 
L 165.079063 59.827693 
L 165.16732 58.714398 
L 165.349719 58.714398 
L 165.390906 54.531598 
L 165.455629 55.229603 
L 165.467396 55.229603 
L 165.47328 54.391955 
L 165.573306 55.09003 
L 165.585073 55.09003 
L 165.585073 55.229603 
L 165.649795 54.252299 
L 165.690982 54.252299 
L 165.696866 54.252299 
L 165.714518 53.414064 
L 165.732169 54.391955 
L 165.796892 54.252299 
L 165.861614 54.252299 
L 165.873382 55.369162 
L 165.955755 55.369162 
L 166.049897 55.369162 
L 166.049897 55.229603 
L 166.155806 55.369162 
L 166.255831 55.369162 
L 166.255831 55.369162 
L 166.255831 55.229603 
L 166.361741 55.369162 
L 166.491185 55.369162 
L 166.491185 55.369162 
L 166.491185 55.508707 
L 166.597094 55.508707 
L 166.82068 55.508707 
L 166.82068 55.369162 
L 166.89717 55.787756 
L 166.908938 55.787756 
L 166.932473 55.787756 
L 166.932473 55.648239 
L 167.038383 55.927259 
L 167.038383 55.927259 
L 167.05015 55.927259 
L 167.07957 56.485133 
L 167.150176 56.066749 
L 167.226666 56.066749 
L 167.226666 56.066749 
L 167.250201 55.787756 
L 167.320807 55.927259 
L 167.638535 55.927259 
L 167.638535 55.927259 
L 167.638535 55.787756 
L 167.720908 56.066749 
L 167.797398 56.066749 
L 167.797398 55.927259 
L 167.826818 56.206224 
L 167.903308 56.206224 
L 168.097474 56.206224 
L 168.1975 56.763986 
L 168.203384 56.763986 
L 168.27399 56.763986 
L 168.27399 56.763986 
L 168.27399 56.624566 
L 168.321061 57.042784 
L 168.344596 57.042784 
L 168.521111 57.042784 
L 168.538763 57.460875 
L 168.62702 57.460875 
L 168.632904 57.460875 
L 168.685859 57.042784 
L 168.73293 57.042784 
L 168.821187 57.042784 
L 168.850606 58.435935 
L 168.897677 55.787756 
L 168.921213 56.345685 
L 168.9624 56.345685 
L 168.9624 56.345685 
L 168.985935 55.787756 
L 169.068309 55.787756 
L 169.133031 55.787756 
L 169.133031 55.787756 
L 169.133031 55.648239 
L 169.227172 55.648239 
L 169.368385 55.648239 
L 169.368385 55.787756 
L 169.474294 55.787756 
L 169.503713 55.787756 
L 169.586087 56.624566 
L 169.591971 56.624566 
L 169.615506 56.624566 
L 169.615506 56.763986 
L 169.721415 56.624566 
L 169.733183 56.624566 
L 169.733183 56.624566 
L 169.733183 56.763986 
L 169.839092 56.763986 
L 169.880279 56.763986 
L 169.980305 55.787756 
L 170.039143 55.787756 
L 170.039143 55.787756 
L 170.039143 55.648239 
L 170.121517 55.648239 
L 170.174471 55.648239 
L 170.174471 55.369162 
L 170.280381 55.508707 
L 170.321567 55.508707 
L 170.374522 55.787756 
L 170.427477 55.787756 
L 170.53927 55.787756 
L 170.53927 55.927259 
L 170.645179 55.787756 
L 170.833462 55.787756 
L 170.933487 56.485133 
L 170.939371 56.485133 
L 170.998209 56.485133 
L 171.098235 57.600211 
L 171.009977 55.787756 
L 171.098235 57.600211 
L 171.139422 57.600211 
L 171.139422 57.600211 
L 171.145306 57.878841 
L 171.239447 57.739533 
L 171.286518 57.739533 
L 171.286518 57.321525 
L 171.386543 57.321525 
L 171.539523 57.321525 
L 171.539523 57.042784 
L 171.633665 57.182161 
L 171.833715 57.182161 
L 171.833715 57.042784 
L 171.927857 57.042784 
L 172.033766 57.042784 
L 172.033766 57.182161 
L 172.139675 57.042784 
L 172.151443 57.042784 
L 172.151443 57.182161 
L 172.257352 57.042784 
L 172.275004 57.042784 
L 172.275004 57.182161 
L 172.363261 57.182161 
L 172.386797 57.182161 
L 172.386797 57.182161 
L 172.386797 57.321525 
L 172.463287 56.624566 
L 172.480938 57.182161 
L 172.557428 57.182161 
L 172.628034 58.018136 
L 172.657453 58.018136 
L 172.686873 58.018136 
L 172.686873 58.714398 
L 172.763363 58.714398 
L 172.845736 58.714398 
L 172.845736 58.575173 
L 172.939878 58.575173 
L 172.957529 58.575173 
L 172.957529 58.435935 
L 173.051671 58.435935 
L 173.086974 58.435935 
L 173.086974 58.296682 
L 173.104626 58.714398 
L 173.192883 58.714398 
L 173.263489 58.714398 
L 173.263489 58.853608 
L 173.369398 58.853608 
L 173.445888 58.853608 
L 173.445888 58.992805 
L 173.551798 58.992805 
L 173.734197 58.992805 
L 173.734197 58.992805 
L 173.734197 58.853608 
L 173.834222 58.992805 
L 173.898944 58.992805 
L 173.898944 58.853608 
L 174.004854 58.853608 
L 174.093111 58.853608 
L 174.163717 59.271157 
L 174.19902 59.131988 
L 174.299046 59.131988 
L 174.299046 59.271157 
L 174.38142 59.271157 
L 174.88743 59.271157 
L 174.88743 60.105878 
L 174.993339 60.105878 
L 175.005107 60.105878 
L 175.069829 58.992805 
L 175.111016 58.992805 
L 175.416976 58.992805 
L 175.416976 58.992805 
L 175.416976 59.131988 
L 175.522885 59.131988 
L 175.546421 59.131988 
L 175.546421 59.131988 
L 175.546421 58.992805 
L 175.640562 58.992805 
L 176.240714 58.992805 
L 176.240714 58.853608 
L 176.334856 59.271157 
L 176.452533 59.271157 
L 176.552558 60.105878 
L 176.634932 60.105878 
L 176.634932 59.966793 
L 176.740841 59.966793 
L 176.911472 59.966793 
L 176.935008 60.24495 
L 177.005614 60.24495 
L 177.052685 60.24495 
L 177.052685 60.384007 
L 177.15271 60.384007 
L 177.476321 60.384007 
L 177.582231 61.357022 
L 177.723443 61.357022 
L 177.723443 61.357022 
L 177.723443 61.495968 
L 177.817584 61.495968 
L 177.947029 61.495968 
L 177.947029 61.357022 
L 178.052938 61.357022 
L 178.105893 61.357022 
L 178.105893 61.357022 
L 178.105893 61.495968 
L 178.205918 61.495968 
L 178.341246 61.495968 
L 178.341246 61.357022 
L 178.447156 61.357022 
L 178.735464 61.357022 
L 178.735464 61.218061 
L 178.841373 61.218061 
L 179.141449 61.218061 
L 179.206171 60.662081 
L 179.241475 60.801097 
L 179.282661 60.801097 
L 179.282661 60.662081 
L 179.370919 60.662081 
L 179.682763 60.662081 
L 179.741601 60.24495 
L 179.788672 60.24495 
L 179.982839 60.24495 
L 179.982839 60.105878 
L 180.088748 60.105878 
L 180.235844 60.105878 
L 180.329986 61.357022 
L 180.341753 61.357022 
L 180.359405 61.357022 
L 180.359405 61.495968 
L 180.45943 61.357022 
L 180.565339 61.357022 
L 180.565339 61.357022 
L 180.565339 61.495968 
L 180.635946 61.079087 
L 180.665365 61.079087 
L 181.089001 61.079087 
L 181.106653 62.745861 
L 181.177259 62.745861 
L 181.236098 62.745861 
L 181.236098 62.607039 
L 181.336123 62.884668 
L 181.342007 62.607039 
L 181.459684 62.607039 
L 181.565593 61.773819 
L 181.565593 61.773819 
L 181.589128 61.773819 
L 181.589128 61.634901 
L 181.671502 61.634901 
L 181.706805 61.634901 
L 181.706805 61.495968 
L 181.812714 61.495968 
L 182.030416 61.495968 
L 182.030416 61.634901 
L 182.130442 61.634901 
L 182.354028 61.634901 
L 182.377563 61.218061 
L 182.459937 61.218061 
L 182.524659 61.218061 
L 182.630569 60.801097 
L 182.630569 60.801097 
L 183.395468 60.801097 
L 183.395468 60.24495 
L 183.477842 60.24495 
L 184.036807 60.24495 
L 184.042691 59.966793 
L 184.125065 59.966793 
L 184.1486 59.966793 
L 184.1486 59.827693 
L 184.254509 59.827693 
L 184.478095 59.827693 
L 184.542818 59.131988 
L 184.578121 59.131988 
L 184.748752 59.131988 
L 184.748752 59.271157 
L 184.848778 59.131988 
L 184.866429 59.131988 
L 184.866429 59.131988 
L 184.866429 59.271157 
L 184.966455 59.271157 
L 185.007641 59.271157 
L 185.007641 59.271157 
L 185.007641 59.131988 
L 185.107667 59.131988 
L 185.237111 59.131988 
L 185.319485 59.68858 
L 185.337137 59.68858 
L 185.643097 59.68858 
L 185.731354 58.575173 
L 185.937289 58.575173 
L 185.937289 58.296682 
L 186.037314 58.296682 
L 186.137339 58.296682 
L 186.225597 58.853608 
L 186.243249 58.714398 
L 186.296203 58.714398 
L 186.313855 59.271157 
L 186.402112 59.271157 
L 186.619815 59.271157 
L 186.619815 59.410312 
L 186.725724 59.410312 
L 187.249386 59.410312 
L 187.249386 59.410312 
L 187.249386 59.549453 
L 187.355295 59.549453 
L 187.467088 59.549453 
L 187.467088 50.616315 
L 187.572997 59.131988 
L 188.267291 59.131988 
L 188.267291 59.271157 
L 188.3732 59.131988 
L 188.443806 59.131988 
L 188.443806 59.131988 
L 188.443806 58.992805 
L 188.537948 59.131988 
L 188.637973 59.131988 
L 188.637973 59.131988 
L 188.708579 57.878841 
L 188.732115 57.878841 
L 188.767418 57.878841 
L 188.767418 58.296682 
L 188.861559 58.157416 
L 189.002771 58.157416 
L 189.079261 55.229603 
L 189.108681 55.787756 
L 189.114564 55.787756 
L 189.114564 55.648239 
L 189.191054 56.624566 
L 189.220474 56.624566 
L 189.26166 56.624566 
L 189.26166 56.763986 
L 189.361686 56.624566 
L 189.408757 56.624566 
L 189.479363 57.042784 
L 189.485247 57.042784 
L 189.544085 57.042784 
L 189.544085 57.182161 
L 189.632343 57.182161 
L 189.755903 57.182161 
L 189.755903 57.042784 
L 189.861813 57.042784 
L 190.762041 57.042784 
L 190.86795 58.018136 
L 190.973859 58.018136 
L 190.973859 57.878841 
L 191.073884 57.878841 
L 191.197445 57.878841 
L 191.197445 57.739533 
L 191.29747 57.739533 
L 191.656385 57.739533 
L 191.656385 57.878841 
L 191.762294 57.878841 
L 191.891739 57.878841 
L 191.891739 57.739533 
L 191.897622 58.296682 
L 191.98588 58.296682 
L 192.068254 58.296682 
L 192.068254 58.435935 
L 192.174163 58.435935 
L 192.303608 58.435935 
L 192.303608 58.296682 
L 192.403633 58.296682 
L 192.44482 58.296682 
L 192.44482 58.296682 
L 192.44482 58.157416 
L 192.550729 58.157416 
L 192.691941 58.157416 
L 192.691941 58.018136 
L 192.774315 58.018136 
L 192.850805 58.018136 
L 192.856689 58.435935 
L 192.927295 58.435935 
L 192.974366 58.435935 
L 193.033204 58.853608 
L 193.062624 58.853608 
L 193.368583 58.853608 
L 193.392119 58.435935 
L 193.468609 58.435935 
L 193.915781 58.435935 
L 193.915781 58.435935 
L 193.915781 58.296682 
L 194.02169 58.296682 
L 194.127599 58.296682 
L 194.180554 57.321525 
L 194.233508 57.321525 
L 194.292347 57.321525 
L 194.374721 55.787756 
L 194.398256 55.787756 
L 194.427675 55.787756 
L 194.445327 54.950443 
L 194.527701 55.229603 
L 194.627726 55.229603 
L 194.727751 55.648239 
L 194.727751 55.648239 
L 194.927802 55.648239 
L 194.93957 55.09003 
L 195.033711 55.09003 
L 195.057247 55.09003 
L 195.145504 53.972943 
L 195.163156 53.972943 
L 195.16904 53.972943 
L 195.16904 53.693532 
L 195.24553 53.693532 
L 195.310252 53.693532 
L 195.327903 53.972943 
L 195.416161 53.972943 
L 195.557373 53.972943 
L 195.580909 52.715151 
L 195.657399 52.715151 
L 195.67505 52.715151 
L 195.67505 52.715151 
L 195.67505 52.854962 
L 195.775075 52.854962 
L 195.845682 52.854962 
L 195.945707 51.736086 
L 195.98101 51.736086 
L 196.0575 46.549627 
L 196.063384 46.690054 
" clip-path="url(#peed728d81f)" style="fill: none; stroke: #6c74f5; stroke-width: 0.75; stroke-linecap: round"/>
   </g>
   <g id="line2d_30">
    <path d="M 19.45393 31.442509 
L 23.284312 31.442509 
L 23.284312 31.300557 
L 23.98449 31.300557 
L 23.990373 32.293922 
L 24.313985 32.293922 
L 24.313985 40.497962 
L 24.419894 37.95697 
L 24.425778 37.95697 
L 24.425778 37.533027 
L 24.496384 37.533027 
L 25.184794 37.533027 
L 25.184794 37.391684 
L 25.290703 37.391684 
L 25.496637 37.391684 
L 25.496637 37.250327 
L 25.555476 37.250327 
L 27.620705 37.250327 
L 27.626589 41.766743 
L 28.020806 41.766743 
L 28.020806 43.315927 
L 28.862196 43.315927 
L 28.885731 39.651473 
L 28.985757 39.651473 
L 28.991641 38.52203 
L 30.044849 38.52203 
L 30.097803 38.804476 
L 30.550859 38.804476 
L 30.550859 39.933692 
L 30.692071 39.933692 
L 30.745026 40.215855 
L 32.521947 40.215855 
L 32.545482 42.04854 
L 32.569018 42.04854 
L 32.857326 42.04854 
L 32.857326 42.752784 
L 33.104447 42.752784 
L 33.110331 49.495647 
L 33.386872 49.495647 
L 33.386872 49.075166 
L 33.469246 49.075166 
L 36.364097 49.075166 
L 36.364097 48.654558 
L 36.470006 48.654558 
L 36.599451 48.654558 
L 36.664173 47.111251 
L 36.70536 47.111251 
L 36.711244 47.111251 
L 36.758314 46.549627 
L 36.799501 46.549627 
L 36.893643 46.549627 
L 36.893643 46.409186 
L 37.070158 46.409186 
L 37.070158 46.128261 
L 37.417305 46.128261 
L 37.417305 46.128261 
L 37.417305 45.987778 
L 37.493795 45.987778 
L 37.540866 45.987778 
L 37.564401 45.004002 
L 37.587936 45.004002 
L 41.024101 45.004002 
L 41.082939 43.878844 
L 41.094707 43.878844 
L 41.424202 43.878844 
L 41.424202 43.597413 
L 41.747814 43.597413 
L 41.777233 42.893591 
L 41.841955 42.893591 
L 43.583573 42.893591 
L 43.583573 42.752784 
L 43.677715 42.752784 
L 43.748321 42.752784 
L 43.783624 42.471129 
L 44.81918 42.471129 
L 44.81918 35.977479 
L 44.872135 39.086865 
L 45.025115 39.086865 
L 45.107489 39.651473 
L 45.178095 39.651473 
L 45.178095 40.074781 
L 45.242817 40.074781 
L 45.766479 40.074781 
L 45.81355 43.456677 
L 46.172464 43.456677 
L 46.225419 44.863407 
L 46.354863 44.863407 
L 46.354863 45.566244 
L 46.7785 45.566244 
L 46.831455 41.484891 
L 48.214158 41.484891 
L 48.214158 42.189417 
L 48.784891 42.189417 
L 48.849613 43.175162 
L 48.849613 43.175162 
L 49.385043 43.175162 
L 49.461533 44.300884 
L 49.508604 44.300884 
L 49.614513 48.374083 
L 49.714538 48.374083 
L 49.743957 61.912724 
L 49.755725 61.912724 
L 49.873402 61.912724 
L 49.873402 62.190492 
L 50.149943 62.190492 
L 50.149943 62.051615 
L 50.167594 62.051615 
L 50.461786 62.051615 
L 50.46767 60.940099 
L 50.873655 60.940099 
L 50.873655 60.662081 
L 50.967797 60.662081 
L 51.044287 60.662081 
L 51.044287 60.523051 
L 51.061938 60.523051 
L 51.667974 60.523051 
L 51.667974 60.24495 
L 52.497596 60.24495 
L 52.497596 59.827693 
L 54.00386 59.827693 
L 54.103886 61.357022 
L 54.121537 61.357022 
L 54.133305 64.133312 
L 56.88106 64.133312 
L 56.886944 63.301008 
L 56.963434 63.301008 
L 57.281161 63.301008 
L 57.369419 63.023462 
L 57.387071 63.023462 
L 57.563586 63.023462 
L 57.669495 62.745861 
L 57.734217 62.745861 
L 57.734217 62.190492 
L 61.435155 62.190492 
L 61.493993 61.773819 
L 61.517529 61.773819 
L 62.129449 61.773819 
L 62.129449 60.940099 
L 69.701955 60.940099 
L 69.796097 53.833244 
L 70.013799 53.833244 
L 70.013799 51.456227 
L 70.225618 51.456227 
L 70.225618 50.056093 
L 71.361199 50.056093 
L 71.425922 55.508707 
L 71.573018 55.508707 
L 71.643624 62.884668 
L 71.661275 62.884668 
L 72.220241 62.884668 
L 72.279079 64.271981 
L 72.337917 64.271981 
L 72.337917 64.965117 
L 75.02095 64.965117 
L 75.062137 63.43976 
L 75.109208 63.43976 
L 75.768198 63.43976 
L 75.850572 58.714398 
L 79.069035 58.714398 
L 79.121989 59.68858 
L 79.392646 59.68858 
L 79.39853 60.523051 
L 79.39853 60.523051 
L 81.310779 60.523051 
L 81.310779 60.801097 
L 81.799138 60.801097 
L 81.810906 69.531135 
L 81.834441 69.531135 
L 81.952118 69.531135 
L 81.963886 68.287351 
L 82.228659 68.287351 
L 82.228659 69.116665 
L 82.269846 69.116665 
L 83.587827 69.116665 
L 83.629014 69.531135 
L 83.711387 69.531135 
L 83.711387 69.669264 
L 83.793761 69.669264 
L 86.270859 69.669264 
L 86.270859 69.531135 
L 86.282627 69.531135 
L 86.482678 69.531135 
L 86.5474 68.840282 
L 86.582703 68.840282 
L 86.618006 68.840282 
L 86.618006 68.70207 
L 86.682729 68.70207 
L 87.441744 68.70207 
L 87.477047 68.287351 
L 87.477047 68.287351 
L 87.712401 68.287351 
L 87.712401 68.149084 
L 87.77124 68.149084 
L 87.8948 68.149084 
L 87.994826 65.380833 
L 90.407202 65.380833 
L 90.407202 65.796423 
L 90.436621 65.796423 
L 90.554298 65.796423 
L 90.554298 66.073414 
L 93.119654 66.073414 
L 93.119654 65.657907 
L 93.349123 65.657907 
L 93.349123 65.103703 
L 93.378543 65.103703 
L 93.678619 65.103703 
L 93.678619 64.826518 
L 93.708038 64.826518 
L 94.108139 64.826518 
L 94.119907 62.329355 
L 95.096625 62.329355 
L 95.096625 62.190492 
L 95.102509 62.190492 
L 101.427641 62.190492 
L 101.427641 62.329355 
L 102.816228 62.329355 
L 102.863299 57.739533 
L 103.622315 57.739533 
L 103.622315 57.878841 
L 103.639966 57.878841 
L 105.993504 57.878841 
L 106.06411 56.624566 
L 106.111181 56.624566 
L 106.1406 54.810842 
L 110.029821 54.810842 
L 110.029821 52.994758 
L 112.930556 52.994758 
L 112.930556 52.715151 
L 113.265935 52.715151 
L 113.265935 52.575327 
L 114.742779 52.575327 
L 114.742779 52.715151 
L 114.848689 52.715151 
L 115.896013 52.715151 
L 115.896013 52.854962 
L 117.20811 52.854962 
L 117.290484 55.648239 
L 122.109352 55.648239 
L 122.109352 55.927259 
L 122.185842 55.927259 
L 122.227029 55.927259 
L 122.227029 56.066749 
L 122.297635 56.066749 
L 122.438847 56.066749 
L 122.515337 59.827693 
L 126.069179 59.827693 
L 126.069179 57.600211 
L 127.045897 57.600211 
L 127.098851 55.229603 
L 127.493069 55.229603 
L 127.493069 51.736086 
L 129.005217 51.736086 
L 129.005217 52.015889 
L 129.670091 52.015889 
L 129.670091 52.155769 
L 131.129284 52.155769 
L 131.223426 53.134541 
L 131.252845 53.134541 
L 131.329335 55.508707 
L 131.399941 55.508707 
L 131.399941 56.206224 
L 131.405825 56.206224 
L 137.825098 56.206224 
L 137.883937 56.763986 
L 138.325225 56.763986 
L 138.325225 57.042784 
L 138.419367 57.042784 
L 138.572347 57.042784 
L 138.572347 57.182161 
L 138.672372 57.182161 
L 138.742978 57.182161 
L 138.8077 60.523051 
L 138.83712 60.523051 
L 141.514268 60.523051 
L 141.578991 66.35035 
L 141.737854 66.35035 
L 141.76139 67.180826 
L 141.814344 67.180826 
L 144.862176 67.180826 
L 144.950433 65.934926 
L 145.009272 65.934926 
L 145.009272 65.519377 
L 145.062226 65.519377 
L 154.517563 65.519377 
L 154.517563 72.015347 
L 154.576402 72.015347 
L 154.664659 72.015347 
L 154.664659 70.635781 
L 155.317766 70.635781 
L 155.382488 61.079087 
L 157.17706 61.079087 
L 157.17706 60.940099 
L 162.949111 60.940099 
L 162.949111 61.079087 
L 165.355603 61.079087 
L 165.390906 58.018136 
L 165.47328 58.018136 
L 165.47328 57.739533 
L 165.696866 57.739533 
L 165.726285 57.182161 
L 165.726285 57.182161 
L 177.523392 57.182161 
L 177.593998 58.018136 
L 177.61165 58.018136 
L 181.106653 58.018136 
L 181.106653 60.105878 
L 189.038074 60.105878 
L 189.079261 58.018136 
L 189.079261 58.018136 
L 195.145504 58.018136 
L 195.145504 57.600211 
L 195.204343 57.600211 
L 195.333787 57.600211 
L 195.333787 57.460875 
L 195.416161 57.460875 
L 195.557373 57.460875 
L 195.586792 56.206224 
L 195.857449 56.206224 
L 195.875101 55.229603 
L 195.98101 55.229603 
L 196.0575 50.056093 
L 196.092803 50.056093 
L 196.092803 49.775898 
L 196.092803 49.775898 
" clip-path="url(#peed728d81f)" style="fill: none; stroke: #7ceac5; stroke-width: 0.75; stroke-linecap: round"/>
   </g>
   <g id="line2d_31">
    <path d="M 2.037752 30.874617 
L 28.020806 30.874617 
L 28.020806 33.286591 
L 28.032574 33.286591 
L 28.032574 33.286591 
L 33.104447 33.286591 
L 33.104447 38.098257 
L 33.110331 38.098257 
L 33.110331 39.651473 
L 49.73219 39.651473 
L 49.73219 47.111251 
L 49.743957 47.111251 
L 49.743957 53.27431 
L 72.337917 53.27431 
L 72.337917 55.229603 
L 81.810906 55.229603 
L 81.810906 59.827693 
L 116.684448 59.827693 
L 116.684448 60.662081 
L 127.757842 60.662081 
L 127.757842 60.662081 
L 127.757842 60.662081 
L 127.757842 60.662081 
L 142.032047 60.662081 
L 142.032047 60.662081 
L 142.032047 60.662081 
L 142.032047 60.662081 
L 154.517563 60.662081 
L 154.517563 61.912724 
L 196.0575 61.912724 
L 196.0575 59.68858 
" clip-path="url(#peed728d81f)" style="fill: none; stroke: #f305f9; stroke-width: 0.75; stroke-linecap: round"/>
   </g>
   <g id="patch_3">
    <path d="M 196.0575 95.221875 
L 196.0575 25.398438 
" style="fill: none; stroke: #808080; stroke-width: 1.25; stroke-linejoin: miter; stroke-linecap: square"/>
   </g>
   <g id="patch_4">
    <path d="M 19.542188 95.221875 
L 196.0575 95.221875 
" style="fill: none; stroke: #808080; stroke-width: 1.25; stroke-linejoin: miter; stroke-linecap: square"/>
   </g>
   <g id="text_16">
    <text style="fill: #f2f2f2; font: 7px 'Helvetica Neue', 'HelveticaNeue', 'Arial', 'Liberation Sans', 'DejaVu Sans', 'Bitstream Vera Sans', sans-serif; text-anchor: middle" x="107.799844" y="19.398438" transform="rotate(-0 107.799844 19.398438)">ETH-USDC</text>
   </g>
   <g id="legend_1">
    <g id="patch_5">
     <path d="M 139.855156 46.726562 
L 192.5575 46.726562 
Q 193.5575 46.726562 193.5575 45.726562 
L 193.5575 28.898438 
Q 193.5575 27.898438 192.5575 27.898438 
L 139.855156 27.898438 
Q 138.855156 27.898438 138.855156 28.898438 
L 138.855156 45.726562 
Q 138.855156 46.726562 139.855156 46.726562 
z
" style="fill: #0a0119; stroke: #bfbfbf; stroke-width: 0.3; stroke-linejoin: miter"/>
    </g>
    <g id="line2d_32">
     <path d="M 140.105156 31.053125 
L 145.105156 31.053125 
L 145.105156 31.053125 
L 150.105156 31.053125 
L 150.105156 31.053125 
" style="fill: none; stroke: #6c74f5; stroke-width: 0.75; stroke-linecap: round"/>
    </g>
    <g id="text_17">
     <text style="fill: #f2f2f2; font: 500 5px 'Helvetica Neue', 'HelveticaNeue', 'Arial', 'Liberation Sans', 'DejaVu Sans', 'Bitstream Vera Sans', sans-serif; text-anchor: start" x="154.105156" y="32.803125" transform="rotate(-0 154.105156 32.803125)">5bps (n = 25253)</text>
    </g>
    <g id="line2d_33">
     <path d="M 140.105156 36.9125 
L 145.105156 36.9125 
L 145.105156 36.9125 
L 150.105156 36.9125 
L 150.105156 36.9125 
" style="fill: none; stroke: #7ceac5; stroke-width: 0.75; stroke-linecap: round"/>
    </g>
    <g id="text_18">
     <text style="fill: #f2f2f2; font: 500 5px 'Helvetica Neue', 'HelveticaNeue', 'Arial', 'Liberation Sans', 'DejaVu Sans', 'Bitstream Vera Sans', sans-serif; text-anchor: start" x="154.105156" y="38.6625" transform="rotate(-0 154.105156 38.6625)">30bps (n = 1060)</text>
    </g>
    <g id="line2d_34">
     <path d="M 140.105156 42.771875 
L 145.105156 42.771875 
L 145.105156 42.771875 
L 150.105156 42.771875 
L 150.105156 42.771875 
" style="fill: none; stroke: #f305f9; stroke-width: 0.75; stroke-linecap: round"/>
    </g>
    <g id="text_19">
     <text style="fill: #f2f2f2; font: 500 5px 'Helvetica Neue', 'HelveticaNeue', 'Arial', 'Liberation Sans', 'DejaVu Sans', 'Bitstream Vera Sans', sans-serif; text-anchor: start" x="154.105156" y="44.521875" transform="rotate(-0 154.105156 44.521875)">100bps (n = 14)</text>
    </g>
   </g>
  </g>
 </g>
 <defs>
  <clipPath id="peed728d81f">
   <rect x="19.542188" y="25.398438" width="176.515312" height="69.823437"/>
  </clipPath>
 </defs>
</svg>
