<?xml version="1.0" encoding="utf-8" standalone="no"?>
<!DOCTYPE svg PUBLIC "-//W3C//DTD SVG 1.1//EN"
  "http://www.w3.org/Graphics/SVG/1.1/DTD/svg11.dtd">
<svg xmlns:xlink="http://www.w3.org/1999/xlink" width="230.4pt" height="263.304pt" viewBox="0 0 230.4 263.304" xmlns="http://www.w3.org/2000/svg" version="1.1">
 <metadata>
  <rdf:RDF xmlns:dc="http://purl.org/dc/elements/1.1/" xmlns:cc="http://creativecommons.org/ns#" xmlns:rdf="http://www.w3.org/1999/02/22-rdf-syntax-ns#">
   <cc:Work>
    <dc:type rdf:resource="http://purl.org/dc/dcmitype/StillImage"/>
    <dc:date>2023-01-05T15:59:53.765013</dc:date>
    <dc:format>image/svg+xml</dc:format>
    <dc:creator>
     <cc:Agent>
      <dc:title>Matplotlib v3.6.2, https://matplotlib.org/</dc:title>
     </cc:Agent>
    </dc:creator>
   </cc:Work>
  </rdf:RDF>
 </metadata>
 <defs>
  <style type="text/css">*{stroke-linejoin: round; stroke-linecap: butt}</style>
 </defs>
 <g id="figure_1">
  <g id="patch_1">
   <path d="M 0 263.304 
L 230.4 263.304 
L 230.4 0 
L 0 0 
z
" style="fill: #19161e"/>
  </g>
  <g id="axes_1">
   <g id="patch_2">
    <path d="M 14.4 227.922437 
L 201.24 227.922437 
L 201.24 14.4 
L 14.4 14.4 
z
" style="fill: #0a0119"/>
   </g>
   <g id="matplotlib.axis_1">
    <g id="xtick_1">
     <g id="line2d_1">
      <path d="M 33.084 227.922437 
L 33.084 14.4 
" clip-path="url(#p40cf435828)" style="fill: none; stroke: #404040; stroke-width: 0.5; stroke-linecap: round"/>
     </g>
     <g id="line2d_2"/>
     <g id="text_1">
      <text style="fill: #f2f2f2; font: 500 6px 'Helvetica Neue', 'HelveticaNeue', 'Arial', 'Liberation Sans', 'DejaVu Sans', 'Bitstream Vera Sans', sans-serif; text-anchor: middle" x="33.084" y="235.206812" transform="rotate(-0 33.084 235.206812)">−400</text>
     </g>
    </g>
    <g id="xtick_2">
     <g id="line2d_3">
      <path d="M 70.452 227.922437 
L 70.452 14.4 
" clip-path="url(#p40cf435828)" style="fill: none; stroke: #404040; stroke-width: 0.5; stroke-linecap: round"/>
     </g>
     <g id="line2d_4"/>
     <g id="text_2">
      <text style="fill: #f2f2f2; font: 500 6px 'Helvetica Neue', 'HelveticaNeue', 'Arial', 'Liberation Sans', 'DejaVu Sans', 'Bitstream Vera Sans', sans-serif; text-anchor: middle" x="70.452" y="235.206812" transform="rotate(-0 70.452 235.206812)">−200</text>
     </g>
    </g>
    <g id="xtick_3">
     <g id="line2d_5">
      <path d="M 107.82 227.922437 
L 107.82 14.4 
" clip-path="url(#p40cf435828)" style="fill: none; stroke: #404040; stroke-width: 0.5; stroke-linecap: round"/>
     </g>
     <g id="line2d_6"/>
     <g id="text_3">
      <text style="fill: #f2f2f2; font: 500 6px 'Helvetica Neue', 'HelveticaNeue', 'Arial', 'Liberation Sans', 'DejaVu Sans', 'Bitstream Vera Sans', sans-serif; text-anchor: middle" x="107.82" y="235.206812" transform="rotate(-0 107.82 235.206812)">0</text>
     </g>
    </g>
    <g id="xtick_4">
     <g id="line2d_7">
      <path d="M 145.188 227.922437 
L 145.188 14.4 
" clip-path="url(#p40cf435828)" style="fill: none; stroke: #404040; stroke-width: 0.5; stroke-linecap: round"/>
     </g>
     <g id="line2d_8"/>
     <g id="text_4">
      <text style="fill: #f2f2f2; font: 500 6px 'Helvetica Neue', 'HelveticaNeue', 'Arial', 'Liberation Sans', 'DejaVu Sans', 'Bitstream Vera Sans', sans-serif; text-anchor: middle" x="145.188" y="235.206812" transform="rotate(-0 145.188 235.206812)">200</text>
     </g>
    </g>
    <g id="xtick_5">
     <g id="line2d_9">
      <path d="M 182.556 227.922437 
L 182.556 14.4 
" clip-path="url(#p40cf435828)" style="fill: none; stroke: #404040; stroke-width: 0.5; stroke-linecap: round"/>
     </g>
     <g id="line2d_10"/>
     <g id="text_5">
      <text style="fill: #f2f2f2; font: 500 6px 'Helvetica Neue', 'HelveticaNeue', 'Arial', 'Liberation Sans', 'DejaVu Sans', 'Bitstream Vera Sans', sans-serif; text-anchor: middle" x="182.556" y="235.206812" transform="rotate(-0 182.556 235.206812)">400</text>
     </g>
    </g>
    <g id="text_6">
     <text style="fill: #f2f2f2; font: 500 7px 'Helvetica Neue', 'HelveticaNeue', 'Arial', 'Liberation Sans', 'DejaVu Sans', 'Bitstream Vera Sans', sans-serif; text-anchor: middle" x="107.82" y="247.469" transform="rotate(-0 107.82 247.469)">jump size per transaction (ticks)</text>
    </g>
   </g>
   <g id="matplotlib.axis_2">
    <g id="ytick_1">
     <g id="line2d_11">
      <path d="M 14.4 213.25371 
L 201.24 213.25371 
" clip-path="url(#p40cf435828)" style="fill: none; stroke: #404040; stroke-width: 0.5; stroke-linecap: round"/>
     </g>
     <g id="line2d_12"/>
     <g id="text_7">
      <!-- $\mathdefault{10^{-7}}$ -->
      <g style="fill: #f2f2f2" transform="translate(204.24 215.395897)">
       <text>
        <tspan style="font: 500 6px 'Helvetica Neue'" x="0 3.335999" y="-0.8812500000000005">10</tspan>
        <tspan style="font: 500 4.2px 'Helvetica Neue'" x="6.726411 9.246415" y="-3.0578125000000003">−7</tspan>
       </text>
      </g>
     </g>
    </g>
    <g id="ytick_2">
     <g id="line2d_13">
      <path d="M 14.4 183.916254 
L 201.24 183.916254 
" clip-path="url(#p40cf435828)" style="fill: none; stroke: #404040; stroke-width: 0.5; stroke-linecap: round"/>
     </g>
     <g id="line2d_14"/>
     <g id="text_8">
      <!-- $\mathdefault{10^{-6}}$ -->
      <g style="fill: #f2f2f2" transform="translate(204.24 186.058442)">
       <text>
        <tspan style="font: 500 6px 'Helvetica Neue'" x="0 3.335999" y="-0.8265625000000005">10</tspan>
        <tspan style="font: 500 4.2px 'Helvetica Neue'" x="6.726411 9.246415" y="-3.0031250000000003">−6</tspan>
       </text>
      </g>
     </g>
    </g>
    <g id="ytick_3">
     <g id="line2d_15">
      <path d="M 14.4 154.578799 
L 201.24 154.578799 
" clip-path="url(#p40cf435828)" style="fill: none; stroke: #404040; stroke-width: 0.5; stroke-linecap: round"/>
     </g>
     <g id="line2d_16"/>
     <g id="text_9">
      <!-- $\mathdefault{10^{-5}}$ -->
      <g style="fill: #f2f2f2" transform="translate(204.24 156.720987)">
       <text>
        <tspan style="font: 500 6px 'Helvetica Neue'" x="0 3.335999" y="-0.8812500000000005">10</tspan>
        <tspan style="font: 500 4.2px 'Helvetica Neue'" x="6.726411 9.246415" y="-3.0578125000000003">−5</tspan>
       </text>
      </g>
     </g>
    </g>
    <g id="ytick_4">
     <g id="line2d_17">
      <path d="M 14.4 125.241344 
L 201.24 125.241344 
" clip-path="url(#p40cf435828)" style="fill: none; stroke: #404040; stroke-width: 0.5; stroke-linecap: round"/>
     </g>
     <g id="line2d_18"/>
     <g id="text_10">
      <!-- $\mathdefault{10^{-4}}$ -->
      <g style="fill: #f2f2f2" transform="translate(204.24 127.383531)">
       <text>
        <tspan style="font: 500 6px 'Helvetica Neue'" x="0 3.335999" y="-0.8812500000000005">10</tspan>
        <tspan style="font: 500 4.2px 'Helvetica Neue'" x="6.726411 9.246415" y="-3.0578125000000003">−4</tspan>
       </text>
      </g>
     </g>
    </g>
    <g id="ytick_5">
     <g id="line2d_19">
      <path d="M 14.4 95.903888 
L 201.24 95.903888 
" clip-path="url(#p40cf435828)" style="fill: none; stroke: #404040; stroke-width: 0.5; stroke-linecap: round"/>
     </g>
     <g id="line2d_20"/>
     <g id="text_11">
      <!-- $\mathdefault{10^{-3}}$ -->
      <g style="fill: #f2f2f2" transform="translate(204.24 98.046076)">
       <text>
        <tspan style="font: 500 6px 'Helvetica Neue'" x="0 3.335999" y="-0.8265625000000005">10</tspan>
        <tspan style="font: 500 4.2px 'Helvetica Neue'" x="6.726411 9.246415" y="-3.0031250000000003">−3</tspan>
       </text>
      </g>
     </g>
    </g>
    <g id="ytick_6">
     <g id="line2d_21">
      <path d="M 14.4 66.566433 
L 201.24 66.566433 
" clip-path="url(#p40cf435828)" style="fill: none; stroke: #404040; stroke-width: 0.5; stroke-linecap: round"/>
     </g>
     <g id="line2d_22"/>
     <g id="text_12">
      <!-- $\mathdefault{10^{-2}}$ -->
      <g style="fill: #f2f2f2" transform="translate(204.24 68.70862)">
       <text>
        <tspan style="font: 500 6px 'Helvetica Neue'" x="0 3.335999" y="-0.8265625000000005">10</tspan>
        <tspan style="font: 500 4.2px 'Helvetica Neue'" x="6.726411 9.246415" y="-3.0031250000000003">−2</tspan>
       </text>
      </g>
     </g>
    </g>
    <g id="ytick_7">
     <g id="line2d_23">
      <path d="M 14.4 37.228978 
L 201.24 37.228978 
" clip-path="url(#p40cf435828)" style="fill: none; stroke: #404040; stroke-width: 0.5; stroke-linecap: round"/>
     </g>
     <g id="line2d_24"/>
     <g id="text_13">
      <!-- $\mathdefault{10^{-1}}$ -->
      <g style="fill: #f2f2f2" transform="translate(204.24 39.371165)">
       <text>
        <tspan style="font: 500 6px 'Helvetica Neue'" x="0 3.335999" y="-0.8812500000000005">10</tspan>
        <tspan style="font: 500 4.2px 'Helvetica Neue'" x="6.726411 9.246415" y="-3.0578125000000003">−1</tspan>
       </text>
      </g>
     </g>
    </g>
    <g id="ytick_8">
     <g id="line2d_25"/>
    </g>
    <g id="ytick_9">
     <g id="line2d_26"/>
    </g>
    <g id="ytick_10">
     <g id="line2d_27"/>
    </g>
    <g id="ytick_11">
     <g id="line2d_28"/>
    </g>
    <g id="ytick_12">
     <g id="line2d_29"/>
    </g>
    <g id="ytick_13">
     <g id="line2d_30"/>
    </g>
    <g id="ytick_14">
     <g id="line2d_31"/>
    </g>
    <g id="ytick_15">
     <g id="line2d_32"/>
    </g>
    <g id="ytick_16">
     <g id="line2d_33"/>
    </g>
    <g id="ytick_17">
     <g id="line2d_34"/>
    </g>
    <g id="ytick_18">
     <g id="line2d_35"/>
    </g>
    <g id="ytick_19">
     <g id="line2d_36"/>
    </g>
    <g id="ytick_20">
     <g id="line2d_37"/>
    </g>
    <g id="ytick_21">
     <g id="line2d_38"/>
    </g>
    <g id="ytick_22">
     <g id="line2d_39"/>
    </g>
    <g id="ytick_23">
     <g id="line2d_40"/>
    </g>
    <g id="ytick_24">
     <g id="line2d_41"/>
    </g>
    <g id="ytick_25">
     <g id="line2d_42"/>
    </g>
    <g id="ytick_26">
     <g id="line2d_43"/>
    </g>
    <g id="ytick_27">
     <g id="line2d_44"/>
    </g>
    <g id="ytick_28">
     <g id="line2d_45"/>
    </g>
    <g id="ytick_29">
     <g id="line2d_46"/>
    </g>
    <g id="ytick_30">
     <g id="line2d_47"/>
    </g>
    <g id="ytick_31">
     <g id="line2d_48"/>
    </g>
    <g id="ytick_32">
     <g id="line2d_49"/>
    </g>
    <g id="ytick_33">
     <g id="line2d_50"/>
    </g>
    <g id="ytick_34">
     <g id="line2d_51"/>
    </g>
    <g id="ytick_35">
     <g id="line2d_52"/>
    </g>
    <g id="ytick_36">
     <g id="line2d_53"/>
    </g>
    <g id="ytick_37">
     <g id="line2d_54"/>
    </g>
    <g id="ytick_38">
     <g id="line2d_55"/>
    </g>
    <g id="ytick_39">
     <g id="line2d_56"/>
    </g>
    <g id="ytick_40">
     <g id="line2d_57"/>
    </g>
    <g id="ytick_41">
     <g id="line2d_58"/>
    </g>
    <g id="ytick_42">
     <g id="line2d_59"/>
    </g>
    <g id="ytick_43">
     <g id="line2d_60"/>
    </g>
    <g id="ytick_44">
     <g id="line2d_61"/>
    </g>
    <g id="ytick_45">
     <g id="line2d_62"/>
    </g>
    <g id="ytick_46">
     <g id="line2d_63"/>
    </g>
    <g id="ytick_47">
     <g id="line2d_64"/>
    </g>
    <g id="ytick_48">
     <g id="line2d_65"/>
    </g>
    <g id="ytick_49">
     <g id="line2d_66"/>
    </g>
    <g id="ytick_50">
     <g id="line2d_67"/>
    </g>
    <g id="ytick_51">
     <g id="line2d_68"/>
    </g>
    <g id="ytick_52">
     <g id="line2d_69"/>
    </g>
    <g id="ytick_53">
     <g id="line2d_70"/>
    </g>
    <g id="ytick_54">
     <g id="line2d_71"/>
    </g>
    <g id="ytick_55">
     <g id="line2d_72"/>
    </g>
    <g id="ytick_56">
     <g id="line2d_73"/>
    </g>
    <g id="ytick_57">
     <g id="line2d_74"/>
    </g>
    <g id="ytick_58">
     <g id="line2d_75"/>
    </g>
    <g id="ytick_59">
     <g id="line2d_76"/>
    </g>
    <g id="ytick_60">
     <g id="line2d_77"/>
    </g>
    <g id="ytick_61">
     <g id="line2d_78"/>
    </g>
    <g id="ytick_62">
     <g id="line2d_79"/>
    </g>
    <g id="ytick_63">
     <g id="line2d_80"/>
    </g>
    <g id="ytick_64">
     <g id="line2d_81"/>
    </g>
    <g id="ytick_65">
     <g id="line2d_82"/>
    </g>
    <g id="ytick_66">
     <g id="line2d_83"/>
    </g>
   </g>
   <g id="patch_3">
    <path d="M -1 215.729485 
L 29.16036 215.729485 
L 29.16036 201.639967 
L 42.05232 201.639967 
L 42.05232 196.99044 
L 50.46012 196.99044 
L 50.46012 188.656646 
L 54.19692 188.656646 
L 54.19692 190.741464 
L 57.18636 190.741464 
L 57.18636 186.387204 
L 61.67052 186.387204 
L 61.67052 184.886519 
L 64.65996 184.886519 
L 64.65996 181.087719 
L 66.52836 181.087719 
L 66.52836 183.952951 
L 68.77044 183.952951 
L 68.77044 171.114508 
L 70.26516 171.114508 
L 70.26516 170.357388 
L 71.57304 170.357388 
L 71.57304 173.682513 
L 73.81512 173.682513 
L 73.81512 175.121497 
L 74.93616 175.121497 
L 74.93616 171.919476 
L 76.24404 171.919476 
L 76.24404 171.736148 
L 77.55192 171.736148 
L 77.55192 169.20257 
L 78.48612 169.20257 
L 78.48612 167.818456 
L 79.42032 167.818456 
L 79.42032 162.723966 
L 80.7282 162.723966 
L 80.7282 163.44695 
L 81.84924 163.44695 
L 81.84924 160.759918 
L 82.97028 160.759918 
L 82.97028 158.258741 
L 83.90448 158.258741 
L 83.90448 157.23891 
L 84.83868 157.23891 
L 84.83868 153.211195 
L 85.77288 153.211195 
L 85.77288 154.395816 
L 86.70708 154.395816 
L 86.70708 154.527169 
L 87.64128 154.527169 
L 87.64128 152.686316 
L 88.57548 152.686316 
L 88.57548 146.548851 
L 89.50968 146.548851 
L 89.50968 147.275036 
L 90.44388 147.275036 
L 90.44388 145.828436 
L 91.37808 145.828436 
L 91.37808 143.132951 
L 92.31228 143.132951 
L 92.31228 142.398693 
L 93.24648 142.398693 
L 93.24648 140.354808 
L 94.18068 140.354808 
L 94.18068 137.249623 
L 95.11488 137.249623 
L 95.11488 134.247623 
L 96.04908 134.247623 
L 96.04908 130.775212 
L 96.98328 130.775212 
L 96.98328 127.811928 
L 97.91748 127.811928 
L 97.91748 120.205378 
L 98.85168 120.205378 
L 98.85168 121.227442 
L 99.78588 121.227442 
L 99.78588 118.66804 
L 100.72008 118.66804 
L 100.72008 114.566064 
L 101.65428 114.566064 
L 101.65428 109.379936 
L 102.58848 109.379936 
L 102.58848 103.403511 
L 103.52268 103.403511 
L 103.52268 96.446861 
L 104.45688 96.446861 
L 104.45688 88.088919 
L 105.39108 88.088919 
L 105.39108 78.695034 
L 106.32528 78.695034 
L 106.32528 67.476684 
L 107.25948 67.476684 
L 107.25948 31.671449 
L 108.19368 31.671449 
L 108.19368 60.578826 
L 109.12788 60.578826 
L 109.12788 74.491618 
L 110.06208 74.491618 
L 110.06208 84.895476 
L 110.99628 84.895476 
L 110.99628 93.690942 
L 111.93048 93.690942 
L 111.93048 101.43571 
L 112.86468 101.43571 
L 112.86468 107.864626 
L 113.79888 107.864626 
L 113.79888 112.985019 
L 114.73308 112.985019 
L 114.73308 117.417763 
L 115.66728 117.417763 
L 115.66728 120.480652 
L 116.60148 120.480652 
L 116.60148 119.745044 
L 117.53568 119.745044 
L 117.53568 126.791473 
L 118.46988 126.791473 
L 118.46988 131.044109 
L 119.40408 131.044109 
L 119.40408 133.415255 
L 120.33828 133.415255 
L 120.33828 136.619075 
L 121.27248 136.619075 
L 121.27248 139.802607 
L 122.20668 139.802607 
L 122.20668 141.536647 
L 123.14088 141.536647 
L 123.14088 143.826326 
L 124.07508 143.826326 
L 124.07508 144.896137 
L 125.00928 144.896137 
L 125.00928 146.166416 
L 125.94348 146.166416 
L 125.94348 145.66275 
L 126.87768 145.66275 
L 126.87768 151.332485 
L 127.81188 151.332485 
L 127.81188 153.883543 
L 128.74608 153.883543 
L 128.74608 154.65989 
L 129.68028 154.65989 
L 129.68028 154.265804 
L 130.61448 154.265804 
L 130.61448 156.524268 
L 131.54868 156.524268 
L 131.54868 158.526985 
L 132.48288 158.526985 
L 132.48288 162.283054 
L 133.41708 162.283054 
L 133.41708 162.652387 
L 134.35128 162.652387 
L 134.35128 166.1523 
L 135.47232 166.1523 
L 135.47232 165.522275 
L 136.7802 165.522275 
L 136.7802 168.231031 
L 137.90124 168.231031 
L 137.90124 170.066704 
L 138.83544 170.066704 
L 138.83544 168.39334 
L 139.95648 168.39334 
L 139.95648 171.31837 
L 141.07752 171.31837 
L 141.07752 171.993553 
L 142.01172 171.993553 
L 142.01172 174.847485 
L 143.13276 174.847485 
L 143.13276 173.078556 
L 145.00116 173.078556 
L 145.00116 170.993738 
L 146.86956 170.993738 
L 146.86956 180.067887 
L 148.73796 180.067887 
L 148.73796 178.512869 
L 150.23268 178.512869 
L 150.23268 182.506692 
L 153.40896 182.506692 
L 153.40896 188.957124 
L 159.76152 188.957124 
L 159.76152 189.856869 
L 162.9378 189.856869 
L 162.9378 192.242149 
L 167.98248 192.242149 
L 167.98248 196.159841 
L 177.51132 196.159841 
L 177.51132 203.281275 
L 185.73228 203.281275 
L 185.73228 205.275021 
L 202.36104 205.275021 
L 202.36104 220.412938 
L 231.4 220.412938 
L 231.4 220.412938 
" clip-path="url(#p40cf435828)" style="fill: none; stroke: #6c74f5; stroke-width: 0.75; stroke-linejoin: miter"/>
   </g>
   <g id="patch_4">
    <path d="M -1 217.096896 
L 29.16036 217.096896 
L 29.16036 191.332831 
L 42.05232 191.332831 
L 42.05232 195.597225 
L 50.46012 195.597225 
L 50.46012 189.552111 
L 54.19692 189.552111 
L 54.19692 193.217496 
L 57.18636 193.217496 
L 57.18636 173.590539 
L 61.67052 173.590539 
L 61.67052 171.116779 
L 64.65996 171.116779 
L 64.65996 174.732296 
L 66.52836 174.732296 
L 66.52836 172.997823 
L 68.77044 172.997823 
L 68.77044 177.877564 
L 70.26516 177.877564 
L 70.26516 171.889203 
L 71.57304 171.889203 
L 71.57304 164.166369 
L 73.81512 164.166369 
L 73.81512 159.392364 
L 74.93616 159.392364 
L 74.93616 163.057749 
L 76.24404 163.057749 
L 76.24404 164.001966 
L 77.55192 164.001966 
L 77.55192 156.296964 
L 78.48612 156.296964 
L 78.48612 157.069388 
L 79.42032 157.069388 
L 79.42032 159.166852 
L 80.7282 159.166852 
L 80.7282 156.549271 
L 81.84924 156.549271 
L 81.84924 153.206463 
L 82.97028 153.206463 
L 82.97028 145.394841 
L 83.90448 145.394841 
L 83.90448 152.445575 
L 84.83868 152.445575 
L 84.83868 151.903319 
L 85.77288 151.903319 
L 85.77288 149.060225 
L 86.70708 149.060225 
L 86.70708 142.551748 
L 87.64128 142.551748 
L 87.64128 145.08023 
L 88.57548 145.08023 
L 88.57548 143.614121 
L 89.50968 143.614121 
L 89.50968 142.809152 
L 90.44388 142.809152 
L 90.44388 138.822816 
L 91.37808 138.822816 
L 91.37808 135.494645 
L 92.31228 135.494645 
L 92.31228 132.390633 
L 93.24648 132.390633 
L 93.24648 129.70926 
L 94.18068 129.70926 
L 94.18068 128.986167 
L 95.11488 128.986167 
L 95.11488 124.574228 
L 96.04908 124.574228 
L 96.04908 122.460127 
L 96.98328 122.460127 
L 96.98328 118.585868 
L 97.91748 118.585868 
L 97.91748 115.19534 
L 98.85168 115.19534 
L 98.85168 110.269676 
L 99.78588 110.269676 
L 99.78588 107.067655 
L 100.72008 107.067655 
L 100.72008 102.349811 
L 101.65428 102.349811 
L 101.65428 97.021845 
L 102.58848 97.021845 
L 102.58848 90.751525 
L 103.52268 90.751525 
L 103.52268 83.76268 
L 104.45688 83.76268 
L 104.45688 75.574793 
L 105.39108 75.574793 
L 105.39108 67.644413 
L 106.32528 67.644413 
L 106.32528 58.127872 
L 107.25948 58.127872 
L 107.25948 36.664389 
L 108.19368 36.664389 
L 108.19368 53.906825 
L 109.12788 53.906825 
L 109.12788 63.905294 
L 110.06208 63.905294 
L 110.06208 72.572522 
L 110.99628 72.572522 
L 110.99628 80.986942 
L 111.93048 80.986942 
L 111.93048 88.619375 
L 112.86468 88.619375 
L 112.86468 95.443542 
L 113.79888 95.443542 
L 113.79888 99.870301 
L 114.73308 99.870301 
L 114.73308 106.453507 
L 115.66728 106.453507 
L 115.66728 110.00944 
L 116.60148 110.00944 
L 116.60148 114.699061 
L 117.53568 114.699061 
L 117.53568 117.189192 
L 118.46988 117.189192 
L 118.46988 121.448398 
L 119.40408 121.448398 
L 119.40408 126.445389 
L 120.33828 126.445389 
L 120.33828 126.810488 
L 121.27248 126.810488 
L 121.27248 129.433269 
L 122.20668 129.433269 
L 122.20668 134.373826 
L 123.14088 134.373826 
L 123.14088 133.098653 
L 124.07508 133.098653 
L 124.07508 135.494645 
L 125.00928 135.494645 
L 125.00928 139.40648 
L 125.94348 139.40648 
L 125.94348 140.882304 
L 126.87768 140.882304 
L 126.87768 142.29944 
L 127.81188 142.29944 
L 127.81188 144.773201 
L 128.74608 144.773201 
L 128.74608 145.717417 
L 129.68028 145.717417 
L 129.68028 146.048373 
L 130.61448 146.048373 
L 130.61448 147.845869 
L 131.54868 147.845869 
L 131.54868 149.060225 
L 132.48288 149.060225 
L 132.48288 151.903319 
L 133.41708 151.903319 
L 133.41708 152.445575 
L 134.35128 152.445575 
L 134.35128 155.927631 
L 135.47232 155.927631 
L 135.47232 155.170511 
L 136.7802 155.170511 
L 136.7802 157.202804 
L 137.90124 157.202804 
L 137.90124 165.900842 
L 138.83544 165.900842 
L 138.83544 156.549271 
L 139.95648 156.549271 
L 139.95648 162.037917 
L 141.07752 162.037917 
L 141.07752 163.057749 
L 142.01172 163.057749 
L 142.01172 159.392364 
L 143.13276 159.392364 
L 143.13276 158.323622 
L 145.00116 158.323622 
L 145.00116 170.674847 
L 146.86956 170.674847 
L 146.86956 176.433632 
L 148.73796 176.433632 
L 148.73796 180.720657 
L 150.23268 180.720657 
L 150.23268 172.661627 
L 153.40896 172.661627 
L 153.40896 173.915861 
L 159.76152 173.915861 
L 159.76152 179.992396 
L 162.9378 179.992396 
L 162.9378 177.783533 
L 167.98248 177.783533 
L 167.98248 193.98992 
L 177.51132 193.98992 
L 177.51132 193.60956 
L 185.73228 193.60956 
L 185.73228 204.286319 
L 202.36104 204.286319 
L 202.36104 220.045876 
L 231.4 220.045876 
L 231.4 220.045876 
" clip-path="url(#p40cf435828)" style="fill: none; stroke: #7ceac5; stroke-width: 0.75; stroke-linejoin: miter"/>
   </g>
   <g id="patch_5">
    <path d="M -1 194.611118 
L 29.16036 194.611118 
L 29.16036 176.856216 
L 42.05232 176.856216 
L 42.05232 164.279993 
L 50.46012 164.279993 
L 50.46012 155.911903 
L 54.19692 155.911903 
L 54.19692 153.06881 
L 57.18636 153.06881 
L 57.18636 160.557856 
L 61.67052 160.557856 
L 61.67052 151.104761 
L 64.65996 151.104761 
L 64.65996 147.080449 
L 66.52836 147.080449 
L 66.52836 151.726401 
L 68.77044 151.726401 
L 68.77044 142.273307 
L 70.26516 142.273307 
L 70.26516 140.571971 
L 71.57304 140.571971 
L 71.57304 142.894947 
L 73.81512 142.894947 
L 73.81512 145.738041 
L 74.93616 145.738041 
L 74.93616 140.571971 
L 76.24404 140.571971 
L 76.24404 132.684734 
L 77.55192 132.684734 
L 77.55192 136.284946 
L 78.48612 136.284946 
L 78.48612 131.740517 
L 80.7282 131.740517 
L 80.7282 128.075132 
L 81.84924 128.075132 
L 81.84924 127.302708 
L 82.97028 127.302708 
L 82.97028 121.694707 
L 83.90448 121.694707 
L 83.90448 127.453492 
L 84.83868 127.453492 
L 84.83868 123.562596 
L 85.77288 123.562596 
L 85.77288 121.694707 
L 86.70708 121.694707 
L 86.70708 120.586087 
L 87.64128 120.586087 
L 87.64128 115.778945 
L 88.57548 115.778945 
L 88.57548 114.077609 
L 89.50968 114.077609 
L 89.50968 110.492106 
L 90.44388 110.492106 
L 90.44388 112.863253 
L 91.37808 112.863253 
L 91.37808 109.125681 
L 92.31228 109.125681 
L 92.31228 107.697183 
L 93.24648 107.697183 
L 93.24648 105.568731 
L 94.18068 105.568731 
L 94.18068 102.531114 
L 95.11488 102.531114 
L 95.11488 98.96262 
L 96.04908 98.96262 
L 96.04908 97.668935 
L 96.98328 97.668935 
L 96.98328 94.496238 
L 97.91748 94.496238 
L 97.91748 90.728514 
L 98.85168 90.728514 
L 98.85168 86.624818 
L 99.78588 86.624818 
L 99.78588 83.878108 
L 100.72008 83.878108 
L 100.72008 80.385055 
L 101.65428 80.385055 
L 101.65428 77.573684 
L 102.58848 77.573684 
L 102.58848 72.838306 
L 103.52268 72.838306 
L 103.52268 68.544132 
L 104.45688 68.544132 
L 104.45688 65.986555 
L 105.39108 65.986555 
L 105.39108 62.812993 
L 106.32528 62.812993 
L 106.32528 61.921798 
L 107.25948 61.921798 
L 107.25948 48.790801 
L 108.19368 48.790801 
L 108.19368 58.674989 
L 109.12788 58.674989 
L 109.12788 61.550036 
L 110.06208 61.550036 
L 110.06208 63.956887 
L 110.99628 63.956887 
L 110.99628 67.622272 
L 111.93048 67.622272 
L 111.93048 70.689652 
L 112.86468 70.689652 
L 112.86468 76.020675 
L 113.79888 76.020675 
L 113.79888 78.359728 
L 114.73308 78.359728 
L 114.73308 82.180494 
L 115.66728 82.180494 
L 115.66728 86.153543 
L 116.60148 86.153543 
L 116.60148 89.653916 
L 117.53568 89.653916 
L 117.53568 92.76924 
L 118.46988 92.76924 
L 118.46988 93.571608 
L 119.40408 93.571608 
L 119.40408 100.186706 
L 120.33828 100.186706 
L 120.33828 100.733618 
L 121.27248 100.733618 
L 121.27248 102.923179 
L 122.20668 102.923179 
L 122.20668 104.624515 
L 123.14088 104.624515 
L 123.14088 109.125681 
L 124.07508 109.125681 
L 124.07508 110.253948 
L 125.00928 110.253948 
L 125.00928 115.778945 
L 125.94348 115.778945 
L 125.94348 112.863253 
L 126.87768 112.863253 
L 126.87768 115.778945 
L 127.81188 115.778945 
L 127.81188 118.174936 
L 128.74608 118.174936 
L 128.74608 121.694707 
L 129.68028 121.694707 
L 129.68028 121.128343 
L 130.61448 121.128343 
L 130.61448 120.586087 
L 131.54868 120.586087 
L 131.54868 121.694707 
L 132.48288 121.694707 
L 132.48288 127.453492 
L 133.41708 127.453492 
L 133.41708 126.574448 
L 134.35128 126.574448 
L 134.35128 130.720685 
L 135.47232 130.720685 
L 135.47232 136.027542 
L 136.7802 136.027542 
L 136.7802 134.063493 
L 137.90124 134.063493 
L 137.90124 133.082925 
L 138.83544 133.082925 
L 138.83544 134.063493 
L 141.07752 134.063493 
L 141.07752 133.082925 
L 142.01172 133.082925 
L 142.01172 138.607923 
L 143.13276 138.607923 
L 143.13276 145.1164 
L 145.00116 145.1164 
L 145.00116 140.571971 
L 146.86956 140.571971 
L 146.86956 147.080449 
L 148.73796 147.080449 
L 148.73796 146.560332 
L 150.23268 146.560332 
L 150.23268 148.675164 
L 153.40896 148.675164 
L 153.40896 167.838757 
L 159.76152 167.838757 
L 159.76152 156.16421 
L 162.9378 156.16421 
L 162.9378 162.05854 
L 167.98248 162.05854 
L 167.98248 170.161734 
L 177.51132 170.161734 
L 177.51132 165.957713 
L 185.73228 165.957713 
L 185.73228 177.256112 
L 202.36104 177.256112 
L 202.36104 188.728645 
L 231.4 188.728645 
L 231.4 188.728645 
" clip-path="url(#p40cf435828)" style="fill: none; stroke: #f305f9; stroke-width: 0.75; stroke-linejoin: miter"/>
   </g>
   <g id="patch_6">
    <path d="M 201.24 227.922437 
L 201.24 14.4 
" style="fill: none; stroke: #808080; stroke-width: 1.25; stroke-linejoin: miter; stroke-linecap: square"/>
   </g>
   <g id="patch_7">
    <path d="M 14.4 227.922437 
L 201.24 227.922437 
" style="fill: none; stroke: #808080; stroke-width: 1.25; stroke-linejoin: miter; stroke-linecap: square"/>
   </g>
   <g id="legend_1">
    <g id="patch_8">
     <path d="M 159.1875 39.69 
L 197.04 39.69 
Q 198.24 39.69 198.24 38.49 
L 198.24 18.6 
Q 198.24 17.4 197.04 17.4 
L 159.1875 17.4 
Q 157.9875 17.4 157.9875 18.6 
L 157.9875 38.49 
Q 157.9875 39.69 159.1875 39.69 
z
" style="fill: #0a0119; stroke: #bfbfbf; stroke-width: 0.3; stroke-linejoin: miter"/>
    </g>
    <g id="patch_9">
     <path d="M 159.4875 23.184375 
L 171.4875 23.184375 
L 171.4875 18.984375 
L 159.4875 18.984375 
L 159.4875 23.184375 
z
" style="fill: none; stroke: #6c74f5; stroke-width: 0.75; stroke-linejoin: miter"/>
    </g>
    <g id="text_14">
     <text style="fill: #f2f2f2; font: 500 6px 'Helvetica Neue', 'HelveticaNeue', 'Arial', 'Liberation Sans', 'DejaVu Sans', 'Bitstream Vera Sans', sans-serif; text-anchor: start" x="176.2875" y="23.184375" transform="rotate(-0 176.2875 23.184375)">5bps</text>
    </g>
    <g id="patch_10">
     <path d="M 159.4875 30.114375 
L 171.4875 30.114375 
L 171.4875 25.914375 
L 159.4875 25.914375 
L 159.4875 30.114375 
z
" style="fill: none; stroke: #7ceac5; stroke-width: 0.75; stroke-linejoin: miter"/>
    </g>
    <g id="text_15">
     <text style="fill: #f2f2f2; font: 500 6px 'Helvetica Neue', 'HelveticaNeue', 'Arial', 'Liberation Sans', 'DejaVu Sans', 'Bitstream Vera Sans', sans-serif; text-anchor: start" x="176.2875" y="30.114375" transform="rotate(-0 176.2875 30.114375)">30bps</text>
    </g>
    <g id="patch_11">
     <path d="M 159.4875 37.044375 
L 171.4875 37.044375 
L 171.4875 32.844375 
L 159.4875 32.844375 
L 159.4875 37.044375 
z
" style="fill: none; stroke: #f305f9; stroke-width: 0.75; stroke-linejoin: miter"/>
    </g>
    <g id="text_16">
     <text style="fill: #f2f2f2; font: 500 6px 'Helvetica Neue', 'HelveticaNeue', 'Arial', 'Liberation Sans', 'DejaVu Sans', 'Bitstream Vera Sans', sans-serif; text-anchor: start" x="176.2875" y="37.044375" transform="rotate(-0 176.2875 37.044375)">100bps</text>
    </g>
   </g>
  </g>
 </g>
 <defs>
  <clipPath id="p40cf435828">
   <rect x="14.4" y="14.4" width="186.84" height="213.522437"/>
  </clipPath>
 </defs>
</svg>
